%TF.GenerationSoftware,KiCad,Pcbnew,9.0.2*%
%TF.CreationDate,2026-08-31T16:30:54+10:00*%
%TF.ProjectId,Walkman - Blobject,57616c6b-6d61-46e2-902d-20426c6f626a,rev?*%
%TF.SameCoordinates,Original*%
%TF.FileFunction,Soldermask,Bot*%
%TF.FilePolarity,Negative*%
%FSLAX46Y46*%
G04 Gerber Fmt 4.6, Leading zero omitted, Abs format (unit mm)*
G04 Created by KiCad (PCBNEW 9.0.2) date 2026-08-31 16:30:54*
%MOMM*%
%LPD*%
G01*
G04 APERTURE LIST*
G04 Aperture macros list*
%AMRoundRect*
0 Rectangle with rounded corners*
0 $1 Rounding radius*
0 $2 $3 $4 $5 $6 $7 $8 $9 X,Y pos of 4 corners*
0 Add a 4 corners polygon primitive as box body*
4,1,4,$2,$3,$4,$5,$6,$7,$8,$9,$2,$3,0*
0 Add four circle primitives for the rounded corners*
1,1,$1+$1,$2,$3*
1,1,$1+$1,$4,$5*
1,1,$1+$1,$6,$7*
1,1,$1+$1,$8,$9*
0 Add four rect primitives between the rounded corners*
20,1,$1+$1,$2,$3,$4,$5,0*
20,1,$1+$1,$4,$5,$6,$7,0*
20,1,$1+$1,$6,$7,$8,$9,0*
20,1,$1+$1,$8,$9,$2,$3,0*%
G04 Aperture macros list end*
%ADD10C,1.200000*%
%ADD11O,1.200000X2.200000*%
%ADD12O,1.600000X2.300000*%
%ADD13O,2.200000X1.200000*%
%ADD14O,1.600000X2.500000*%
%ADD15C,0.700000*%
%ADD16C,4.400000*%
%ADD17C,1.800000*%
%ADD18O,2.400000X3.800000*%
%ADD19C,0.650000*%
%ADD20O,1.000000X2.100000*%
%ADD21O,1.000000X1.600000*%
%ADD22RoundRect,0.250000X-0.350000X-0.625000X0.350000X-0.625000X0.350000X0.625000X-0.350000X0.625000X0*%
%ADD23O,1.200000X1.750000*%
%ADD24R,1.000000X1.000000*%
%ADD25C,1.000000*%
%ADD26C,0.610000*%
G04 APERTURE END LIST*
D10*
%TO.C,J6*%
X74680000Y-153390000D03*
X74680000Y-155890000D03*
X79680000Y-148390000D03*
X84680000Y-153390000D03*
X84680000Y-155890000D03*
D11*
X74680000Y-148390000D03*
D12*
X77180000Y-148390000D03*
D13*
X79680000Y-153390000D03*
D11*
X84680000Y-148390000D03*
D14*
X82180000Y-148390000D03*
%TD*%
D15*
%TO.C,H5*%
X76460000Y-58900000D03*
X76943274Y-57733274D03*
X76943274Y-60066726D03*
X78110000Y-57250000D03*
D16*
X78110000Y-58900000D03*
D15*
X78110000Y-60550000D03*
X79276726Y-57733274D03*
X79276726Y-60066726D03*
X79760000Y-58900000D03*
%TD*%
D17*
%TO.C,SW2*%
X99610000Y-110650000D03*
X104610000Y-110650000D03*
X99610000Y-125150000D03*
X104610000Y-125150000D03*
X102110000Y-125150000D03*
D18*
X96410000Y-117650000D03*
X107810000Y-117650000D03*
%TD*%
D19*
%TO.C,J1*%
X89310000Y-152800000D03*
X95090000Y-152800000D03*
D20*
X87880000Y-152270000D03*
D21*
X87880000Y-156450000D03*
D20*
X96520000Y-152270000D03*
D21*
X96520000Y-156450000D03*
%TD*%
D15*
%TO.C,H6*%
X124460000Y-58900000D03*
X124943274Y-57733274D03*
X124943274Y-60066726D03*
X126110000Y-57250000D03*
D16*
X126110000Y-58900000D03*
D15*
X126110000Y-60550000D03*
X127276726Y-57733274D03*
X127276726Y-60066726D03*
X127760000Y-58900000D03*
%TD*%
D22*
%TO.C,BT1*%
X96290000Y-130780000D03*
D23*
X98290000Y-130780000D03*
%TD*%
D24*
%TO.C,J4*%
X76555000Y-69235000D03*
D25*
X77825000Y-69235000D03*
X76555000Y-70505000D03*
X77825000Y-70505000D03*
X76555000Y-71775000D03*
X77825000Y-71775000D03*
X76555000Y-73045000D03*
X77825000Y-73045000D03*
X76555000Y-74315000D03*
X77825000Y-74315000D03*
%TD*%
D26*
%TO.C,U3*%
X78150000Y-132430000D03*
X79350000Y-133630000D03*
X78150000Y-133630000D03*
X76950000Y-133630000D03*
X78150000Y-134830000D03*
%TD*%
D15*
%TO.C,H8*%
X124460000Y-120900000D03*
X124943274Y-119733274D03*
X124943274Y-122066726D03*
X126110000Y-119250000D03*
D16*
X126110000Y-120900000D03*
D15*
X126110000Y-122550000D03*
X127276726Y-119733274D03*
X127276726Y-122066726D03*
X127760000Y-120900000D03*
%TD*%
%TO.C,H7*%
X76460000Y-120900000D03*
X76943274Y-119733274D03*
X76943274Y-122066726D03*
X78110000Y-119250000D03*
D16*
X78110000Y-120900000D03*
D15*
X78110000Y-122550000D03*
X79276726Y-119733274D03*
X79276726Y-122066726D03*
X79760000Y-120900000D03*
%TD*%
M02*
