M48
; DRILL file {KiCad 9.0.2} date 2026-08-31T16:30:56+1000
; FORMAT={-:-/ absolute / metric / decimal}
; #@! TF.CreationDate,2026-08-31T16:30:56+10:00
; #@! TF.GenerationSoftware,Kicad,Pcbnew,9.0.2
; #@! TF.FileFunction,Plated,1,4,PTH
FMAT,2
METRIC
; #@! TA.AperFunction,Plated,PTH,ViaDrill
T1C0.300
; #@! TA.AperFunction,Plated,PTH,ComponentDrill
T2C0.300
; #@! TA.AperFunction,Plated,PTH,ComponentDrill
T3C0.400
; #@! TA.AperFunction,Plated,PTH,ComponentDrill
T4C0.600
; #@! TA.AperFunction,Plated,PTH,ComponentDrill
T5C0.650
; #@! TA.AperFunction,Plated,PTH,ComponentDrill
T6C0.750
; #@! TA.AperFunction,Plated,PTH,ComponentDrill
T7C0.800
; #@! TA.AperFunction,Plated,PTH,ComponentDrill
T8C1.200
; #@! TA.AperFunction,Plated,PTH,ComponentDrill
T9C1.400
; #@! TA.AperFunction,Plated,PTH,ComponentDrill
T10C2.200
%
G90
G05
T1
X72.97Y-133.36
X72.97Y-134.88
X73.15Y-131.7
X73.375Y-103.725
X73.425Y-93.225
X73.45Y-83.275
X73.475Y-108.35
X73.5Y-116.225
X73.55Y-98.7
X73.625Y-78.475
X73.625Y-89.35
X73.675Y-112.4
X73.875Y-71.15
X74.25Y-151.125
X74.55Y-65.8
X74.83Y-131.88
X75.125Y-76.1
X75.7Y-131.22
X75.71Y-136.19
X75.875Y-62.375
X76.05Y-146.1
X76.3Y-124.125
X76.525Y-155.25
X76.857Y-136.707
X77.075Y-83.6
X77.319Y-130.249
X77.7Y-137.09
X77.9Y-100.05
X77.95Y-141.0
X78.05Y-95.075
X78.1Y-105.175
X78.152Y-130.395
X78.175Y-90.375
X78.245Y-77.28
X78.245Y-78.81
X78.875Y-111.2
X78.925Y-114.24
X79.098Y-130.395
X79.177Y-129.308
X79.2Y-66.9
X79.475Y-70.525
X79.475Y-150.35
X79.525Y-80.425
X79.65Y-74.75
X79.655Y-72.32
X79.73Y-141.9
X79.744Y-130.463
X80.05Y-145.025
X80.125Y-124.3
X80.127Y-129.3
X80.55Y-102.7
X80.6Y-136.15
X80.63Y-131.22
X80.7Y-61.65
X80.75Y-108.025
X80.875Y-82.925
X80.875Y-85.3
X80.9Y-65.05
X81.3Y-56.3
X81.475Y-144.375
X81.675Y-140.6
X81.75Y-138.375
X81.79Y-132.755
X82.055Y-83.37
X82.25Y-70.5
X82.375Y-65.7
X82.468Y-136.618
X82.6Y-115.025
X82.786Y-70.867
X82.837Y-76.287
X82.85Y-74.85
X83.02Y-73.32
X83.1Y-84.525
X83.1Y-155.05
X83.293Y-71.275
X83.34Y-134.37
X83.35Y-96.375
X83.36Y-131.36
X83.525Y-118.625
X83.575Y-106.45
X83.58Y-138.92
X83.6Y-82.275
X83.8Y-79.5
X83.95Y-113.25
X84.09Y-84.515
X84.25Y-89.275
X84.412Y-67.037
X84.475Y-59.425
X84.5Y-104.95
X84.575Y-73.95
X84.6Y-82.275
X84.725Y-151.05
X84.95Y-103.9
X85.35Y-66.95
X85.35Y-77.75
X85.413Y-130.663
X85.55Y-65.075
X86.08Y-118.595
X86.225Y-138.45
X86.525Y-67.0
X86.775Y-102.35
X86.86Y-126.625
X87.195Y-143.21
X87.525Y-80.6
X87.7Y-55.975
X87.7Y-98.85
X87.825Y-62.175
X88.025Y-66.975
X88.05Y-93.9
X88.125Y-73.625
X88.375Y-109.375
X88.65Y-154.475
X88.95Y-151.355
X88.975Y-86.95
X88.99Y-125.495
X89.075Y-82.0
X89.575Y-69.475
X89.59Y-84.79
X89.75Y-151.355
X89.8Y-67.075
X90.051Y-141.9
X90.18Y-79.17
X90.2Y-156.5
X90.275Y-73.7
X90.29Y-144.325
X90.51Y-129.49
X90.55Y-130.6
X90.6Y-69.525
X90.675Y-134.55
X90.95Y-84.7
X91.1Y-67.075
X91.13Y-127.275
X91.15Y-136.225
X91.2Y-138.6
X91.859Y-69.524
X92.027Y-149.088
X92.05Y-81.825
X92.05Y-94.675
X92.075Y-67.125
X92.1Y-112.58
X92.2Y-107.7
X92.4Y-119.775
X92.41Y-152.65
X92.55Y-59.15
X92.6Y-69.525
X92.977Y-149.088
X93.01Y-131.5
X93.175Y-78.275
X93.28Y-138.96
X93.29Y-141.796
X93.325Y-127.0
X93.525Y-156.525
X93.575Y-69.55
X93.6Y-84.525
X93.63Y-75.58
X94.09Y-67.11
X94.35Y-84.6
X94.475Y-144.775
X94.5Y-132.05
X94.5Y-135.2
X94.59Y-138.395
X94.65Y-85.575
X94.65Y-151.355
X94.997Y-69.524
X95.15Y-144.575
X95.175Y-84.375
X95.33Y-143.65
X95.36Y-100.4
X95.425Y-103.025
X95.45Y-151.355
X95.89Y-95.44
X96.0Y-55.925
X96.275Y-140.61
X96.43Y-143.975
X96.95Y-62.375
X97.191Y-78.795
X97.23Y-146.965
X97.262Y-78.149
X97.4Y-80.345
X97.606Y-79.295
X97.884Y-79.911
X97.925Y-140.61
X97.95Y-143.975
X97.975Y-136.325
X98.05Y-77.05
X98.45Y-153.015
X99.175Y-133.875
X99.2Y-114.5
X99.29Y-120.84
X99.425Y-75.5
X99.525Y-79.9
X99.75Y-59.6
X99.77Y-67.12
X99.9Y-143.62
X99.9Y-144.62
X99.9Y-147.62
X99.9Y-150.62
X99.9Y-151.62
X99.95Y-85.575
X100.025Y-76.925
X100.025Y-156.14
X100.03Y-138.24
X100.062Y-77.888
X100.31Y-127.48
X100.625Y-75.75
X100.7Y-92.425
X100.725Y-88.575
X100.825Y-99.725
X100.925Y-112.375
X101.0Y-107.175
X101.45Y-75.65
X101.6Y-132.3
X101.775Y-102.35
X101.775Y-104.45
X101.805Y-138.02
X102.025Y-57.35
X102.2Y-62.425
X102.525Y-133.45
X103.455Y-138.02
X104.4Y-89.5
X104.45Y-113.775
X104.55Y-137.425
X104.63Y-120.26
X104.675Y-67.15
X104.775Y-129.675
X104.925Y-127.7
X105.025Y-89.3
X105.55Y-139.87
X105.665Y-89.416
X105.775Y-71.045
X105.79Y-138.57
X105.875Y-59.775
X106.225Y-136.34
X106.9Y-130.15
X107.0Y-89.775
X107.05Y-93.725
X107.075Y-56.375
X107.125Y-98.025
X107.295Y-71.045
X107.35Y-127.2
X107.49Y-86.67
X107.7Y-113.725
X108.04Y-135.59
X108.125Y-74.825
X108.4Y-79.325
X108.6Y-107.775
X108.825Y-71.045
X108.86Y-100.4
X108.875Y-103.1
X109.0Y-82.15
X109.125Y-92.25
X109.475Y-133.25
X109.525Y-125.15
X109.7Y-95.475
X109.725Y-120.475
X110.075Y-84.55
X110.12Y-151.89
X110.65Y-59.7
X110.7Y-69.225
X110.745Y-137.9
X111.2Y-56.0
X111.2Y-90.225
X111.675Y-79.6
X112.075Y-101.4
X112.1Y-131.275
X112.15Y-105.575
X112.225Y-118.35
X112.3Y-85.15
X112.325Y-111.2
X112.39Y-134.905
X112.4Y-136.37
X112.4Y-138.02
X112.525Y-95.025
X112.625Y-66.45
X112.7Y-98.35
X112.925Y-74.8
X113.175Y-130.675
X113.385Y-71.05
X113.55Y-154.37
X113.92Y-136.375
X113.92Y-138.025
X114.125Y-122.825
X114.4Y-131.25
X114.625Y-75.65
X114.75Y-93.4
X114.905Y-71.05
X115.025Y-82.0
X115.44Y-136.425
X115.675Y-115.125
X115.675Y-129.175
X115.825Y-108.025
X115.925Y-85.025
X116.1Y-98.5
X116.1Y-103.15
X116.485Y-88.895
X116.485Y-91.925
X116.625Y-95.375
X116.65Y-70.4
X116.65Y-138.025
X117.575Y-89.45
X117.65Y-90.45
X117.725Y-92.0
X117.75Y-79.15
X118.325Y-65.575
X118.99Y-90.21
X119.125Y-96.375
X119.37Y-85.865
X119.375Y-98.55
X119.5Y-94.375
X119.55Y-154.37
X119.6Y-90.6
X120.0Y-61.925
X120.15Y-90.85
X120.175Y-68.85
X120.23Y-143.83
X120.25Y-97.5
X120.325Y-95.55
X120.375Y-76.225
X120.4Y-75.225
X120.425Y-74.225
X120.45Y-57.575
X120.55Y-154.37
X120.8Y-101.175
X120.8Y-106.5
X120.85Y-125.0
X120.875Y-129.45
X120.95Y-133.8
X120.975Y-137.825
X121.09Y-92.74
X121.2Y-113.5
X121.275Y-118.875
X121.325Y-98.6
X121.5Y-94.25
X121.65Y-67.175
X121.71Y-92.12
X121.85Y-69.525
X121.875Y-96.35
X122.075Y-90.605
X122.3Y-80.45
X122.325Y-81.975
X122.325Y-83.725
X122.36Y-92.07
X122.4Y-85.575
X122.425Y-93.35
X122.425Y-95.225
X122.675Y-90.605
X122.73Y-88.785
X122.79Y-89.99
X122.925Y-74.725
X122.95Y-75.725
X122.96Y-92.095
X123.175Y-97.35
X123.2Y-92.78
X123.225Y-90.605
X123.635Y-92.045
X123.75Y-94.775
X123.775Y-90.605
X123.9Y-67.2
X123.925Y-93.45
X124.05Y-89.475
X124.175Y-96.225
X124.21Y-92.095
X124.3Y-90.605
X124.3Y-98.65
X124.51Y-89.98
X124.575Y-63.075
X124.6Y-103.15
X124.625Y-83.875
X124.65Y-81.975
X124.69Y-92.75
X124.725Y-85.95
X124.76Y-92.02
X124.775Y-109.85
X124.9Y-90.58
X124.925Y-72.275
X125.025Y-88.25
X125.05Y-76.5
X125.075Y-89.45
X125.31Y-92.02
X125.35Y-97.525
X125.375Y-93.5
X125.475Y-90.605
X125.575Y-94.975
X125.65Y-82.875
X125.675Y-81.05
X125.73Y-90.02
X125.9Y-84.9
X125.91Y-92.02
X126.0Y-86.975
X126.1Y-90.61
X126.325Y-96.45
X126.35Y-93.28
X126.375Y-89.475
X126.44Y-92.49
X126.51Y-90.15
X126.65Y-98.8
X126.8Y-67.325
X126.8Y-82.025
X126.85Y-94.1
X126.925Y-78.25
X126.925Y-83.85
X127.025Y-69.925
X127.075Y-88.35
X127.125Y-90.35
X127.225Y-86.0
X127.325Y-92.925
X127.625Y-97.675
X127.7Y-90.25
X127.775Y-81.125
X127.875Y-82.875
X127.95Y-95.15
X127.975Y-84.85
X128.025Y-92.875
X128.1Y-87.5
X128.25Y-113.35
X128.325Y-93.6
X128.35Y-89.45
X128.35Y-90.05
X128.35Y-106.7
X128.375Y-101.075
X128.525Y-88.85
X128.65Y-63.2
X128.7Y-94.05
X128.9Y-74.6
X128.9Y-85.825
X128.99Y-88.56
X129.0Y-83.85
X129.025Y-98.925
X129.075Y-81.95
X129.175Y-96.65
X129.22Y-94.24
X129.325Y-87.275
X129.475Y-78.475
X129.55Y-68.4
X129.55Y-88.575
X129.78Y-94.28
X129.9Y-84.8
X130.075Y-81.125
X130.175Y-88.575
X130.255Y-92.85
X130.275Y-82.875
X130.275Y-95.45
X130.29Y-91.35
X130.47Y-94.31
X130.725Y-85.8
X130.725Y-97.975
X130.8Y-88.525
X130.825Y-87.175
X131.18Y-91.35
X131.2Y-94.28
X131.325Y-88.55
T2
X76.95Y-133.63
X78.15Y-132.43
X78.15Y-133.63
X78.15Y-134.83
X79.35Y-133.63
T3
X76.46Y-58.9
X76.46Y-120.9
X76.943Y-57.733
X76.943Y-60.067
X76.943Y-119.733
X76.943Y-122.067
X78.11Y-57.25
X78.11Y-60.55
X78.11Y-119.25
X78.11Y-122.55
X79.277Y-57.733
X79.277Y-60.067
X79.277Y-119.733
X79.277Y-122.067
X79.76Y-58.9
X79.76Y-120.9
X124.46Y-58.9
X124.46Y-120.9
X124.943Y-57.733
X124.943Y-60.067
X124.943Y-119.733
X124.943Y-122.067
X126.11Y-57.25
X126.11Y-60.55
X126.11Y-119.25
X126.11Y-122.55
X127.277Y-57.733
X127.277Y-60.067
X127.277Y-119.733
X127.277Y-122.067
X127.76Y-58.9
X127.76Y-120.9
T5
X76.555Y-69.235
X76.555Y-70.505
X76.555Y-71.775
X76.555Y-73.045
X76.555Y-74.315
X77.825Y-69.235
X77.825Y-70.505
X77.825Y-71.775
X77.825Y-73.045
X77.825Y-74.315
T6
X96.29Y-130.78
X98.29Y-130.78
T8
X99.61Y-110.65
X99.61Y-125.15
X102.11Y-125.15
X104.61Y-110.65
X104.61Y-125.15
T10
X78.11Y-58.9
X78.11Y-120.9
X126.11Y-58.9
X126.11Y-120.9
T3
X74.68Y-147.89G85X74.68Y-148.89
G05
X79.18Y-153.39G85X80.18Y-153.39
G05
X84.68Y-148.89G85X84.68Y-147.89
G05
T4
X87.88Y-151.72G85X87.88Y-152.82
G05
X87.88Y-156.15G85X87.88Y-156.75
G05
X96.52Y-151.72G85X96.52Y-152.82
G05
X96.52Y-156.15G85X96.52Y-156.75
G05
T7
X77.18Y-148.04G85X77.18Y-148.74
G05
X82.18Y-148.74G85X82.18Y-148.04
G05
T9
X96.41Y-116.95G85X96.41Y-118.35
G05
X107.81Y-116.95G85X107.81Y-118.35
G05
M30
