%TF.GenerationSoftware,KiCad,Pcbnew,9.0.2*%
%TF.CreationDate,2026-08-31T16:30:54+10:00*%
%TF.ProjectId,Walkman - Blobject,57616c6b-6d61-46e2-902d-20426c6f626a,rev?*%
%TF.SameCoordinates,Original*%
%TF.FileFunction,Legend,Bot*%
%TF.FilePolarity,Positive*%
%FSLAX46Y46*%
G04 Gerber Fmt 4.6, Leading zero omitted, Abs format (unit mm)*
G04 Created by KiCad (PCBNEW 9.0.2) date 2026-08-31 16:30:54*
%MOMM*%
%LPD*%
G01*
G04 APERTURE LIST*
G04 Aperture macros list*
%AMRoundRect*
0 Rectangle with rounded corners*
0 $1 Rounding radius*
0 $2 $3 $4 $5 $6 $7 $8 $9 X,Y pos of 4 corners*
0 Add a 4 corners polygon primitive as box body*
4,1,4,$2,$3,$4,$5,$6,$7,$8,$9,$2,$3,0*
0 Add four circle primitives for the rounded corners*
1,1,$1+$1,$2,$3*
1,1,$1+$1,$4,$5*
1,1,$1+$1,$6,$7*
1,1,$1+$1,$8,$9*
0 Add four rect primitives between the rounded corners*
20,1,$1+$1,$2,$3,$4,$5,0*
20,1,$1+$1,$4,$5,$6,$7,0*
20,1,$1+$1,$6,$7,$8,$9,0*
20,1,$1+$1,$8,$9,$2,$3,0*%
G04 Aperture macros list end*
%ADD10C,0.187500*%
%ADD11C,1.200000*%
%ADD12O,1.200000X2.200000*%
%ADD13O,1.600000X2.300000*%
%ADD14O,2.200000X1.200000*%
%ADD15O,1.600000X2.500000*%
%ADD16C,0.700000*%
%ADD17C,4.400000*%
%ADD18C,1.800000*%
%ADD19O,2.400000X3.800000*%
%ADD20C,0.650000*%
%ADD21O,1.000000X2.100000*%
%ADD22O,1.000000X1.600000*%
%ADD23RoundRect,0.250000X-0.350000X-0.625000X0.350000X-0.625000X0.350000X0.625000X-0.350000X0.625000X0*%
%ADD24O,1.200000X1.750000*%
%ADD25R,1.000000X1.000000*%
%ADD26C,1.000000*%
%ADD27C,0.610000*%
G04 APERTURE END LIST*
D10*
X105762857Y-86926678D02*
X103905715Y-86926678D01*
X105620000Y-86426678D02*
X104048572Y-86426678D01*
X105405715Y-87855250D02*
X104191429Y-87855250D01*
X105405715Y-87498107D02*
X104191429Y-87498107D01*
X105405715Y-87212392D02*
X105405715Y-87926678D01*
X105262857Y-86498107D02*
X105191429Y-86783821D01*
X104834286Y-86212392D02*
X104834286Y-86426678D01*
X104405715Y-86498107D02*
X104477143Y-86783821D01*
X105405715Y-87212392D02*
X104191429Y-87212392D01*
X104191429Y-87212392D02*
X104191429Y-87926678D01*
X103334286Y-86569535D02*
X102691429Y-86569535D01*
X102977143Y-86283821D02*
X103334286Y-87355250D01*
X103334286Y-87355250D02*
X103048571Y-86926678D01*
X103048571Y-86926678D02*
X102905714Y-87069535D01*
X102905714Y-87069535D02*
X102834286Y-87498107D01*
X102548571Y-86998107D02*
X103191429Y-87498107D01*
X103191429Y-87498107D02*
X103191429Y-87712392D01*
X103191429Y-87712392D02*
X102977143Y-87926678D01*
X102977143Y-87926678D02*
X102620000Y-87926678D01*
X101834285Y-87140964D02*
X101334285Y-87140964D01*
X101834285Y-86712392D02*
X101334285Y-86712392D01*
X101834285Y-86355250D02*
X101834285Y-87640964D01*
X101405714Y-87569535D02*
X101977142Y-87640964D01*
X101334285Y-86355250D02*
X101334285Y-87926678D01*
X101120000Y-87212392D02*
X100191428Y-87212392D01*
X101120000Y-86712392D02*
X101120000Y-87212392D01*
X101048571Y-87498107D02*
X101262857Y-87855250D01*
X100834285Y-87926678D02*
X100405714Y-87926678D01*
X100834285Y-86712392D02*
X100834285Y-87212392D01*
X100834285Y-87498107D02*
X100834285Y-87926678D01*
X100691428Y-87355250D02*
X100548571Y-87498107D01*
X100691428Y-86212392D02*
X100691428Y-86712392D01*
X100548571Y-86712392D02*
X100548571Y-87212392D01*
X100405714Y-87712392D02*
X100405714Y-87926678D01*
X100334285Y-87498107D02*
X100120000Y-87855250D01*
X101977142Y-86355250D02*
X101191428Y-86426678D01*
X101191428Y-86426678D02*
X100191428Y-86426678D01*
X101120000Y-86712392D02*
X100191428Y-86712392D01*
X100191428Y-86712392D02*
X100191428Y-87212392D01*
X98977142Y-86355250D02*
X99334285Y-87069535D01*
X99334285Y-87069535D02*
X98977142Y-87855250D01*
%LPC*%
D11*
%TO.C,J6*%
X74680000Y-153390000D03*
X74680000Y-155890000D03*
X79680000Y-148390000D03*
X84680000Y-153390000D03*
X84680000Y-155890000D03*
D12*
X74680000Y-148390000D03*
D13*
X77180000Y-148390000D03*
D14*
X79680000Y-153390000D03*
D12*
X84680000Y-148390000D03*
D15*
X82180000Y-148390000D03*
%TD*%
D16*
%TO.C,H5*%
X76460000Y-58900000D03*
X76943274Y-57733274D03*
X76943274Y-60066726D03*
X78110000Y-57250000D03*
D17*
X78110000Y-58900000D03*
D16*
X78110000Y-60550000D03*
X79276726Y-57733274D03*
X79276726Y-60066726D03*
X79760000Y-58900000D03*
%TD*%
D18*
%TO.C,SW2*%
X99610000Y-110650000D03*
X104610000Y-110650000D03*
X99610000Y-125150000D03*
X104610000Y-125150000D03*
X102110000Y-125150000D03*
D19*
X96410000Y-117650000D03*
X107810000Y-117650000D03*
%TD*%
D20*
%TO.C,J1*%
X89310000Y-152800000D03*
X95090000Y-152800000D03*
D21*
X87880000Y-152270000D03*
D22*
X87880000Y-156450000D03*
D21*
X96520000Y-152270000D03*
D22*
X96520000Y-156450000D03*
%TD*%
D16*
%TO.C,H6*%
X124460000Y-58900000D03*
X124943274Y-57733274D03*
X124943274Y-60066726D03*
X126110000Y-57250000D03*
D17*
X126110000Y-58900000D03*
D16*
X126110000Y-60550000D03*
X127276726Y-57733274D03*
X127276726Y-60066726D03*
X127760000Y-58900000D03*
%TD*%
D23*
%TO.C,BT1*%
X96290000Y-130780000D03*
D24*
X98290000Y-130780000D03*
%TD*%
D25*
%TO.C,J4*%
X76555000Y-69235000D03*
D26*
X77825000Y-69235000D03*
X76555000Y-70505000D03*
X77825000Y-70505000D03*
X76555000Y-71775000D03*
X77825000Y-71775000D03*
X76555000Y-73045000D03*
X77825000Y-73045000D03*
X76555000Y-74315000D03*
X77825000Y-74315000D03*
%TD*%
D27*
%TO.C,U3*%
X78150000Y-132430000D03*
X79350000Y-133630000D03*
X78150000Y-133630000D03*
X76950000Y-133630000D03*
X78150000Y-134830000D03*
%TD*%
D16*
%TO.C,H8*%
X124460000Y-120900000D03*
X124943274Y-119733274D03*
X124943274Y-122066726D03*
X126110000Y-119250000D03*
D17*
X126110000Y-120900000D03*
D16*
X126110000Y-122550000D03*
X127276726Y-119733274D03*
X127276726Y-122066726D03*
X127760000Y-120900000D03*
%TD*%
%TO.C,H7*%
X76460000Y-120900000D03*
X76943274Y-119733274D03*
X76943274Y-122066726D03*
X78110000Y-119250000D03*
D17*
X78110000Y-120900000D03*
D16*
X78110000Y-122550000D03*
X79276726Y-119733274D03*
X79276726Y-122066726D03*
X79760000Y-120900000D03*
%TD*%
%LPD*%
M02*
