%TF.GenerationSoftware,KiCad,Pcbnew,9.0.2*%
%TF.CreationDate,2026-08-31T16:30:56+10:00*%
%TF.ProjectId,Walkman - Blobject,57616c6b-6d61-46e2-902d-20426c6f626a,rev?*%
%TF.SameCoordinates,Original*%
%TF.FileFunction,Drillmap*%
%TF.FilePolarity,Positive*%
%FSLAX45Y45*%
G04 Gerber Fmt 4.5, Leading zero omitted, Abs format (unit mm)*
G04 Created by KiCad (PCBNEW 9.0.2) date 2026-08-31 16:30:56*
%MOMM*%
%LPD*%
G01*
G04 APERTURE LIST*
%ADD10C,0.100000*%
%ADD11C,0.200000*%
%ADD12C,0.120000*%
G04 APERTURE END LIST*
D10*
X13211000Y-15490000D02*
G75*
G02*
X12911000Y-15790000I-300000J0D01*
G01*
X7511000Y-5290000D02*
X12911000Y-5290000D01*
X7748000Y-15689000D02*
X7748000Y-15790000D01*
X7211000Y-15790000D02*
X7211000Y-5590000D01*
X8148000Y-15649000D02*
X7788000Y-15649000D01*
X8148000Y-15649000D02*
G75*
G02*
X8188000Y-15689000I0J-40000D01*
G01*
X7748000Y-15689000D02*
G75*
G02*
X7788000Y-15649000I40000J0D01*
G01*
X12911000Y-15790000D02*
X8188000Y-15790000D01*
X13211000Y-5590000D02*
X13211000Y-15490000D01*
X8188000Y-15689000D02*
X8188000Y-15790000D01*
X12911000Y-5290000D02*
G75*
G02*
X13211000Y-5590000I0J-300000D01*
G01*
X7211000Y-5590000D02*
G75*
G02*
X7511000Y-5290000I300000J0D01*
G01*
X7748000Y-15790000D02*
X7211000Y-15790000D01*
D11*
D10*
X8898500Y-15247500D02*
X8963500Y-15312500D01*
X8963500Y-15247500D02*
X8898500Y-15312500D01*
X9476500Y-15247500D02*
X9541500Y-15312500D01*
X9541500Y-15247500D02*
X9476500Y-15312500D01*
D12*
X7528000Y-15339000D02*
G75*
G02*
X7408000Y-15339000I-60000J0D01*
G01*
X7408000Y-15339000D02*
G75*
G02*
X7528000Y-15339000I60000J0D01*
G01*
X7528000Y-15589000D02*
G75*
G02*
X7408000Y-15589000I-60000J0D01*
G01*
X7408000Y-15589000D02*
G75*
G02*
X7528000Y-15589000I60000J0D01*
G01*
X8028000Y-14839000D02*
G75*
G02*
X7908000Y-14839000I-60000J0D01*
G01*
X7908000Y-14839000D02*
G75*
G02*
X8028000Y-14839000I60000J0D01*
G01*
X8528000Y-15339000D02*
G75*
G02*
X8408000Y-15339000I-60000J0D01*
G01*
X8408000Y-15339000D02*
G75*
G02*
X8528000Y-15339000I60000J0D01*
G01*
X8528000Y-15589000D02*
G75*
G02*
X8408000Y-15589000I-60000J0D01*
G01*
X8408000Y-15589000D02*
G75*
G02*
X8528000Y-15589000I60000J0D01*
G01*
D11*
X7466777Y-16106484D02*
X7466777Y-15906484D01*
X7466777Y-15906484D02*
X7514396Y-15906484D01*
X7514396Y-15906484D02*
X7542967Y-15916008D01*
X7542967Y-15916008D02*
X7562015Y-15935055D01*
X7562015Y-15935055D02*
X7571539Y-15954103D01*
X7571539Y-15954103D02*
X7581062Y-15992198D01*
X7581062Y-15992198D02*
X7581062Y-16020769D01*
X7581062Y-16020769D02*
X7571539Y-16058865D01*
X7571539Y-16058865D02*
X7562015Y-16077912D01*
X7562015Y-16077912D02*
X7542967Y-16096960D01*
X7542967Y-16096960D02*
X7514396Y-16106484D01*
X7514396Y-16106484D02*
X7466777Y-16106484D01*
X7666777Y-16106484D02*
X7666777Y-15973150D01*
X7666777Y-16011246D02*
X7676301Y-15992198D01*
X7676301Y-15992198D02*
X7685824Y-15982674D01*
X7685824Y-15982674D02*
X7704872Y-15973150D01*
X7704872Y-15973150D02*
X7723920Y-15973150D01*
X7790586Y-16106484D02*
X7790586Y-15973150D01*
X7790586Y-15906484D02*
X7781062Y-15916008D01*
X7781062Y-15916008D02*
X7790586Y-15925531D01*
X7790586Y-15925531D02*
X7800110Y-15916008D01*
X7800110Y-15916008D02*
X7790586Y-15906484D01*
X7790586Y-15906484D02*
X7790586Y-15925531D01*
X7914396Y-16106484D02*
X7895348Y-16096960D01*
X7895348Y-16096960D02*
X7885824Y-16077912D01*
X7885824Y-16077912D02*
X7885824Y-15906484D01*
X8019158Y-16106484D02*
X8000110Y-16096960D01*
X8000110Y-16096960D02*
X7990586Y-16077912D01*
X7990586Y-16077912D02*
X7990586Y-15906484D01*
X8247729Y-16106484D02*
X8247729Y-15906484D01*
X8247729Y-15906484D02*
X8314396Y-16049341D01*
X8314396Y-16049341D02*
X8381062Y-15906484D01*
X8381062Y-15906484D02*
X8381062Y-16106484D01*
X8562015Y-16106484D02*
X8562015Y-16001722D01*
X8562015Y-16001722D02*
X8552491Y-15982674D01*
X8552491Y-15982674D02*
X8533444Y-15973150D01*
X8533444Y-15973150D02*
X8495348Y-15973150D01*
X8495348Y-15973150D02*
X8476301Y-15982674D01*
X8562015Y-16096960D02*
X8542967Y-16106484D01*
X8542967Y-16106484D02*
X8495348Y-16106484D01*
X8495348Y-16106484D02*
X8476301Y-16096960D01*
X8476301Y-16096960D02*
X8466777Y-16077912D01*
X8466777Y-16077912D02*
X8466777Y-16058865D01*
X8466777Y-16058865D02*
X8476301Y-16039817D01*
X8476301Y-16039817D02*
X8495348Y-16030293D01*
X8495348Y-16030293D02*
X8542967Y-16030293D01*
X8542967Y-16030293D02*
X8562015Y-16020769D01*
X8657253Y-15973150D02*
X8657253Y-16173150D01*
X8657253Y-15982674D02*
X8676301Y-15973150D01*
X8676301Y-15973150D02*
X8714396Y-15973150D01*
X8714396Y-15973150D02*
X8733444Y-15982674D01*
X8733444Y-15982674D02*
X8742967Y-15992198D01*
X8742967Y-15992198D02*
X8752491Y-16011246D01*
X8752491Y-16011246D02*
X8752491Y-16068388D01*
X8752491Y-16068388D02*
X8742967Y-16087436D01*
X8742967Y-16087436D02*
X8733444Y-16096960D01*
X8733444Y-16096960D02*
X8714396Y-16106484D01*
X8714396Y-16106484D02*
X8676301Y-16106484D01*
X8676301Y-16106484D02*
X8657253Y-16096960D01*
X8838205Y-16087436D02*
X8847729Y-16096960D01*
X8847729Y-16096960D02*
X8838205Y-16106484D01*
X8838205Y-16106484D02*
X8828682Y-16096960D01*
X8828682Y-16096960D02*
X8838205Y-16087436D01*
X8838205Y-16087436D02*
X8838205Y-16106484D01*
X8838205Y-15982674D02*
X8847729Y-15992198D01*
X8847729Y-15992198D02*
X8838205Y-16001722D01*
X8838205Y-16001722D02*
X8828682Y-15992198D01*
X8828682Y-15992198D02*
X8838205Y-15982674D01*
X8838205Y-15982674D02*
X8838205Y-16001722D01*
D10*
X7141000Y-16402500D02*
X7206000Y-16467500D01*
X7206000Y-16402500D02*
X7141000Y-16467500D01*
D11*
X7504872Y-16326484D02*
X7523920Y-16326484D01*
X7523920Y-16326484D02*
X7542967Y-16336008D01*
X7542967Y-16336008D02*
X7552491Y-16345531D01*
X7552491Y-16345531D02*
X7562015Y-16364579D01*
X7562015Y-16364579D02*
X7571539Y-16402674D01*
X7571539Y-16402674D02*
X7571539Y-16450293D01*
X7571539Y-16450293D02*
X7562015Y-16488388D01*
X7562015Y-16488388D02*
X7552491Y-16507436D01*
X7552491Y-16507436D02*
X7542967Y-16516960D01*
X7542967Y-16516960D02*
X7523920Y-16526484D01*
X7523920Y-16526484D02*
X7504872Y-16526484D01*
X7504872Y-16526484D02*
X7485824Y-16516960D01*
X7485824Y-16516960D02*
X7476301Y-16507436D01*
X7476301Y-16507436D02*
X7466777Y-16488388D01*
X7466777Y-16488388D02*
X7457253Y-16450293D01*
X7457253Y-16450293D02*
X7457253Y-16402674D01*
X7457253Y-16402674D02*
X7466777Y-16364579D01*
X7466777Y-16364579D02*
X7476301Y-16345531D01*
X7476301Y-16345531D02*
X7485824Y-16336008D01*
X7485824Y-16336008D02*
X7504872Y-16326484D01*
X7657253Y-16507436D02*
X7666777Y-16516960D01*
X7666777Y-16516960D02*
X7657253Y-16526484D01*
X7657253Y-16526484D02*
X7647729Y-16516960D01*
X7647729Y-16516960D02*
X7657253Y-16507436D01*
X7657253Y-16507436D02*
X7657253Y-16526484D01*
X7838205Y-16326484D02*
X7800110Y-16326484D01*
X7800110Y-16326484D02*
X7781062Y-16336008D01*
X7781062Y-16336008D02*
X7771539Y-16345531D01*
X7771539Y-16345531D02*
X7752491Y-16374103D01*
X7752491Y-16374103D02*
X7742967Y-16412198D01*
X7742967Y-16412198D02*
X7742967Y-16488388D01*
X7742967Y-16488388D02*
X7752491Y-16507436D01*
X7752491Y-16507436D02*
X7762015Y-16516960D01*
X7762015Y-16516960D02*
X7781062Y-16526484D01*
X7781062Y-16526484D02*
X7819158Y-16526484D01*
X7819158Y-16526484D02*
X7838205Y-16516960D01*
X7838205Y-16516960D02*
X7847729Y-16507436D01*
X7847729Y-16507436D02*
X7857253Y-16488388D01*
X7857253Y-16488388D02*
X7857253Y-16440769D01*
X7857253Y-16440769D02*
X7847729Y-16421722D01*
X7847729Y-16421722D02*
X7838205Y-16412198D01*
X7838205Y-16412198D02*
X7819158Y-16402674D01*
X7819158Y-16402674D02*
X7781062Y-16402674D01*
X7781062Y-16402674D02*
X7762015Y-16412198D01*
X7762015Y-16412198D02*
X7752491Y-16421722D01*
X7752491Y-16421722D02*
X7742967Y-16440769D01*
X8038205Y-16326484D02*
X7942967Y-16326484D01*
X7942967Y-16326484D02*
X7933443Y-16421722D01*
X7933443Y-16421722D02*
X7942967Y-16412198D01*
X7942967Y-16412198D02*
X7962015Y-16402674D01*
X7962015Y-16402674D02*
X8009634Y-16402674D01*
X8009634Y-16402674D02*
X8028682Y-16412198D01*
X8028682Y-16412198D02*
X8038205Y-16421722D01*
X8038205Y-16421722D02*
X8047729Y-16440769D01*
X8047729Y-16440769D02*
X8047729Y-16488388D01*
X8047729Y-16488388D02*
X8038205Y-16507436D01*
X8038205Y-16507436D02*
X8028682Y-16516960D01*
X8028682Y-16516960D02*
X8009634Y-16526484D01*
X8009634Y-16526484D02*
X7962015Y-16526484D01*
X7962015Y-16526484D02*
X7942967Y-16516960D01*
X7942967Y-16516960D02*
X7933443Y-16507436D01*
X8171539Y-16326484D02*
X8190586Y-16326484D01*
X8190586Y-16326484D02*
X8209634Y-16336008D01*
X8209634Y-16336008D02*
X8219158Y-16345531D01*
X8219158Y-16345531D02*
X8228682Y-16364579D01*
X8228682Y-16364579D02*
X8238205Y-16402674D01*
X8238205Y-16402674D02*
X8238205Y-16450293D01*
X8238205Y-16450293D02*
X8228682Y-16488388D01*
X8228682Y-16488388D02*
X8219158Y-16507436D01*
X8219158Y-16507436D02*
X8209634Y-16516960D01*
X8209634Y-16516960D02*
X8190586Y-16526484D01*
X8190586Y-16526484D02*
X8171539Y-16526484D01*
X8171539Y-16526484D02*
X8152491Y-16516960D01*
X8152491Y-16516960D02*
X8142967Y-16507436D01*
X8142967Y-16507436D02*
X8133443Y-16488388D01*
X8133443Y-16488388D02*
X8123920Y-16450293D01*
X8123920Y-16450293D02*
X8123920Y-16402674D01*
X8123920Y-16402674D02*
X8133443Y-16364579D01*
X8133443Y-16364579D02*
X8142967Y-16345531D01*
X8142967Y-16345531D02*
X8152491Y-16336008D01*
X8152491Y-16336008D02*
X8171539Y-16326484D01*
X8323920Y-16526484D02*
X8323920Y-16393150D01*
X8323920Y-16412198D02*
X8333443Y-16402674D01*
X8333443Y-16402674D02*
X8352491Y-16393150D01*
X8352491Y-16393150D02*
X8381063Y-16393150D01*
X8381063Y-16393150D02*
X8400110Y-16402674D01*
X8400110Y-16402674D02*
X8409634Y-16421722D01*
X8409634Y-16421722D02*
X8409634Y-16526484D01*
X8409634Y-16421722D02*
X8419158Y-16402674D01*
X8419158Y-16402674D02*
X8438205Y-16393150D01*
X8438205Y-16393150D02*
X8466777Y-16393150D01*
X8466777Y-16393150D02*
X8485825Y-16402674D01*
X8485825Y-16402674D02*
X8495348Y-16421722D01*
X8495348Y-16421722D02*
X8495348Y-16526484D01*
X8590586Y-16526484D02*
X8590586Y-16393150D01*
X8590586Y-16412198D02*
X8600110Y-16402674D01*
X8600110Y-16402674D02*
X8619158Y-16393150D01*
X8619158Y-16393150D02*
X8647729Y-16393150D01*
X8647729Y-16393150D02*
X8666777Y-16402674D01*
X8666777Y-16402674D02*
X8676301Y-16421722D01*
X8676301Y-16421722D02*
X8676301Y-16526484D01*
X8676301Y-16421722D02*
X8685825Y-16402674D01*
X8685825Y-16402674D02*
X8704872Y-16393150D01*
X8704872Y-16393150D02*
X8733444Y-16393150D01*
X8733444Y-16393150D02*
X8752491Y-16402674D01*
X8752491Y-16402674D02*
X8762015Y-16421722D01*
X8762015Y-16421722D02*
X8762015Y-16526484D01*
X9152491Y-16316960D02*
X8981063Y-16574103D01*
X9409634Y-16326484D02*
X9428682Y-16326484D01*
X9428682Y-16326484D02*
X9447729Y-16336008D01*
X9447729Y-16336008D02*
X9457253Y-16345531D01*
X9457253Y-16345531D02*
X9466777Y-16364579D01*
X9466777Y-16364579D02*
X9476301Y-16402674D01*
X9476301Y-16402674D02*
X9476301Y-16450293D01*
X9476301Y-16450293D02*
X9466777Y-16488388D01*
X9466777Y-16488388D02*
X9457253Y-16507436D01*
X9457253Y-16507436D02*
X9447729Y-16516960D01*
X9447729Y-16516960D02*
X9428682Y-16526484D01*
X9428682Y-16526484D02*
X9409634Y-16526484D01*
X9409634Y-16526484D02*
X9390587Y-16516960D01*
X9390587Y-16516960D02*
X9381063Y-16507436D01*
X9381063Y-16507436D02*
X9371539Y-16488388D01*
X9371539Y-16488388D02*
X9362015Y-16450293D01*
X9362015Y-16450293D02*
X9362015Y-16402674D01*
X9362015Y-16402674D02*
X9371539Y-16364579D01*
X9371539Y-16364579D02*
X9381063Y-16345531D01*
X9381063Y-16345531D02*
X9390587Y-16336008D01*
X9390587Y-16336008D02*
X9409634Y-16326484D01*
X9562015Y-16507436D02*
X9571539Y-16516960D01*
X9571539Y-16516960D02*
X9562015Y-16526484D01*
X9562015Y-16526484D02*
X9552491Y-16516960D01*
X9552491Y-16516960D02*
X9562015Y-16507436D01*
X9562015Y-16507436D02*
X9562015Y-16526484D01*
X9695348Y-16326484D02*
X9714396Y-16326484D01*
X9714396Y-16326484D02*
X9733444Y-16336008D01*
X9733444Y-16336008D02*
X9742968Y-16345531D01*
X9742968Y-16345531D02*
X9752491Y-16364579D01*
X9752491Y-16364579D02*
X9762015Y-16402674D01*
X9762015Y-16402674D02*
X9762015Y-16450293D01*
X9762015Y-16450293D02*
X9752491Y-16488388D01*
X9752491Y-16488388D02*
X9742968Y-16507436D01*
X9742968Y-16507436D02*
X9733444Y-16516960D01*
X9733444Y-16516960D02*
X9714396Y-16526484D01*
X9714396Y-16526484D02*
X9695348Y-16526484D01*
X9695348Y-16526484D02*
X9676301Y-16516960D01*
X9676301Y-16516960D02*
X9666777Y-16507436D01*
X9666777Y-16507436D02*
X9657253Y-16488388D01*
X9657253Y-16488388D02*
X9647729Y-16450293D01*
X9647729Y-16450293D02*
X9647729Y-16402674D01*
X9647729Y-16402674D02*
X9657253Y-16364579D01*
X9657253Y-16364579D02*
X9666777Y-16345531D01*
X9666777Y-16345531D02*
X9676301Y-16336008D01*
X9676301Y-16336008D02*
X9695348Y-16326484D01*
X9838206Y-16345531D02*
X9847729Y-16336008D01*
X9847729Y-16336008D02*
X9866777Y-16326484D01*
X9866777Y-16326484D02*
X9914396Y-16326484D01*
X9914396Y-16326484D02*
X9933444Y-16336008D01*
X9933444Y-16336008D02*
X9942968Y-16345531D01*
X9942968Y-16345531D02*
X9952491Y-16364579D01*
X9952491Y-16364579D02*
X9952491Y-16383627D01*
X9952491Y-16383627D02*
X9942968Y-16412198D01*
X9942968Y-16412198D02*
X9828682Y-16526484D01*
X9828682Y-16526484D02*
X9952491Y-16526484D01*
X10133444Y-16326484D02*
X10038206Y-16326484D01*
X10038206Y-16326484D02*
X10028682Y-16421722D01*
X10028682Y-16421722D02*
X10038206Y-16412198D01*
X10038206Y-16412198D02*
X10057253Y-16402674D01*
X10057253Y-16402674D02*
X10104872Y-16402674D01*
X10104872Y-16402674D02*
X10123920Y-16412198D01*
X10123920Y-16412198D02*
X10133444Y-16421722D01*
X10133444Y-16421722D02*
X10142968Y-16440769D01*
X10142968Y-16440769D02*
X10142968Y-16488388D01*
X10142968Y-16488388D02*
X10133444Y-16507436D01*
X10133444Y-16507436D02*
X10123920Y-16516960D01*
X10123920Y-16516960D02*
X10104872Y-16526484D01*
X10104872Y-16526484D02*
X10057253Y-16526484D01*
X10057253Y-16526484D02*
X10038206Y-16516960D01*
X10038206Y-16516960D02*
X10028682Y-16507436D01*
X10314396Y-16326484D02*
X10276301Y-16326484D01*
X10276301Y-16326484D02*
X10257253Y-16336008D01*
X10257253Y-16336008D02*
X10247729Y-16345531D01*
X10247729Y-16345531D02*
X10228682Y-16374103D01*
X10228682Y-16374103D02*
X10219158Y-16412198D01*
X10219158Y-16412198D02*
X10219158Y-16488388D01*
X10219158Y-16488388D02*
X10228682Y-16507436D01*
X10228682Y-16507436D02*
X10238206Y-16516960D01*
X10238206Y-16516960D02*
X10257253Y-16526484D01*
X10257253Y-16526484D02*
X10295349Y-16526484D01*
X10295349Y-16526484D02*
X10314396Y-16516960D01*
X10314396Y-16516960D02*
X10323920Y-16507436D01*
X10323920Y-16507436D02*
X10333444Y-16488388D01*
X10333444Y-16488388D02*
X10333444Y-16440769D01*
X10333444Y-16440769D02*
X10323920Y-16421722D01*
X10323920Y-16421722D02*
X10314396Y-16412198D01*
X10314396Y-16412198D02*
X10295349Y-16402674D01*
X10295349Y-16402674D02*
X10257253Y-16402674D01*
X10257253Y-16402674D02*
X10238206Y-16412198D01*
X10238206Y-16412198D02*
X10228682Y-16421722D01*
X10228682Y-16421722D02*
X10219158Y-16440769D01*
X10409634Y-16326484D02*
X10409634Y-16364579D01*
X10485825Y-16326484D02*
X10485825Y-16364579D01*
X10781063Y-16602674D02*
X10771539Y-16593150D01*
X10771539Y-16593150D02*
X10752491Y-16564579D01*
X10752491Y-16564579D02*
X10742968Y-16545531D01*
X10742968Y-16545531D02*
X10733444Y-16516960D01*
X10733444Y-16516960D02*
X10723920Y-16469341D01*
X10723920Y-16469341D02*
X10723920Y-16431246D01*
X10723920Y-16431246D02*
X10733444Y-16383627D01*
X10733444Y-16383627D02*
X10742968Y-16355055D01*
X10742968Y-16355055D02*
X10752491Y-16336008D01*
X10752491Y-16336008D02*
X10771539Y-16307436D01*
X10771539Y-16307436D02*
X10781063Y-16297912D01*
X10847730Y-16345531D02*
X10857253Y-16336008D01*
X10857253Y-16336008D02*
X10876301Y-16326484D01*
X10876301Y-16326484D02*
X10923920Y-16326484D01*
X10923920Y-16326484D02*
X10942968Y-16336008D01*
X10942968Y-16336008D02*
X10952491Y-16345531D01*
X10952491Y-16345531D02*
X10962015Y-16364579D01*
X10962015Y-16364579D02*
X10962015Y-16383627D01*
X10962015Y-16383627D02*
X10952491Y-16412198D01*
X10952491Y-16412198D02*
X10838206Y-16526484D01*
X10838206Y-16526484D02*
X10962015Y-16526484D01*
X11200110Y-16526484D02*
X11200110Y-16326484D01*
X11285825Y-16526484D02*
X11285825Y-16421722D01*
X11285825Y-16421722D02*
X11276301Y-16402674D01*
X11276301Y-16402674D02*
X11257253Y-16393150D01*
X11257253Y-16393150D02*
X11228682Y-16393150D01*
X11228682Y-16393150D02*
X11209634Y-16402674D01*
X11209634Y-16402674D02*
X11200110Y-16412198D01*
X11409634Y-16526484D02*
X11390587Y-16516960D01*
X11390587Y-16516960D02*
X11381063Y-16507436D01*
X11381063Y-16507436D02*
X11371539Y-16488388D01*
X11371539Y-16488388D02*
X11371539Y-16431246D01*
X11371539Y-16431246D02*
X11381063Y-16412198D01*
X11381063Y-16412198D02*
X11390587Y-16402674D01*
X11390587Y-16402674D02*
X11409634Y-16393150D01*
X11409634Y-16393150D02*
X11438206Y-16393150D01*
X11438206Y-16393150D02*
X11457253Y-16402674D01*
X11457253Y-16402674D02*
X11466777Y-16412198D01*
X11466777Y-16412198D02*
X11476301Y-16431246D01*
X11476301Y-16431246D02*
X11476301Y-16488388D01*
X11476301Y-16488388D02*
X11466777Y-16507436D01*
X11466777Y-16507436D02*
X11457253Y-16516960D01*
X11457253Y-16516960D02*
X11438206Y-16526484D01*
X11438206Y-16526484D02*
X11409634Y-16526484D01*
X11590587Y-16526484D02*
X11571539Y-16516960D01*
X11571539Y-16516960D02*
X11562015Y-16497912D01*
X11562015Y-16497912D02*
X11562015Y-16326484D01*
X11742968Y-16516960D02*
X11723920Y-16526484D01*
X11723920Y-16526484D02*
X11685825Y-16526484D01*
X11685825Y-16526484D02*
X11666777Y-16516960D01*
X11666777Y-16516960D02*
X11657253Y-16497912D01*
X11657253Y-16497912D02*
X11657253Y-16421722D01*
X11657253Y-16421722D02*
X11666777Y-16402674D01*
X11666777Y-16402674D02*
X11685825Y-16393150D01*
X11685825Y-16393150D02*
X11723920Y-16393150D01*
X11723920Y-16393150D02*
X11742968Y-16402674D01*
X11742968Y-16402674D02*
X11752491Y-16421722D01*
X11752491Y-16421722D02*
X11752491Y-16440769D01*
X11752491Y-16440769D02*
X11657253Y-16459817D01*
X11828682Y-16516960D02*
X11847730Y-16526484D01*
X11847730Y-16526484D02*
X11885825Y-16526484D01*
X11885825Y-16526484D02*
X11904872Y-16516960D01*
X11904872Y-16516960D02*
X11914396Y-16497912D01*
X11914396Y-16497912D02*
X11914396Y-16488388D01*
X11914396Y-16488388D02*
X11904872Y-16469341D01*
X11904872Y-16469341D02*
X11885825Y-16459817D01*
X11885825Y-16459817D02*
X11857253Y-16459817D01*
X11857253Y-16459817D02*
X11838206Y-16450293D01*
X11838206Y-16450293D02*
X11828682Y-16431246D01*
X11828682Y-16431246D02*
X11828682Y-16421722D01*
X11828682Y-16421722D02*
X11838206Y-16402674D01*
X11838206Y-16402674D02*
X11857253Y-16393150D01*
X11857253Y-16393150D02*
X11885825Y-16393150D01*
X11885825Y-16393150D02*
X11904872Y-16402674D01*
X11981063Y-16602674D02*
X11990587Y-16593150D01*
X11990587Y-16593150D02*
X12009634Y-16564579D01*
X12009634Y-16564579D02*
X12019158Y-16545531D01*
X12019158Y-16545531D02*
X12028682Y-16516960D01*
X12028682Y-16516960D02*
X12038206Y-16469341D01*
X12038206Y-16469341D02*
X12038206Y-16431246D01*
X12038206Y-16431246D02*
X12028682Y-16383627D01*
X12028682Y-16383627D02*
X12019158Y-16355055D01*
X12019158Y-16355055D02*
X12009634Y-16336008D01*
X12009634Y-16336008D02*
X11990587Y-16307436D01*
X11990587Y-16307436D02*
X11981063Y-16297912D01*
X12342968Y-16602674D02*
X12333444Y-16593150D01*
X12333444Y-16593150D02*
X12314396Y-16564579D01*
X12314396Y-16564579D02*
X12304872Y-16545531D01*
X12304872Y-16545531D02*
X12295349Y-16516960D01*
X12295349Y-16516960D02*
X12285825Y-16469341D01*
X12285825Y-16469341D02*
X12285825Y-16431246D01*
X12285825Y-16431246D02*
X12295349Y-16383627D01*
X12295349Y-16383627D02*
X12304872Y-16355055D01*
X12304872Y-16355055D02*
X12314396Y-16336008D01*
X12314396Y-16336008D02*
X12333444Y-16307436D01*
X12333444Y-16307436D02*
X12342968Y-16297912D01*
X12419158Y-16393150D02*
X12419158Y-16526484D01*
X12419158Y-16412198D02*
X12428682Y-16402674D01*
X12428682Y-16402674D02*
X12447730Y-16393150D01*
X12447730Y-16393150D02*
X12476301Y-16393150D01*
X12476301Y-16393150D02*
X12495349Y-16402674D01*
X12495349Y-16402674D02*
X12504872Y-16421722D01*
X12504872Y-16421722D02*
X12504872Y-16526484D01*
X12628682Y-16526484D02*
X12609634Y-16516960D01*
X12609634Y-16516960D02*
X12600111Y-16507436D01*
X12600111Y-16507436D02*
X12590587Y-16488388D01*
X12590587Y-16488388D02*
X12590587Y-16431246D01*
X12590587Y-16431246D02*
X12600111Y-16412198D01*
X12600111Y-16412198D02*
X12609634Y-16402674D01*
X12609634Y-16402674D02*
X12628682Y-16393150D01*
X12628682Y-16393150D02*
X12657253Y-16393150D01*
X12657253Y-16393150D02*
X12676301Y-16402674D01*
X12676301Y-16402674D02*
X12685825Y-16412198D01*
X12685825Y-16412198D02*
X12695349Y-16431246D01*
X12695349Y-16431246D02*
X12695349Y-16488388D01*
X12695349Y-16488388D02*
X12685825Y-16507436D01*
X12685825Y-16507436D02*
X12676301Y-16516960D01*
X12676301Y-16516960D02*
X12657253Y-16526484D01*
X12657253Y-16526484D02*
X12628682Y-16526484D01*
X12752492Y-16393150D02*
X12828682Y-16393150D01*
X12781063Y-16326484D02*
X12781063Y-16497912D01*
X12781063Y-16497912D02*
X12790587Y-16516960D01*
X12790587Y-16516960D02*
X12809634Y-16526484D01*
X12809634Y-16526484D02*
X12828682Y-16526484D01*
X13047730Y-16393150D02*
X13047730Y-16593150D01*
X13047730Y-16402674D02*
X13066777Y-16393150D01*
X13066777Y-16393150D02*
X13104873Y-16393150D01*
X13104873Y-16393150D02*
X13123920Y-16402674D01*
X13123920Y-16402674D02*
X13133444Y-16412198D01*
X13133444Y-16412198D02*
X13142968Y-16431246D01*
X13142968Y-16431246D02*
X13142968Y-16488388D01*
X13142968Y-16488388D02*
X13133444Y-16507436D01*
X13133444Y-16507436D02*
X13123920Y-16516960D01*
X13123920Y-16516960D02*
X13104873Y-16526484D01*
X13104873Y-16526484D02*
X13066777Y-16526484D01*
X13066777Y-16526484D02*
X13047730Y-16516960D01*
X13257253Y-16526484D02*
X13238206Y-16516960D01*
X13238206Y-16516960D02*
X13228682Y-16497912D01*
X13228682Y-16497912D02*
X13228682Y-16326484D01*
X13419158Y-16526484D02*
X13419158Y-16421722D01*
X13419158Y-16421722D02*
X13409634Y-16402674D01*
X13409634Y-16402674D02*
X13390587Y-16393150D01*
X13390587Y-16393150D02*
X13352492Y-16393150D01*
X13352492Y-16393150D02*
X13333444Y-16402674D01*
X13419158Y-16516960D02*
X13400111Y-16526484D01*
X13400111Y-16526484D02*
X13352492Y-16526484D01*
X13352492Y-16526484D02*
X13333444Y-16516960D01*
X13333444Y-16516960D02*
X13323920Y-16497912D01*
X13323920Y-16497912D02*
X13323920Y-16478865D01*
X13323920Y-16478865D02*
X13333444Y-16459817D01*
X13333444Y-16459817D02*
X13352492Y-16450293D01*
X13352492Y-16450293D02*
X13400111Y-16450293D01*
X13400111Y-16450293D02*
X13419158Y-16440769D01*
X13485825Y-16393150D02*
X13562015Y-16393150D01*
X13514396Y-16326484D02*
X13514396Y-16497912D01*
X13514396Y-16497912D02*
X13523920Y-16516960D01*
X13523920Y-16516960D02*
X13542968Y-16526484D01*
X13542968Y-16526484D02*
X13562015Y-16526484D01*
X13704873Y-16516960D02*
X13685825Y-16526484D01*
X13685825Y-16526484D02*
X13647730Y-16526484D01*
X13647730Y-16526484D02*
X13628682Y-16516960D01*
X13628682Y-16516960D02*
X13619158Y-16497912D01*
X13619158Y-16497912D02*
X13619158Y-16421722D01*
X13619158Y-16421722D02*
X13628682Y-16402674D01*
X13628682Y-16402674D02*
X13647730Y-16393150D01*
X13647730Y-16393150D02*
X13685825Y-16393150D01*
X13685825Y-16393150D02*
X13704873Y-16402674D01*
X13704873Y-16402674D02*
X13714396Y-16421722D01*
X13714396Y-16421722D02*
X13714396Y-16440769D01*
X13714396Y-16440769D02*
X13619158Y-16459817D01*
X13885825Y-16526484D02*
X13885825Y-16326484D01*
X13885825Y-16516960D02*
X13866777Y-16526484D01*
X13866777Y-16526484D02*
X13828682Y-16526484D01*
X13828682Y-16526484D02*
X13809634Y-16516960D01*
X13809634Y-16516960D02*
X13800111Y-16507436D01*
X13800111Y-16507436D02*
X13790587Y-16488388D01*
X13790587Y-16488388D02*
X13790587Y-16431246D01*
X13790587Y-16431246D02*
X13800111Y-16412198D01*
X13800111Y-16412198D02*
X13809634Y-16402674D01*
X13809634Y-16402674D02*
X13828682Y-16393150D01*
X13828682Y-16393150D02*
X13866777Y-16393150D01*
X13866777Y-16393150D02*
X13885825Y-16402674D01*
X13962015Y-16602674D02*
X13971539Y-16593150D01*
X13971539Y-16593150D02*
X13990587Y-16564579D01*
X13990587Y-16564579D02*
X14000111Y-16545531D01*
X14000111Y-16545531D02*
X14009634Y-16516960D01*
X14009634Y-16516960D02*
X14019158Y-16469341D01*
X14019158Y-16469341D02*
X14019158Y-16431246D01*
X14019158Y-16431246D02*
X14009634Y-16383627D01*
X14009634Y-16383627D02*
X14000111Y-16355055D01*
X14000111Y-16355055D02*
X13990587Y-16336008D01*
X13990587Y-16336008D02*
X13971539Y-16307436D01*
X13971539Y-16307436D02*
X13962015Y-16297912D01*
D12*
X7206000Y-16699000D02*
G75*
G02*
X7086000Y-16699000I-60000J0D01*
G01*
X7086000Y-16699000D02*
G75*
G02*
X7206000Y-16699000I60000J0D01*
G01*
D11*
X7571539Y-16790484D02*
X7457253Y-16790484D01*
X7514396Y-16790484D02*
X7514396Y-16590484D01*
X7514396Y-16590484D02*
X7495348Y-16619055D01*
X7495348Y-16619055D02*
X7476301Y-16638103D01*
X7476301Y-16638103D02*
X7457253Y-16647627D01*
X7657253Y-16771436D02*
X7666777Y-16780960D01*
X7666777Y-16780960D02*
X7657253Y-16790484D01*
X7657253Y-16790484D02*
X7647729Y-16780960D01*
X7647729Y-16780960D02*
X7657253Y-16771436D01*
X7657253Y-16771436D02*
X7657253Y-16790484D01*
X7742967Y-16609531D02*
X7752491Y-16600008D01*
X7752491Y-16600008D02*
X7771539Y-16590484D01*
X7771539Y-16590484D02*
X7819158Y-16590484D01*
X7819158Y-16590484D02*
X7838205Y-16600008D01*
X7838205Y-16600008D02*
X7847729Y-16609531D01*
X7847729Y-16609531D02*
X7857253Y-16628579D01*
X7857253Y-16628579D02*
X7857253Y-16647627D01*
X7857253Y-16647627D02*
X7847729Y-16676198D01*
X7847729Y-16676198D02*
X7733443Y-16790484D01*
X7733443Y-16790484D02*
X7857253Y-16790484D01*
X7981062Y-16590484D02*
X8000110Y-16590484D01*
X8000110Y-16590484D02*
X8019158Y-16600008D01*
X8019158Y-16600008D02*
X8028682Y-16609531D01*
X8028682Y-16609531D02*
X8038205Y-16628579D01*
X8038205Y-16628579D02*
X8047729Y-16666674D01*
X8047729Y-16666674D02*
X8047729Y-16714293D01*
X8047729Y-16714293D02*
X8038205Y-16752388D01*
X8038205Y-16752388D02*
X8028682Y-16771436D01*
X8028682Y-16771436D02*
X8019158Y-16780960D01*
X8019158Y-16780960D02*
X8000110Y-16790484D01*
X8000110Y-16790484D02*
X7981062Y-16790484D01*
X7981062Y-16790484D02*
X7962015Y-16780960D01*
X7962015Y-16780960D02*
X7952491Y-16771436D01*
X7952491Y-16771436D02*
X7942967Y-16752388D01*
X7942967Y-16752388D02*
X7933443Y-16714293D01*
X7933443Y-16714293D02*
X7933443Y-16666674D01*
X7933443Y-16666674D02*
X7942967Y-16628579D01*
X7942967Y-16628579D02*
X7952491Y-16609531D01*
X7952491Y-16609531D02*
X7962015Y-16600008D01*
X7962015Y-16600008D02*
X7981062Y-16590484D01*
X8171539Y-16590484D02*
X8190586Y-16590484D01*
X8190586Y-16590484D02*
X8209634Y-16600008D01*
X8209634Y-16600008D02*
X8219158Y-16609531D01*
X8219158Y-16609531D02*
X8228682Y-16628579D01*
X8228682Y-16628579D02*
X8238205Y-16666674D01*
X8238205Y-16666674D02*
X8238205Y-16714293D01*
X8238205Y-16714293D02*
X8228682Y-16752388D01*
X8228682Y-16752388D02*
X8219158Y-16771436D01*
X8219158Y-16771436D02*
X8209634Y-16780960D01*
X8209634Y-16780960D02*
X8190586Y-16790484D01*
X8190586Y-16790484D02*
X8171539Y-16790484D01*
X8171539Y-16790484D02*
X8152491Y-16780960D01*
X8152491Y-16780960D02*
X8142967Y-16771436D01*
X8142967Y-16771436D02*
X8133443Y-16752388D01*
X8133443Y-16752388D02*
X8123920Y-16714293D01*
X8123920Y-16714293D02*
X8123920Y-16666674D01*
X8123920Y-16666674D02*
X8133443Y-16628579D01*
X8133443Y-16628579D02*
X8142967Y-16609531D01*
X8142967Y-16609531D02*
X8152491Y-16600008D01*
X8152491Y-16600008D02*
X8171539Y-16590484D01*
X8323920Y-16790484D02*
X8323920Y-16657150D01*
X8323920Y-16676198D02*
X8333443Y-16666674D01*
X8333443Y-16666674D02*
X8352491Y-16657150D01*
X8352491Y-16657150D02*
X8381063Y-16657150D01*
X8381063Y-16657150D02*
X8400110Y-16666674D01*
X8400110Y-16666674D02*
X8409634Y-16685722D01*
X8409634Y-16685722D02*
X8409634Y-16790484D01*
X8409634Y-16685722D02*
X8419158Y-16666674D01*
X8419158Y-16666674D02*
X8438205Y-16657150D01*
X8438205Y-16657150D02*
X8466777Y-16657150D01*
X8466777Y-16657150D02*
X8485825Y-16666674D01*
X8485825Y-16666674D02*
X8495348Y-16685722D01*
X8495348Y-16685722D02*
X8495348Y-16790484D01*
X8590586Y-16790484D02*
X8590586Y-16657150D01*
X8590586Y-16676198D02*
X8600110Y-16666674D01*
X8600110Y-16666674D02*
X8619158Y-16657150D01*
X8619158Y-16657150D02*
X8647729Y-16657150D01*
X8647729Y-16657150D02*
X8666777Y-16666674D01*
X8666777Y-16666674D02*
X8676301Y-16685722D01*
X8676301Y-16685722D02*
X8676301Y-16790484D01*
X8676301Y-16685722D02*
X8685825Y-16666674D01*
X8685825Y-16666674D02*
X8704872Y-16657150D01*
X8704872Y-16657150D02*
X8733444Y-16657150D01*
X8733444Y-16657150D02*
X8752491Y-16666674D01*
X8752491Y-16666674D02*
X8762015Y-16685722D01*
X8762015Y-16685722D02*
X8762015Y-16790484D01*
X9152491Y-16580960D02*
X8981063Y-16838103D01*
X9409634Y-16590484D02*
X9428682Y-16590484D01*
X9428682Y-16590484D02*
X9447729Y-16600008D01*
X9447729Y-16600008D02*
X9457253Y-16609531D01*
X9457253Y-16609531D02*
X9466777Y-16628579D01*
X9466777Y-16628579D02*
X9476301Y-16666674D01*
X9476301Y-16666674D02*
X9476301Y-16714293D01*
X9476301Y-16714293D02*
X9466777Y-16752388D01*
X9466777Y-16752388D02*
X9457253Y-16771436D01*
X9457253Y-16771436D02*
X9447729Y-16780960D01*
X9447729Y-16780960D02*
X9428682Y-16790484D01*
X9428682Y-16790484D02*
X9409634Y-16790484D01*
X9409634Y-16790484D02*
X9390587Y-16780960D01*
X9390587Y-16780960D02*
X9381063Y-16771436D01*
X9381063Y-16771436D02*
X9371539Y-16752388D01*
X9371539Y-16752388D02*
X9362015Y-16714293D01*
X9362015Y-16714293D02*
X9362015Y-16666674D01*
X9362015Y-16666674D02*
X9371539Y-16628579D01*
X9371539Y-16628579D02*
X9381063Y-16609531D01*
X9381063Y-16609531D02*
X9390587Y-16600008D01*
X9390587Y-16600008D02*
X9409634Y-16590484D01*
X9562015Y-16771436D02*
X9571539Y-16780960D01*
X9571539Y-16780960D02*
X9562015Y-16790484D01*
X9562015Y-16790484D02*
X9552491Y-16780960D01*
X9552491Y-16780960D02*
X9562015Y-16771436D01*
X9562015Y-16771436D02*
X9562015Y-16790484D01*
X9695348Y-16590484D02*
X9714396Y-16590484D01*
X9714396Y-16590484D02*
X9733444Y-16600008D01*
X9733444Y-16600008D02*
X9742968Y-16609531D01*
X9742968Y-16609531D02*
X9752491Y-16628579D01*
X9752491Y-16628579D02*
X9762015Y-16666674D01*
X9762015Y-16666674D02*
X9762015Y-16714293D01*
X9762015Y-16714293D02*
X9752491Y-16752388D01*
X9752491Y-16752388D02*
X9742968Y-16771436D01*
X9742968Y-16771436D02*
X9733444Y-16780960D01*
X9733444Y-16780960D02*
X9714396Y-16790484D01*
X9714396Y-16790484D02*
X9695348Y-16790484D01*
X9695348Y-16790484D02*
X9676301Y-16780960D01*
X9676301Y-16780960D02*
X9666777Y-16771436D01*
X9666777Y-16771436D02*
X9657253Y-16752388D01*
X9657253Y-16752388D02*
X9647729Y-16714293D01*
X9647729Y-16714293D02*
X9647729Y-16666674D01*
X9647729Y-16666674D02*
X9657253Y-16628579D01*
X9657253Y-16628579D02*
X9666777Y-16609531D01*
X9666777Y-16609531D02*
X9676301Y-16600008D01*
X9676301Y-16600008D02*
X9695348Y-16590484D01*
X9933444Y-16657150D02*
X9933444Y-16790484D01*
X9885825Y-16580960D02*
X9838206Y-16723817D01*
X9838206Y-16723817D02*
X9962015Y-16723817D01*
X10019158Y-16590484D02*
X10152491Y-16590484D01*
X10152491Y-16590484D02*
X10066777Y-16790484D01*
X10219158Y-16609531D02*
X10228682Y-16600008D01*
X10228682Y-16600008D02*
X10247729Y-16590484D01*
X10247729Y-16590484D02*
X10295349Y-16590484D01*
X10295349Y-16590484D02*
X10314396Y-16600008D01*
X10314396Y-16600008D02*
X10323920Y-16609531D01*
X10323920Y-16609531D02*
X10333444Y-16628579D01*
X10333444Y-16628579D02*
X10333444Y-16647627D01*
X10333444Y-16647627D02*
X10323920Y-16676198D01*
X10323920Y-16676198D02*
X10209634Y-16790484D01*
X10209634Y-16790484D02*
X10333444Y-16790484D01*
X10409634Y-16590484D02*
X10409634Y-16628579D01*
X10485825Y-16590484D02*
X10485825Y-16628579D01*
X10781063Y-16866674D02*
X10771539Y-16857150D01*
X10771539Y-16857150D02*
X10752491Y-16828579D01*
X10752491Y-16828579D02*
X10742968Y-16809531D01*
X10742968Y-16809531D02*
X10733444Y-16780960D01*
X10733444Y-16780960D02*
X10723920Y-16733341D01*
X10723920Y-16733341D02*
X10723920Y-16695246D01*
X10723920Y-16695246D02*
X10733444Y-16647627D01*
X10733444Y-16647627D02*
X10742968Y-16619055D01*
X10742968Y-16619055D02*
X10752491Y-16600008D01*
X10752491Y-16600008D02*
X10771539Y-16571436D01*
X10771539Y-16571436D02*
X10781063Y-16561912D01*
X10952491Y-16590484D02*
X10857253Y-16590484D01*
X10857253Y-16590484D02*
X10847730Y-16685722D01*
X10847730Y-16685722D02*
X10857253Y-16676198D01*
X10857253Y-16676198D02*
X10876301Y-16666674D01*
X10876301Y-16666674D02*
X10923920Y-16666674D01*
X10923920Y-16666674D02*
X10942968Y-16676198D01*
X10942968Y-16676198D02*
X10952491Y-16685722D01*
X10952491Y-16685722D02*
X10962015Y-16704769D01*
X10962015Y-16704769D02*
X10962015Y-16752388D01*
X10962015Y-16752388D02*
X10952491Y-16771436D01*
X10952491Y-16771436D02*
X10942968Y-16780960D01*
X10942968Y-16780960D02*
X10923920Y-16790484D01*
X10923920Y-16790484D02*
X10876301Y-16790484D01*
X10876301Y-16790484D02*
X10857253Y-16780960D01*
X10857253Y-16780960D02*
X10847730Y-16771436D01*
X11200110Y-16790484D02*
X11200110Y-16590484D01*
X11285825Y-16790484D02*
X11285825Y-16685722D01*
X11285825Y-16685722D02*
X11276301Y-16666674D01*
X11276301Y-16666674D02*
X11257253Y-16657150D01*
X11257253Y-16657150D02*
X11228682Y-16657150D01*
X11228682Y-16657150D02*
X11209634Y-16666674D01*
X11209634Y-16666674D02*
X11200110Y-16676198D01*
X11409634Y-16790484D02*
X11390587Y-16780960D01*
X11390587Y-16780960D02*
X11381063Y-16771436D01*
X11381063Y-16771436D02*
X11371539Y-16752388D01*
X11371539Y-16752388D02*
X11371539Y-16695246D01*
X11371539Y-16695246D02*
X11381063Y-16676198D01*
X11381063Y-16676198D02*
X11390587Y-16666674D01*
X11390587Y-16666674D02*
X11409634Y-16657150D01*
X11409634Y-16657150D02*
X11438206Y-16657150D01*
X11438206Y-16657150D02*
X11457253Y-16666674D01*
X11457253Y-16666674D02*
X11466777Y-16676198D01*
X11466777Y-16676198D02*
X11476301Y-16695246D01*
X11476301Y-16695246D02*
X11476301Y-16752388D01*
X11476301Y-16752388D02*
X11466777Y-16771436D01*
X11466777Y-16771436D02*
X11457253Y-16780960D01*
X11457253Y-16780960D02*
X11438206Y-16790484D01*
X11438206Y-16790484D02*
X11409634Y-16790484D01*
X11590587Y-16790484D02*
X11571539Y-16780960D01*
X11571539Y-16780960D02*
X11562015Y-16761912D01*
X11562015Y-16761912D02*
X11562015Y-16590484D01*
X11742968Y-16780960D02*
X11723920Y-16790484D01*
X11723920Y-16790484D02*
X11685825Y-16790484D01*
X11685825Y-16790484D02*
X11666777Y-16780960D01*
X11666777Y-16780960D02*
X11657253Y-16761912D01*
X11657253Y-16761912D02*
X11657253Y-16685722D01*
X11657253Y-16685722D02*
X11666777Y-16666674D01*
X11666777Y-16666674D02*
X11685825Y-16657150D01*
X11685825Y-16657150D02*
X11723920Y-16657150D01*
X11723920Y-16657150D02*
X11742968Y-16666674D01*
X11742968Y-16666674D02*
X11752491Y-16685722D01*
X11752491Y-16685722D02*
X11752491Y-16704769D01*
X11752491Y-16704769D02*
X11657253Y-16723817D01*
X11828682Y-16780960D02*
X11847730Y-16790484D01*
X11847730Y-16790484D02*
X11885825Y-16790484D01*
X11885825Y-16790484D02*
X11904872Y-16780960D01*
X11904872Y-16780960D02*
X11914396Y-16761912D01*
X11914396Y-16761912D02*
X11914396Y-16752388D01*
X11914396Y-16752388D02*
X11904872Y-16733341D01*
X11904872Y-16733341D02*
X11885825Y-16723817D01*
X11885825Y-16723817D02*
X11857253Y-16723817D01*
X11857253Y-16723817D02*
X11838206Y-16714293D01*
X11838206Y-16714293D02*
X11828682Y-16695246D01*
X11828682Y-16695246D02*
X11828682Y-16685722D01*
X11828682Y-16685722D02*
X11838206Y-16666674D01*
X11838206Y-16666674D02*
X11857253Y-16657150D01*
X11857253Y-16657150D02*
X11885825Y-16657150D01*
X11885825Y-16657150D02*
X11904872Y-16666674D01*
X11981063Y-16866674D02*
X11990587Y-16857150D01*
X11990587Y-16857150D02*
X12009634Y-16828579D01*
X12009634Y-16828579D02*
X12019158Y-16809531D01*
X12019158Y-16809531D02*
X12028682Y-16780960D01*
X12028682Y-16780960D02*
X12038206Y-16733341D01*
X12038206Y-16733341D02*
X12038206Y-16695246D01*
X12038206Y-16695246D02*
X12028682Y-16647627D01*
X12028682Y-16647627D02*
X12019158Y-16619055D01*
X12019158Y-16619055D02*
X12009634Y-16600008D01*
X12009634Y-16600008D02*
X11990587Y-16571436D01*
X11990587Y-16571436D02*
X11981063Y-16561912D01*
X12342968Y-16866674D02*
X12333444Y-16857150D01*
X12333444Y-16857150D02*
X12314396Y-16828579D01*
X12314396Y-16828579D02*
X12304872Y-16809531D01*
X12304872Y-16809531D02*
X12295349Y-16780960D01*
X12295349Y-16780960D02*
X12285825Y-16733341D01*
X12285825Y-16733341D02*
X12285825Y-16695246D01*
X12285825Y-16695246D02*
X12295349Y-16647627D01*
X12295349Y-16647627D02*
X12304872Y-16619055D01*
X12304872Y-16619055D02*
X12314396Y-16600008D01*
X12314396Y-16600008D02*
X12333444Y-16571436D01*
X12333444Y-16571436D02*
X12342968Y-16561912D01*
X12419158Y-16657150D02*
X12419158Y-16790484D01*
X12419158Y-16676198D02*
X12428682Y-16666674D01*
X12428682Y-16666674D02*
X12447730Y-16657150D01*
X12447730Y-16657150D02*
X12476301Y-16657150D01*
X12476301Y-16657150D02*
X12495349Y-16666674D01*
X12495349Y-16666674D02*
X12504872Y-16685722D01*
X12504872Y-16685722D02*
X12504872Y-16790484D01*
X12628682Y-16790484D02*
X12609634Y-16780960D01*
X12609634Y-16780960D02*
X12600111Y-16771436D01*
X12600111Y-16771436D02*
X12590587Y-16752388D01*
X12590587Y-16752388D02*
X12590587Y-16695246D01*
X12590587Y-16695246D02*
X12600111Y-16676198D01*
X12600111Y-16676198D02*
X12609634Y-16666674D01*
X12609634Y-16666674D02*
X12628682Y-16657150D01*
X12628682Y-16657150D02*
X12657253Y-16657150D01*
X12657253Y-16657150D02*
X12676301Y-16666674D01*
X12676301Y-16666674D02*
X12685825Y-16676198D01*
X12685825Y-16676198D02*
X12695349Y-16695246D01*
X12695349Y-16695246D02*
X12695349Y-16752388D01*
X12695349Y-16752388D02*
X12685825Y-16771436D01*
X12685825Y-16771436D02*
X12676301Y-16780960D01*
X12676301Y-16780960D02*
X12657253Y-16790484D01*
X12657253Y-16790484D02*
X12628682Y-16790484D01*
X12752492Y-16657150D02*
X12828682Y-16657150D01*
X12781063Y-16590484D02*
X12781063Y-16761912D01*
X12781063Y-16761912D02*
X12790587Y-16780960D01*
X12790587Y-16780960D02*
X12809634Y-16790484D01*
X12809634Y-16790484D02*
X12828682Y-16790484D01*
X13047730Y-16657150D02*
X13047730Y-16857150D01*
X13047730Y-16666674D02*
X13066777Y-16657150D01*
X13066777Y-16657150D02*
X13104873Y-16657150D01*
X13104873Y-16657150D02*
X13123920Y-16666674D01*
X13123920Y-16666674D02*
X13133444Y-16676198D01*
X13133444Y-16676198D02*
X13142968Y-16695246D01*
X13142968Y-16695246D02*
X13142968Y-16752388D01*
X13142968Y-16752388D02*
X13133444Y-16771436D01*
X13133444Y-16771436D02*
X13123920Y-16780960D01*
X13123920Y-16780960D02*
X13104873Y-16790484D01*
X13104873Y-16790484D02*
X13066777Y-16790484D01*
X13066777Y-16790484D02*
X13047730Y-16780960D01*
X13257253Y-16790484D02*
X13238206Y-16780960D01*
X13238206Y-16780960D02*
X13228682Y-16761912D01*
X13228682Y-16761912D02*
X13228682Y-16590484D01*
X13419158Y-16790484D02*
X13419158Y-16685722D01*
X13419158Y-16685722D02*
X13409634Y-16666674D01*
X13409634Y-16666674D02*
X13390587Y-16657150D01*
X13390587Y-16657150D02*
X13352492Y-16657150D01*
X13352492Y-16657150D02*
X13333444Y-16666674D01*
X13419158Y-16780960D02*
X13400111Y-16790484D01*
X13400111Y-16790484D02*
X13352492Y-16790484D01*
X13352492Y-16790484D02*
X13333444Y-16780960D01*
X13333444Y-16780960D02*
X13323920Y-16761912D01*
X13323920Y-16761912D02*
X13323920Y-16742865D01*
X13323920Y-16742865D02*
X13333444Y-16723817D01*
X13333444Y-16723817D02*
X13352492Y-16714293D01*
X13352492Y-16714293D02*
X13400111Y-16714293D01*
X13400111Y-16714293D02*
X13419158Y-16704769D01*
X13485825Y-16657150D02*
X13562015Y-16657150D01*
X13514396Y-16590484D02*
X13514396Y-16761912D01*
X13514396Y-16761912D02*
X13523920Y-16780960D01*
X13523920Y-16780960D02*
X13542968Y-16790484D01*
X13542968Y-16790484D02*
X13562015Y-16790484D01*
X13704873Y-16780960D02*
X13685825Y-16790484D01*
X13685825Y-16790484D02*
X13647730Y-16790484D01*
X13647730Y-16790484D02*
X13628682Y-16780960D01*
X13628682Y-16780960D02*
X13619158Y-16761912D01*
X13619158Y-16761912D02*
X13619158Y-16685722D01*
X13619158Y-16685722D02*
X13628682Y-16666674D01*
X13628682Y-16666674D02*
X13647730Y-16657150D01*
X13647730Y-16657150D02*
X13685825Y-16657150D01*
X13685825Y-16657150D02*
X13704873Y-16666674D01*
X13704873Y-16666674D02*
X13714396Y-16685722D01*
X13714396Y-16685722D02*
X13714396Y-16704769D01*
X13714396Y-16704769D02*
X13619158Y-16723817D01*
X13885825Y-16790484D02*
X13885825Y-16590484D01*
X13885825Y-16780960D02*
X13866777Y-16790484D01*
X13866777Y-16790484D02*
X13828682Y-16790484D01*
X13828682Y-16790484D02*
X13809634Y-16780960D01*
X13809634Y-16780960D02*
X13800111Y-16771436D01*
X13800111Y-16771436D02*
X13790587Y-16752388D01*
X13790587Y-16752388D02*
X13790587Y-16695246D01*
X13790587Y-16695246D02*
X13800111Y-16676198D01*
X13800111Y-16676198D02*
X13809634Y-16666674D01*
X13809634Y-16666674D02*
X13828682Y-16657150D01*
X13828682Y-16657150D02*
X13866777Y-16657150D01*
X13866777Y-16657150D02*
X13885825Y-16666674D01*
X13962015Y-16866674D02*
X13971539Y-16857150D01*
X13971539Y-16857150D02*
X13990587Y-16828579D01*
X13990587Y-16828579D02*
X14000111Y-16809531D01*
X14000111Y-16809531D02*
X14009634Y-16780960D01*
X14009634Y-16780960D02*
X14019158Y-16733341D01*
X14019158Y-16733341D02*
X14019158Y-16695246D01*
X14019158Y-16695246D02*
X14009634Y-16647627D01*
X14009634Y-16647627D02*
X14000111Y-16619055D01*
X14000111Y-16619055D02*
X13990587Y-16600008D01*
X13990587Y-16600008D02*
X13971539Y-16571436D01*
X13971539Y-16571436D02*
X13962015Y-16561912D01*
M02*
