%TF.GenerationSoftware,KiCad,Pcbnew,9.0.2*%
%TF.CreationDate,2026-08-31T16:30:54+10:00*%
%TF.ProjectId,Walkman - Blobject,57616c6b-6d61-46e2-902d-20426c6f626a,rev?*%
%TF.SameCoordinates,Original*%
%TF.FileFunction,Soldermask,Top*%
%TF.FilePolarity,Negative*%
%FSLAX46Y46*%
G04 Gerber Fmt 4.6, Leading zero omitted, Abs format (unit mm)*
G04 Created by KiCad (PCBNEW 9.0.2) date 2026-08-31 16:30:54*
%MOMM*%
%LPD*%
G01*
G04 APERTURE LIST*
G04 Aperture macros list*
%AMRoundRect*
0 Rectangle with rounded corners*
0 $1 Rounding radius*
0 $2 $3 $4 $5 $6 $7 $8 $9 X,Y pos of 4 corners*
0 Add a 4 corners polygon primitive as box body*
4,1,4,$2,$3,$4,$5,$6,$7,$8,$9,$2,$3,0*
0 Add four circle primitives for the rounded corners*
1,1,$1+$1,$2,$3*
1,1,$1+$1,$4,$5*
1,1,$1+$1,$6,$7*
1,1,$1+$1,$8,$9*
0 Add four rect primitives between the rounded corners*
20,1,$1+$1,$2,$3,$4,$5,0*
20,1,$1+$1,$4,$5,$6,$7,0*
20,1,$1+$1,$6,$7,$8,$9,0*
20,1,$1+$1,$8,$9,$2,$3,0*%
G04 Aperture macros list end*
%ADD10RoundRect,0.190000X-0.190000X1.205000X-0.190000X-1.205000X0.190000X-1.205000X0.190000X1.205000X0*%
%ADD11RoundRect,0.250000X-0.640000X0.640000X-0.640000X-0.640000X0.640000X-0.640000X0.640000X0.640000X0*%
%ADD12RoundRect,0.150000X-0.150000X0.600000X-0.150000X-0.600000X0.150000X-0.600000X0.150000X0.600000X0*%
%ADD13RoundRect,0.150000X-0.600000X0.150000X-0.600000X-0.150000X0.600000X-0.150000X0.600000X0.150000X0*%
%ADD14RoundRect,0.200000X0.200000X0.275000X-0.200000X0.275000X-0.200000X-0.275000X0.200000X-0.275000X0*%
%ADD15C,1.200000*%
%ADD16O,1.200000X2.200000*%
%ADD17O,1.600000X2.300000*%
%ADD18O,2.200000X1.200000*%
%ADD19O,1.600000X2.500000*%
%ADD20RoundRect,0.250000X0.625000X-0.375000X0.625000X0.375000X-0.625000X0.375000X-0.625000X-0.375000X0*%
%ADD21RoundRect,0.200000X0.200000X0.450000X-0.200000X0.450000X-0.200000X-0.450000X0.200000X-0.450000X0*%
%ADD22RoundRect,0.250001X0.799999X1.249999X-0.799999X1.249999X-0.799999X-1.249999X0.799999X-1.249999X0*%
%ADD23RoundRect,0.225000X0.225000X0.250000X-0.225000X0.250000X-0.225000X-0.250000X0.225000X-0.250000X0*%
%ADD24RoundRect,0.225000X0.250000X-0.225000X0.250000X0.225000X-0.250000X0.225000X-0.250000X-0.225000X0*%
%ADD25C,0.700000*%
%ADD26C,4.400000*%
%ADD27RoundRect,0.200000X-0.275000X0.200000X-0.275000X-0.200000X0.275000X-0.200000X0.275000X0.200000X0*%
%ADD28R,1.377000X1.133000*%
%ADD29RoundRect,0.200000X-0.200000X-0.275000X0.200000X-0.275000X0.200000X0.275000X-0.200000X0.275000X0*%
%ADD30RoundRect,0.225000X-0.225000X-0.250000X0.225000X-0.250000X0.225000X0.250000X-0.225000X0.250000X0*%
%ADD31R,2.000000X1.500000*%
%ADD32RoundRect,0.200000X0.275000X-0.200000X0.275000X0.200000X-0.275000X0.200000X-0.275000X-0.200000X0*%
%ADD33RoundRect,0.475000X0.475000X0.725000X-0.475000X0.725000X-0.475000X-0.725000X0.475000X-0.725000X0*%
%ADD34RoundRect,0.225000X-0.250000X0.225000X-0.250000X-0.225000X0.250000X-0.225000X0.250000X0.225000X0*%
%ADD35RoundRect,0.250000X-0.550000X1.250000X-0.550000X-1.250000X0.550000X-1.250000X0.550000X1.250000X0*%
%ADD36C,1.800000*%
%ADD37O,2.400000X3.800000*%
%ADD38C,0.650000*%
%ADD39R,0.600000X1.450000*%
%ADD40R,0.300000X1.450000*%
%ADD41O,1.000000X2.100000*%
%ADD42O,1.000000X1.600000*%
%ADD43R,1.000000X3.800000*%
%ADD44R,0.700000X1.200000*%
%ADD45R,1.000000X0.800000*%
%ADD46R,1.000000X1.200000*%
%ADD47R,1.000000X2.800000*%
%ADD48R,1.300000X1.900000*%
%ADD49R,0.280000X0.633000*%
%ADD50R,0.633000X0.280000*%
%ADD51R,2.700000X2.700000*%
%ADD52C,1.000000*%
%ADD53RoundRect,0.250000X-0.350000X-0.625000X0.350000X-0.625000X0.350000X0.625000X-0.350000X0.625000X0*%
%ADD54O,1.200000X1.750000*%
%ADD55R,1.000000X1.000000*%
%ADD56R,1.360000X1.230000*%
%ADD57RoundRect,0.150000X0.150000X-0.512500X0.150000X0.512500X-0.150000X0.512500X-0.150000X-0.512500X0*%
%ADD58R,1.400000X4.200000*%
%ADD59RoundRect,0.218750X-0.256250X0.218750X-0.256250X-0.218750X0.256250X-0.218750X0.256250X0.218750X0*%
%ADD60R,0.250000X0.600000*%
%ADD61R,0.600000X0.250000*%
%ADD62R,0.250000X0.750000*%
%ADD63R,0.250000X1.350000*%
%ADD64R,0.250000X1.800000*%
%ADD65C,0.610000*%
%ADD66R,0.280000X0.665000*%
%ADD67R,0.665000X0.280000*%
%ADD68R,3.450000X3.450000*%
%ADD69RoundRect,0.100000X-0.130000X-0.100000X0.130000X-0.100000X0.130000X0.100000X-0.130000X0.100000X0*%
%ADD70R,1.700000X1.150000*%
%ADD71RoundRect,0.100000X0.100000X-0.130000X0.100000X0.130000X-0.100000X0.130000X-0.100000X-0.130000X0*%
%ADD72R,1.250000X0.280000*%
%ADD73R,2.000000X1.800000*%
%ADD74O,0.300000X1.600000*%
%ADD75O,1.600000X0.300000*%
%ADD76R,1.500000X1.500000*%
%ADD77R,0.650000X1.000000*%
%ADD78RoundRect,0.250000X0.275000X0.250000X-0.275000X0.250000X-0.275000X-0.250000X0.275000X-0.250000X0*%
%ADD79RoundRect,0.250000X0.850000X0.275000X-0.850000X0.275000X-0.850000X-0.275000X0.850000X-0.275000X0*%
%ADD80RoundRect,0.267273X0.570727X-0.320727X0.570727X0.320727X-0.570727X0.320727X-0.570727X-0.320727X0*%
%ADD81R,0.425000X0.280000*%
%ADD82R,0.800000X1.200000*%
%ADD83R,0.340000X0.340000*%
%ADD84O,0.610000X0.280000*%
%ADD85O,0.280000X0.610000*%
%ADD86R,1.700000X1.700000*%
G04 APERTURE END LIST*
D10*
%TO.C,U1*%
X120230000Y-143830000D03*
D11*
X110120000Y-151890000D03*
D12*
X120550000Y-154370000D03*
X119550000Y-154370000D03*
X118550000Y-154370000D03*
X117550000Y-154370000D03*
X116550000Y-154370000D03*
X115550000Y-154370000D03*
X114550000Y-154370000D03*
X113550000Y-154370000D03*
X112550000Y-154370000D03*
X111550000Y-154370000D03*
X110550000Y-154370000D03*
X109550000Y-154370000D03*
X108550000Y-154370000D03*
X107550000Y-154370000D03*
X106550000Y-154370000D03*
X105550000Y-154370000D03*
X104550000Y-154370000D03*
X103550000Y-154370000D03*
X102550000Y-154370000D03*
X101550000Y-154370000D03*
D13*
X99900000Y-151620000D03*
X99900000Y-150620000D03*
X99900000Y-149620000D03*
X99900000Y-148620000D03*
X99900000Y-147620000D03*
X99900000Y-146620000D03*
X99900000Y-145620000D03*
X99900000Y-144620000D03*
X99900000Y-143620000D03*
X99900000Y-142620000D03*
D12*
X101550000Y-139870000D03*
X102550000Y-139870000D03*
X103550000Y-139870000D03*
X104550000Y-139870000D03*
X105550000Y-139870000D03*
X106550000Y-139870000D03*
X107550000Y-139870000D03*
X108550000Y-139870000D03*
X109550000Y-139870000D03*
X110550000Y-139870000D03*
X111550000Y-139870000D03*
X112550000Y-139870000D03*
X113550000Y-139870000D03*
X114550000Y-139870000D03*
X115550000Y-139870000D03*
X116550000Y-139870000D03*
X117550000Y-139870000D03*
X118550000Y-139870000D03*
X119550000Y-139870000D03*
X120550000Y-139870000D03*
%TD*%
D14*
%TO.C,R3*%
X103455000Y-138020000D03*
X101805000Y-138020000D03*
%TD*%
D15*
%TO.C,J6*%
X74680000Y-153390000D03*
X74680000Y-155890000D03*
X79680000Y-148390000D03*
X84680000Y-153390000D03*
X84680000Y-155890000D03*
D16*
X74680000Y-148390000D03*
D17*
X77180000Y-148390000D03*
D18*
X79680000Y-153390000D03*
D16*
X84680000Y-148390000D03*
D19*
X82180000Y-148390000D03*
%TD*%
D20*
%TO.C,F1*%
X89850000Y-149170000D03*
X89850000Y-146370000D03*
%TD*%
D21*
%TO.C,LS1*%
X106230000Y-132740000D03*
X104980000Y-132740000D03*
D22*
X108780000Y-129990000D03*
X102430000Y-129990000D03*
%TD*%
D23*
%TO.C,C29*%
X74650000Y-136375000D03*
X73100000Y-136375000D03*
%TD*%
D24*
%TO.C,C12*%
X89130000Y-123190000D03*
X89130000Y-121640000D03*
%TD*%
D14*
%TO.C,R5*%
X98005000Y-145420000D03*
X96355000Y-145420000D03*
%TD*%
D25*
%TO.C,H5*%
X76460000Y-58900000D03*
X76943274Y-57733274D03*
X76943274Y-60066726D03*
X78110000Y-57250000D03*
D26*
X78110000Y-58900000D03*
D25*
X78110000Y-60550000D03*
X79276726Y-57733274D03*
X79276726Y-60066726D03*
X79760000Y-58900000D03*
%TD*%
D24*
%TO.C,C7*%
X89260000Y-141315000D03*
X89260000Y-139765000D03*
%TD*%
%TO.C,C13*%
X113920000Y-134910000D03*
X113920000Y-133360000D03*
%TD*%
D23*
%TO.C,C33*%
X118440000Y-73740000D03*
X116890000Y-73740000D03*
%TD*%
%TO.C,C1*%
X88795000Y-144730000D03*
X87245000Y-144730000D03*
%TD*%
D27*
%TO.C,R13*%
X113920000Y-136375000D03*
X113920000Y-138025000D03*
%TD*%
D28*
%TO.C,L3*%
X88990000Y-127435000D03*
X88990000Y-125495000D03*
%TD*%
D29*
%TO.C,R6*%
X98375000Y-156140000D03*
X100025000Y-156140000D03*
%TD*%
%TO.C,R27*%
X76595000Y-78810000D03*
X78245000Y-78810000D03*
%TD*%
D24*
%TO.C,C17*%
X82990000Y-123160000D03*
X82990000Y-121610000D03*
%TD*%
D30*
%TO.C,C37*%
X109155000Y-134840000D03*
X110705000Y-134840000D03*
%TD*%
D31*
%TO.C,SW3*%
X80860000Y-100400000D03*
X95360000Y-100400000D03*
X80860000Y-105400000D03*
X95360000Y-105400000D03*
%TD*%
%TO.C,SW4*%
X108860000Y-100400000D03*
X123360000Y-100400000D03*
X108860000Y-105400000D03*
X123360000Y-105400000D03*
%TD*%
D32*
%TO.C,R20*%
X105775000Y-72695000D03*
X105775000Y-71045000D03*
%TD*%
D30*
%TO.C,C68*%
X77325000Y-111200000D03*
X78875000Y-111200000D03*
%TD*%
D33*
%TO.C,X2*%
X91030000Y-87230000D03*
X86930000Y-87230000D03*
%TD*%
D14*
%TO.C,R11*%
X97925000Y-140610000D03*
X96275000Y-140610000D03*
%TD*%
D34*
%TO.C,C60*%
X83540000Y-85585000D03*
X83540000Y-87135000D03*
%TD*%
D35*
%TO.C,C6*%
X75900000Y-138930000D03*
X75900000Y-143330000D03*
%TD*%
D32*
%TO.C,R10*%
X94590000Y-138395000D03*
X94590000Y-136745000D03*
%TD*%
%TO.C,R14*%
X86860000Y-128275000D03*
X86860000Y-126625000D03*
%TD*%
D29*
%TO.C,R28*%
X109095000Y-137900000D03*
X110745000Y-137900000D03*
%TD*%
D34*
%TO.C,C2*%
X115440000Y-136425000D03*
X115440000Y-137975000D03*
%TD*%
D23*
%TO.C,C42*%
X112640000Y-91720000D03*
X111090000Y-91720000D03*
%TD*%
D32*
%TO.C,R22*%
X108825000Y-72695000D03*
X108825000Y-71045000D03*
%TD*%
D36*
%TO.C,SW2*%
X99610000Y-110650000D03*
X104610000Y-110650000D03*
X99610000Y-125150000D03*
X104610000Y-125150000D03*
X102110000Y-125150000D03*
D37*
X96410000Y-117650000D03*
X107810000Y-117650000D03*
%TD*%
D34*
%TO.C,C48*%
X89130000Y-118595000D03*
X89130000Y-120145000D03*
%TD*%
D30*
%TO.C,C64*%
X98635000Y-71650000D03*
X100185000Y-71650000D03*
%TD*%
D34*
%TO.C,C25*%
X79730000Y-138865000D03*
X79730000Y-140415000D03*
%TD*%
%TO.C,C49*%
X87600001Y-118595000D03*
X87600001Y-120145000D03*
%TD*%
%TO.C,C31*%
X76545000Y-127805000D03*
X76545000Y-129355000D03*
%TD*%
%TO.C,C59*%
X93110000Y-85565000D03*
X93110000Y-87115000D03*
%TD*%
D30*
%TO.C,C61*%
X96805000Y-68000000D03*
X98355000Y-68000000D03*
%TD*%
D14*
%TO.C,R23*%
X120000000Y-72210000D03*
X118350000Y-72210000D03*
%TD*%
D38*
%TO.C,J1*%
X89310000Y-152800000D03*
X95090000Y-152800000D03*
D39*
X88950000Y-151355000D03*
X89750000Y-151355000D03*
D40*
X90950000Y-151355000D03*
X91950000Y-151355000D03*
X92450000Y-151355000D03*
X93450000Y-151355000D03*
D39*
X94650000Y-151355000D03*
X95450000Y-151355000D03*
X95450000Y-151355000D03*
X94650000Y-151355000D03*
D40*
X93950000Y-151355000D03*
X92950000Y-151355000D03*
X91450000Y-151355000D03*
X90450000Y-151355000D03*
D39*
X89750000Y-151355000D03*
X88950000Y-151355000D03*
D41*
X87880000Y-152270000D03*
D42*
X87880000Y-156450000D03*
D41*
X96520000Y-152270000D03*
D42*
X96520000Y-156450000D03*
%TD*%
D32*
%TO.C,R16*%
X83360000Y-131360000D03*
X83360000Y-129710000D03*
%TD*%
D24*
%TO.C,C38*%
X94610000Y-123210000D03*
X94610000Y-121660000D03*
%TD*%
%TO.C,C16*%
X91470000Y-133055000D03*
X91470000Y-131505000D03*
%TD*%
D43*
%TO.C,L2*%
X87400000Y-134840000D03*
X85000000Y-134840000D03*
%TD*%
D30*
%TO.C,C20*%
X73100000Y-133325000D03*
X74650000Y-133325000D03*
%TD*%
D44*
%TO.C,J2*%
X106300000Y-69275000D03*
X107400000Y-69275000D03*
X108500000Y-69275000D03*
X109600000Y-69275000D03*
X110700000Y-69275000D03*
X111800000Y-69275000D03*
X112900000Y-69275000D03*
X114000000Y-69275000D03*
X114950000Y-69275000D03*
D45*
X115900000Y-58775000D03*
D46*
X115900000Y-64975000D03*
D47*
X115900000Y-54625000D03*
D46*
X104750000Y-69275000D03*
D48*
X102400000Y-54175000D03*
%TD*%
D34*
%TO.C,C46*%
X116485000Y-88895000D03*
X116485000Y-90445000D03*
%TD*%
D24*
%TO.C,C54*%
X83580000Y-66295000D03*
X83580000Y-64745000D03*
%TD*%
D49*
%TO.C,U2*%
X92040000Y-143705750D03*
X92540000Y-143705750D03*
X93040000Y-143705750D03*
X93540000Y-143705750D03*
X94040000Y-143705750D03*
X94540000Y-143705750D03*
D50*
X95200000Y-143045750D03*
X95200000Y-142545750D03*
X95200000Y-142045750D03*
X95200000Y-141545750D03*
X95200000Y-141045750D03*
X95200000Y-140545750D03*
D49*
X94540000Y-139885750D03*
X94040000Y-139885750D03*
X93540000Y-139885750D03*
X93040000Y-139885750D03*
X92540000Y-139885750D03*
X92040000Y-139885750D03*
D50*
X91380000Y-140545750D03*
X91380000Y-141045750D03*
X91380000Y-141545750D03*
X91380000Y-142045750D03*
X91380000Y-142545750D03*
X91380000Y-143045750D03*
D51*
X93290000Y-141795750D03*
%TD*%
D25*
%TO.C,H6*%
X124460000Y-58900000D03*
X124943274Y-57733274D03*
X124943274Y-60066726D03*
X126110000Y-57250000D03*
D26*
X126110000Y-58900000D03*
D25*
X126110000Y-60550000D03*
X127276726Y-57733274D03*
X127276726Y-60066726D03*
X127760000Y-58900000D03*
%TD*%
D52*
%TO.C,TP3*%
X100030000Y-138240000D03*
%TD*%
D30*
%TO.C,C45*%
X93095000Y-124740000D03*
X94645000Y-124740000D03*
%TD*%
D52*
%TO.C,TP2*%
X105850000Y-156580000D03*
%TD*%
D53*
%TO.C,BT1*%
X96290000Y-130780000D03*
D54*
X98290000Y-130780000D03*
%TD*%
D34*
%TO.C,C3*%
X81780000Y-129765000D03*
X81780000Y-131315000D03*
%TD*%
%TO.C,C55*%
X106790000Y-102035000D03*
X106790000Y-103585000D03*
%TD*%
D24*
%TO.C,C36*%
X91550000Y-123200000D03*
X91550000Y-121650000D03*
%TD*%
D23*
%TO.C,C32*%
X118435000Y-75260000D03*
X116885000Y-75260000D03*
%TD*%
D27*
%TO.C,R7*%
X98450000Y-153015000D03*
X98450000Y-154665000D03*
%TD*%
D30*
%TO.C,C10*%
X81775000Y-135850000D03*
X83325000Y-135850000D03*
%TD*%
D55*
%TO.C,J4*%
X76555000Y-69235000D03*
D52*
X77825000Y-69235000D03*
X76555000Y-70505000D03*
X77825000Y-70505000D03*
X76555000Y-71775000D03*
X77825000Y-71775000D03*
X76555000Y-73045000D03*
X77825000Y-73045000D03*
X76555000Y-74315000D03*
X77825000Y-74315000D03*
%TD*%
D56*
%TO.C,SW1*%
X97060000Y-134810000D03*
X97060000Y-139170000D03*
%TD*%
D57*
%TO.C,U4*%
X92027500Y-149087500D03*
X92977500Y-149087500D03*
X93927500Y-149087500D03*
X93927500Y-146812500D03*
X92977500Y-146812500D03*
X92027500Y-146812500D03*
%TD*%
D32*
%TO.C,R24*%
X107295000Y-72695000D03*
X107295000Y-71045000D03*
%TD*%
D14*
%TO.C,R31*%
X78235000Y-80340000D03*
X76585000Y-80340000D03*
%TD*%
D58*
%TO.C,L1*%
X89310000Y-136420000D03*
X93010000Y-136420000D03*
%TD*%
D59*
%TO.C,D1*%
X95650000Y-147012500D03*
X95650000Y-148587500D03*
%TD*%
D30*
%TO.C,C56*%
X97950000Y-82965000D03*
X99500000Y-82965000D03*
%TD*%
D24*
%TO.C,C28*%
X87600001Y-123180000D03*
X87600001Y-121630000D03*
%TD*%
D14*
%TO.C,R35*%
X78925000Y-112720000D03*
X77275000Y-112720000D03*
%TD*%
D60*
%TO.C,U7*%
X86950000Y-129830000D03*
X86450000Y-129830000D03*
X85950000Y-129830000D03*
X85450000Y-129830000D03*
D61*
X84800000Y-130250000D03*
X84800000Y-130750000D03*
D62*
X84970000Y-131500000D03*
D61*
X84800000Y-131750000D03*
X84800000Y-131250000D03*
D63*
X85700000Y-131750000D03*
D64*
X86200000Y-131520000D03*
D63*
X86700000Y-131750000D03*
D61*
X87600000Y-131750000D03*
X87600000Y-131250000D03*
D62*
X87430000Y-131500000D03*
D61*
X87600000Y-130750000D03*
X87600000Y-130250000D03*
%TD*%
D24*
%TO.C,C11*%
X100940000Y-136485000D03*
X100940000Y-134935000D03*
%TD*%
%TO.C,C21*%
X84530000Y-123170000D03*
X84530000Y-121620000D03*
%TD*%
D65*
%TO.C,U3*%
X78150000Y-132430000D03*
X79350000Y-133630000D03*
X78150000Y-133630000D03*
X76950000Y-133630000D03*
X78150000Y-134830000D03*
D66*
X79900000Y-131220000D03*
X79400000Y-131220000D03*
X78900000Y-131220000D03*
X78400000Y-131220000D03*
X77900000Y-131220000D03*
X77400000Y-131220000D03*
X76900000Y-131220000D03*
X76400000Y-131220000D03*
D67*
X75740000Y-131880000D03*
X75740000Y-132380000D03*
X75740000Y-132880000D03*
X75740000Y-133380000D03*
X75740000Y-133880000D03*
X75740000Y-134380000D03*
X75740000Y-134880000D03*
X75740000Y-135380000D03*
D66*
X76400000Y-136040000D03*
X76900000Y-136040000D03*
X77400000Y-136040000D03*
X77900000Y-136040000D03*
X78400000Y-136040000D03*
X78900000Y-136040000D03*
X79400000Y-136040000D03*
X79900000Y-136040000D03*
D67*
X80560000Y-135380000D03*
X80560000Y-134880000D03*
X80560000Y-134380000D03*
X80560000Y-133880000D03*
X80560000Y-133380000D03*
X80560000Y-132880000D03*
X80560000Y-132380000D03*
X80560000Y-131880000D03*
D68*
X78150000Y-133630000D03*
%TD*%
D24*
%TO.C,C14*%
X93010000Y-133050000D03*
X93010000Y-131500000D03*
%TD*%
D25*
%TO.C,H8*%
X124460000Y-120900000D03*
X124943274Y-119733274D03*
X124943274Y-122066726D03*
X126110000Y-119250000D03*
D26*
X126110000Y-120900000D03*
D25*
X126110000Y-122550000D03*
X127276726Y-119733274D03*
X127276726Y-122066726D03*
X127760000Y-120900000D03*
%TD*%
D29*
%TO.C,R4*%
X87195000Y-143210000D03*
X88845000Y-143210000D03*
%TD*%
D25*
%TO.C,H7*%
X76460000Y-120900000D03*
X76943274Y-119733274D03*
X76943274Y-122066726D03*
X78110000Y-119250000D03*
D26*
X78110000Y-120900000D03*
D25*
X78110000Y-122550000D03*
X79276726Y-119733274D03*
X79276726Y-122066726D03*
X79760000Y-120900000D03*
%TD*%
D30*
%TO.C,C40*%
X109150000Y-136370000D03*
X110700000Y-136370000D03*
%TD*%
D52*
%TO.C,TP5*%
X102450000Y-156510000D03*
%TD*%
D34*
%TO.C,C50*%
X97440000Y-102125000D03*
X97440000Y-103675000D03*
%TD*%
D69*
%TO.C,C35*%
X123135000Y-91350000D03*
X123775000Y-91350000D03*
%TD*%
D27*
%TO.C,R30*%
X119370000Y-85865000D03*
X119370000Y-87515000D03*
%TD*%
D29*
%TO.C,R26*%
X76595000Y-77280000D03*
X78245000Y-77280000D03*
%TD*%
D27*
%TO.C,R32*%
X91120000Y-125615000D03*
X91120000Y-127265000D03*
%TD*%
D35*
%TO.C,C5*%
X83580000Y-138920000D03*
X83580000Y-143320000D03*
%TD*%
D27*
%TO.C,R29*%
X120960000Y-85865000D03*
X120960000Y-87515000D03*
%TD*%
D32*
%TO.C,R18*%
X83360000Y-128335000D03*
X83360000Y-126685000D03*
%TD*%
D24*
%TO.C,C41*%
X93080000Y-123205000D03*
X93080000Y-121655000D03*
%TD*%
D70*
%TO.C,X1*%
X114540000Y-91720000D03*
X114540000Y-89060000D03*
%TD*%
D34*
%TO.C,C4*%
X90290000Y-142775000D03*
X90290000Y-144325000D03*
%TD*%
D32*
%TO.C,R19*%
X114905000Y-72700000D03*
X114905000Y-71050000D03*
%TD*%
%TO.C,R36*%
X87380000Y-139645000D03*
X87380000Y-137995000D03*
%TD*%
D27*
%TO.C,R1*%
X97230000Y-146965000D03*
X97230000Y-148615000D03*
%TD*%
D34*
%TO.C,C30*%
X85320000Y-127135000D03*
X85320000Y-128685000D03*
%TD*%
%TO.C,C57*%
X94640000Y-85565000D03*
X94640000Y-87115000D03*
%TD*%
D29*
%TO.C,R34*%
X77275000Y-114240001D03*
X78925000Y-114240001D03*
%TD*%
D32*
%TO.C,R12*%
X112400000Y-138020000D03*
X112400000Y-136370000D03*
%TD*%
D23*
%TO.C,C47*%
X112635000Y-89040000D03*
X111085000Y-89040000D03*
%TD*%
D24*
%TO.C,C8*%
X83340000Y-134370000D03*
X83340000Y-132820000D03*
%TD*%
D71*
%TO.C,D3*%
X127325000Y-91990000D03*
X127325000Y-91350000D03*
%TD*%
D52*
%TO.C,TP1*%
X108320000Y-156560000D03*
%TD*%
D30*
%TO.C,C22*%
X80165000Y-137370000D03*
X81715000Y-137370000D03*
%TD*%
%TO.C,C52*%
X101335000Y-110020000D03*
X102885000Y-110020000D03*
%TD*%
D72*
%TO.C,FPC1*%
X121635000Y-76725000D03*
X121635000Y-76225000D03*
X121635000Y-75725000D03*
X121635000Y-75225000D03*
X121635000Y-74725000D03*
X121635000Y-74225000D03*
X121635000Y-73725000D03*
X121635000Y-73225000D03*
X121635000Y-72725000D03*
X121635000Y-72225000D03*
X121635000Y-71725000D03*
X121635000Y-71225000D03*
D73*
X124355000Y-69425000D03*
X124355000Y-78525000D03*
%TD*%
D32*
%TO.C,R2*%
X81790000Y-134405000D03*
X81790000Y-132755000D03*
%TD*%
%TO.C,R8*%
X96430000Y-143975000D03*
X96430000Y-142325000D03*
%TD*%
D24*
%TO.C,C24*%
X86070000Y-123180000D03*
X86070000Y-121630000D03*
%TD*%
D34*
%TO.C,C27*%
X94650000Y-126240000D03*
X94650000Y-127790000D03*
%TD*%
D74*
%TO.C,U10*%
X82590000Y-83370000D03*
X83090000Y-83370000D03*
X83590000Y-83370000D03*
X84090000Y-83370000D03*
X84590000Y-83370000D03*
X85090000Y-83370000D03*
X85590000Y-83370000D03*
X86090000Y-83370000D03*
X86590000Y-83370000D03*
X87090000Y-83370000D03*
X87590000Y-83370000D03*
X88090000Y-83370000D03*
X88590000Y-83370000D03*
X89090000Y-83370000D03*
X89590000Y-83370000D03*
X90090000Y-83370000D03*
X90590000Y-83370000D03*
X91090000Y-83370000D03*
X91590000Y-83370000D03*
X92090000Y-83370000D03*
X92590000Y-83370000D03*
X93090000Y-83370000D03*
X93590000Y-83370000D03*
X94090000Y-83370000D03*
X94590000Y-83370000D03*
D75*
X96140000Y-81820000D03*
X96140000Y-81320000D03*
X96140000Y-80820000D03*
X96140000Y-80320000D03*
X96140000Y-79820000D03*
X96140000Y-79320000D03*
X96140000Y-78820000D03*
X96140000Y-78320000D03*
X96140000Y-77820000D03*
X96140000Y-77320000D03*
X96140000Y-76820000D03*
X96140000Y-76320000D03*
X96140000Y-75820000D03*
X96140000Y-75320000D03*
X96140000Y-74820000D03*
X96140000Y-74320000D03*
X96140000Y-73820000D03*
X96140000Y-73320000D03*
X96140000Y-72820000D03*
X96140000Y-72320000D03*
X96140000Y-71820000D03*
X96140000Y-71320000D03*
X96140000Y-70820000D03*
X96140000Y-70320000D03*
X96140000Y-69820000D03*
D74*
X94590000Y-68270000D03*
X94090000Y-68270000D03*
X93590000Y-68270000D03*
X93090000Y-68270000D03*
X92590000Y-68270000D03*
X92090000Y-68270000D03*
X91590000Y-68270000D03*
X91090000Y-68270000D03*
X90590000Y-68270000D03*
X90090000Y-68270000D03*
X89590000Y-68270000D03*
X89090000Y-68270000D03*
X88590000Y-68270000D03*
X88090000Y-68270000D03*
X87590000Y-68270000D03*
X87090000Y-68270000D03*
X86590000Y-68270000D03*
X86090000Y-68270000D03*
X85590000Y-68270000D03*
X85090000Y-68270000D03*
X84590000Y-68270000D03*
X84090000Y-68270000D03*
X83590000Y-68270000D03*
X83090000Y-68270000D03*
X82590000Y-68270000D03*
D75*
X81040000Y-69820000D03*
X81040000Y-70320000D03*
X81040000Y-70820000D03*
X81040000Y-71320000D03*
X81040000Y-71820000D03*
X81040000Y-72320000D03*
X81040000Y-72820000D03*
X81040000Y-73320000D03*
X81040000Y-73820000D03*
X81040000Y-74320000D03*
X81040000Y-74820000D03*
X81040000Y-75320000D03*
X81040000Y-75820000D03*
X81040000Y-76320000D03*
X81040000Y-76820000D03*
X81040000Y-77320000D03*
X81040000Y-77820000D03*
X81040000Y-78320000D03*
X81040000Y-78820000D03*
X81040000Y-79320000D03*
X81040000Y-79820000D03*
X81040000Y-80320000D03*
X81040000Y-80820000D03*
X81040000Y-81320000D03*
X81040000Y-81820000D03*
%TD*%
D30*
%TO.C,C15*%
X96205000Y-127780000D03*
X97755000Y-127780000D03*
%TD*%
D60*
%TO.C,U9*%
X105790000Y-137590000D03*
X106290000Y-137590000D03*
X106790000Y-137590000D03*
X107290000Y-137590000D03*
D61*
X108040000Y-136840000D03*
X108040000Y-136340000D03*
X108040000Y-135840000D03*
X108040000Y-135340000D03*
D60*
X107290000Y-134590000D03*
X106790000Y-134590000D03*
X106290000Y-134590000D03*
X105790000Y-134590000D03*
D61*
X105040000Y-135340000D03*
X105040000Y-135840000D03*
X105040000Y-136340000D03*
X105040000Y-136840000D03*
D76*
X106540000Y-136090000D03*
%TD*%
D52*
%TO.C,TP4*%
X102860000Y-136180000D03*
%TD*%
D27*
%TO.C,R15*%
X88880000Y-129850000D03*
X88880000Y-131500000D03*
%TD*%
D77*
%TO.C,Q1*%
X120175000Y-68900000D03*
X118275000Y-68900000D03*
X119225000Y-70900000D03*
%TD*%
D32*
%TO.C,R21*%
X113385000Y-72700000D03*
X113385000Y-71050000D03*
%TD*%
D34*
%TO.C,C51*%
X86080000Y-118595000D03*
X86080000Y-120145000D03*
%TD*%
D30*
%TO.C,C34*%
X75270000Y-126250000D03*
X76820000Y-126250000D03*
%TD*%
%TO.C,C63*%
X97950000Y-81425000D03*
X99500000Y-81425000D03*
%TD*%
%TO.C,C18*%
X73100000Y-134845000D03*
X74650000Y-134845000D03*
%TD*%
D78*
%TO.C,J3*%
X128755000Y-91350000D03*
D79*
X130255000Y-89850000D03*
X130255000Y-92850000D03*
%TD*%
D34*
%TO.C,C43*%
X111865000Y-71100000D03*
X111865000Y-72650000D03*
%TD*%
D80*
%TO.C,D2*%
X87460000Y-149130000D03*
X87460000Y-146330000D03*
%TD*%
D24*
%TO.C,C9*%
X112390000Y-134905000D03*
X112390000Y-133355000D03*
%TD*%
D81*
%TO.C,U5*%
X93010000Y-129990000D03*
X93010000Y-129490000D03*
X93010000Y-128990000D03*
X93010000Y-128490000D03*
X91130000Y-128490000D03*
X91130000Y-128990000D03*
X91130000Y-129490000D03*
X91130000Y-129990000D03*
D82*
X92070000Y-129240000D03*
%TD*%
D27*
%TO.C,R17*%
X122730000Y-87135000D03*
X122730000Y-88785000D03*
%TD*%
D34*
%TO.C,C39*%
X110345000Y-71100000D03*
X110345000Y-72650000D03*
%TD*%
D57*
%TO.C,U6*%
X78227500Y-129307500D03*
X79177500Y-129307500D03*
X80127500Y-129307500D03*
X80127500Y-127032500D03*
X78227500Y-127032500D03*
%TD*%
D34*
%TO.C,C67*%
X86930000Y-89845000D03*
X86930000Y-91395000D03*
%TD*%
D83*
%TO.C,IC1*%
X120865000Y-91865000D03*
D84*
X120955000Y-91350000D03*
X120955000Y-90850000D03*
X120955000Y-90350000D03*
X120955000Y-89850000D03*
D83*
X120865000Y-89335000D03*
D85*
X120350000Y-89245000D03*
X119850000Y-89245000D03*
X119350000Y-89245000D03*
X118850000Y-89245000D03*
D83*
X118335000Y-89335000D03*
D84*
X118245000Y-89850000D03*
X118245000Y-90350000D03*
X118245000Y-90850000D03*
X118245000Y-91350000D03*
D83*
X118335000Y-91865000D03*
D85*
X118850000Y-91955000D03*
X119350000Y-91955000D03*
X119850000Y-91955000D03*
X120350000Y-91955000D03*
D86*
X119600000Y-90600000D03*
%TD*%
D34*
%TO.C,C66*%
X91050000Y-89845000D03*
X91050000Y-91395000D03*
%TD*%
D14*
%TO.C,R25*%
X120000000Y-67390000D03*
X118350000Y-67390000D03*
%TD*%
D23*
%TO.C,C53*%
X78180000Y-81870000D03*
X76630000Y-81870000D03*
%TD*%
D30*
%TO.C,C62*%
X98635000Y-70130000D03*
X100185000Y-70130000D03*
%TD*%
D34*
%TO.C,C44*%
X116485000Y-91925000D03*
X116485000Y-93475000D03*
%TD*%
%TO.C,C19*%
X79730000Y-141900000D03*
X79730000Y-143450000D03*
%TD*%
D27*
%TO.C,R9*%
X97950000Y-142325000D03*
X97950000Y-143975000D03*
%TD*%
D24*
%TO.C,C58*%
X80840000Y-68095000D03*
X80840000Y-66545000D03*
%TD*%
D34*
%TO.C,C65*%
X85070000Y-85595000D03*
X85070000Y-87145000D03*
%TD*%
M02*
