ISO-10303-21;
HEADER;
FILE_DESCRIPTION(('Open CASCADE Model'),'2;1');
FILE_NAME('Open CASCADE Shape Model','2026-09-13T23:12:11',('Author'),(
    'Open CASCADE'),'Open CASCADE STEP processor 7.9','Open CASCADE 7.9'
  ,'Unknown');
FILE_SCHEMA(('AUTOMOTIVE_DESIGN { 1 0 10303 214 1 1 1 1 }'));
ENDSEC;
DATA;
#1 = APPLICATION_PROTOCOL_DEFINITION('international standard',
  'automotive_design',2000,#2);
#2 = APPLICATION_CONTEXT(
  'core data for automotive mechanical design processes');
#3 = SHAPE_DEFINITION_REPRESENTATION(#4,#10);
#4 = PRODUCT_DEFINITION_SHAPE('','',#5);
#5 = PRODUCT_DEFINITION('design','',#6,#9);
#6 = PRODUCT_DEFINITION_FORMATION('','',#7);
#7 = PRODUCT('Open CASCADE STEP translator 7.9 30',
  'Open CASCADE STEP translator 7.9 30','',(#8));
#8 = PRODUCT_CONTEXT('',#2,'mechanical');
#9 = PRODUCT_DEFINITION_CONTEXT('part definition',#2,'design');
#10 = ADVANCED_BREP_SHAPE_REPRESENTATION('',(#11,#15),#1269);
#11 = AXIS2_PLACEMENT_3D('',#12,#13,#14);
#12 = CARTESIAN_POINT('',(0.,0.,0.));
#13 = DIRECTION('',(0.,0.,1.));
#14 = DIRECTION('',(1.,0.,-0.));
#15 = MANIFOLD_SOLID_BREP('',#16);
#16 = CLOSED_SHELL('',(#17,#316,#372,#407,#463,#498,#553,#557,#921,#956,
    #1088,#1161,#1211,#1235,#1260));
#17 = ADVANCED_FACE('',(#18),#55,.T.);
#18 = FACE_BOUND('',#19,.F.);
#19 = EDGE_LOOP('',(#20,#124,#147,#174,#175,#265,#288,#315));
#20 = ORIENTED_EDGE('',*,*,#21,.T.);
#21 = EDGE_CURVE('',#22,#24,#26,.T.);
#22 = VERTEX_POINT('',#23);
#23 = CARTESIAN_POINT('',(40.5,40.,21.4));
#24 = VERTEX_POINT('',#25);
#25 = CARTESIAN_POINT('',(40.5,40.,24.6));
#26 = SURFACE_CURVE('',#27,(#54,#89),.PCURVE_S1.);
#27 = B_SPLINE_CURVE_WITH_KNOTS('',7,(#28,#29,#30,#31,#32,#33,#34,#35,
    #36,#37,#38,#39,#40,#41,#42,#43,#44,#45,#46,#47,#48,#49,#50,#51,#52,
    #53),.UNSPECIFIED.,.F.,.F.,(8,6,6,6,8),(0.,0.247831414297,
    0.500043127664,0.752254837566,1.),.UNSPECIFIED.);
#28 = CARTESIAN_POINT('',(40.5,40.,21.4));
#29 = CARTESIAN_POINT('',(40.5,40.210449850653,21.4));
#30 = CARTESIAN_POINT('',(40.495078842707,40.415944752492,
    21.432293913033));
#31 = CARTESIAN_POINT('',(40.485654695154,40.610635621835,
    21.494146238671));
#32 = CARTESIAN_POINT('',(40.472932104894,40.789535726466,
    21.581631620972));
#33 = CARTESIAN_POINT('',(40.458629774231,40.948737222185,
    21.689685093543));
#34 = CARTESIAN_POINT('',(40.444343664006,41.085791359114,21.81215516701
    ));
#35 = CARTESIAN_POINT('',(40.417789213327,41.316585786551,
    22.073940058386));
#36 = CARTESIAN_POINT('',(40.405234447194,41.412356791418,
    22.216734924877));
#37 = CARTESIAN_POINT('',(40.394431549007,41.488002319657,
    22.366970818484));
#38 = CARTESIAN_POINT('',(40.385989076782,41.54415820549,22.522180210066
    ));
#39 = CARTESIAN_POINT('',(40.38025053172,41.581377137233,22.680441774828
    ));
#40 = CARTESIAN_POINT('',(40.377379245262,41.6,22.840186762664));
#41 = CARTESIAN_POINT('',(40.377379245262,41.6,23.159813235141));
#42 = CARTESIAN_POINT('',(40.380250531667,41.581377137784,
    23.319558230634));
#43 = CARTESIAN_POINT('',(40.385989077071,41.544158202837,
    23.477819785877));
#44 = CARTESIAN_POINT('',(40.394431548426,41.488002324715,
    23.633029179621));
#45 = CARTESIAN_POINT('',(40.405234447729,41.41235678682,23.783265079543
    ));
#46 = CARTESIAN_POINT('',(40.417789213123,41.31658578832,23.926059939607
    ));
#47 = CARTESIAN_POINT('',(40.44433908404,41.08583116527,24.187799681769)
  );
#48 = CARTESIAN_POINT('',(40.458626525515,40.948774405698,
    24.310295719027));
#49 = CARTESIAN_POINT('',(40.472934065759,40.789531590629,
    24.418388181801));
#50 = CARTESIAN_POINT('',(40.485660549687,40.610574434916,
    24.505892079804));
#51 = CARTESIAN_POINT('',(40.495082935371,40.415844108872,
    24.567732961749));
#52 = CARTESIAN_POINT('',(40.5,40.21036227733,24.6));
#53 = CARTESIAN_POINT('',(40.5,40.,24.6));
#54 = PCURVE('',#55,#60);
#55 = CYLINDRICAL_SURFACE('',#56,10.5);
#56 = AXIS2_PLACEMENT_3D('',#57,#58,#59);
#57 = CARTESIAN_POINT('',(30.,40.,18.8));
#58 = DIRECTION('',(-0.,-0.,-1.));
#59 = DIRECTION('',(1.,0.,0.));
#60 = DEFINITIONAL_REPRESENTATION('',(#61),#88);
#61 = B_SPLINE_CURVE_WITH_KNOTS('',7,(#62,#63,#64,#65,#66,#67,#68,#69,
    #70,#71,#72,#73,#74,#75,#76,#77,#78,#79,#80,#81,#82,#83,#84,#85,#86,
    #87),.UNSPECIFIED.,.F.,.F.,(8,6,6,6,8),(0.,0.247831414297,
    0.500043127664,0.752254837566,1.),.UNSPECIFIED.);
#62 = CARTESIAN_POINT('',(0.,-2.6));
#63 = CARTESIAN_POINT('',(-2.004284291932E-02,-2.6));
#64 = CARTESIAN_POINT('',(-3.961380148431E-02,-2.632293913033));
#65 = CARTESIAN_POINT('',(-5.816885388431E-02,-2.694146238671));
#66 = CARTESIAN_POINT('',(-7.524387689708E-02,-2.781631620972));
#67 = CARTESIAN_POINT('',(-9.046446972653E-02,-2.889685093543));
#68 = CARTESIAN_POINT('',(-0.103587201281,-3.01215516701));
#69 = CARTESIAN_POINT('',(-0.125712633562,-3.273940058386));
#70 = CARTESIAN_POINT('',(-0.134910572498,-3.416734924877));
#71 = CARTESIAN_POINT('',(-0.14218756328,-3.566970818484));
#72 = CARTESIAN_POINT('',(-0.147595805457,-3.722180210067));
#73 = CARTESIAN_POINT('',(-0.151182350904,-3.880441774828));
#74 = CARTESIAN_POINT('',(-0.152976913951,-4.040186762664));
#75 = CARTESIAN_POINT('',(-0.152976913951,-4.359813235141));
#76 = CARTESIAN_POINT('',(-0.151182350957,-4.519558230634));
#77 = CARTESIAN_POINT('',(-0.147595805203,-4.677819785877));
#78 = CARTESIAN_POINT('',(-0.142187563764,-4.833029179621));
#79 = CARTESIAN_POINT('',(-0.134910572057,-4.983265079543));
#80 = CARTESIAN_POINT('',(-0.125712633731,-5.126059939607));
#81 = CARTESIAN_POINT('',(-0.103591017354,-5.387799681769));
#82 = CARTESIAN_POINT('',(-9.046802351528E-02,-5.510295719027));
#83 = CARTESIAN_POINT('',(-7.524346502384E-02,-5.618388181801));
#84 = CARTESIAN_POINT('',(-5.816300886126E-02,-5.705892079804));
#85 = CARTESIAN_POINT('',(-3.960421659229E-02,-5.767732961749));
#86 = CARTESIAN_POINT('',(-2.003450260289E-02,-5.8));
#87 = CARTESIAN_POINT('',(0.,-5.8));
#88 = ( GEOMETRIC_REPRESENTATION_CONTEXT(2) 
PARAMETRIC_REPRESENTATION_CONTEXT() REPRESENTATION_CONTEXT('2D SPACE',''
  ) );
#89 = PCURVE('',#90,#95);
#90 = CYLINDRICAL_SURFACE('',#91,1.6);
#91 = AXIS2_PLACEMENT_3D('',#92,#93,#94);
#92 = CARTESIAN_POINT('',(35.8,40.,23.));
#93 = DIRECTION('',(1.,0.,0.));
#94 = DIRECTION('',(-0.,0.,1.));
#95 = DEFINITIONAL_REPRESENTATION('',(#96),#123);
#96 = B_SPLINE_CURVE_WITH_KNOTS('',7,(#97,#98,#99,#100,#101,#102,#103,
    #104,#105,#106,#107,#108,#109,#110,#111,#112,#113,#114,#115,#116,
    #117,#118,#119,#120,#121,#122),.UNSPECIFIED.,.F.,.F.,(8,6,6,6,8),(0.
    ,0.247831414297,0.500043127664,0.752254837566,1.),.UNSPECIFIED.);
#97 = CARTESIAN_POINT('',(3.14159265359,4.7));
#98 = CARTESIAN_POINT('',(3.273123810248,4.7));
#99 = CARTESIAN_POINT('',(3.401558028629,4.695078842707));
#100 = CARTESIAN_POINT('',(3.526956913913,4.685654695154));
#101 = CARTESIAN_POINT('',(3.649131837663,4.672932104894));
#102 = CARTESIAN_POINT('',(3.76765350675,4.658629774231));
#103 = CARTESIAN_POINT('',(3.881717139321,4.644343664006));
#104 = CARTESIAN_POINT('',(4.099838913194,4.617789213327));
#105 = CARTESIAN_POINT('',(4.206368048683,4.605234447194));
#106 = CARTESIAN_POINT('',(4.310241816879,4.594431549007));
#107 = CARTESIAN_POINT('',(4.412123688264,4.585989076782));
#108 = CARTESIAN_POINT('',(4.512665180636,4.58025053172));
#109 = CARTESIAN_POINT('',(4.61250570705,4.577379245262));
#110 = CARTESIAN_POINT('',(4.812272252348,4.577379245262));
#111 = CARTESIAN_POINT('',(4.912112783372,4.580250531667));
#112 = CARTESIAN_POINT('',(5.012654270657,4.585989077071));
#113 = CARTESIAN_POINT('',(5.114536141514,4.594431548426));
#114 = CARTESIAN_POINT('',(5.218409915909,4.605234447729));
#115 = CARTESIAN_POINT('',(5.324939045902,4.617789213123));
#116 = CARTESIAN_POINT('',(5.543023201002,4.64433908404));
#117 = CARTESIAN_POINT('',(5.657100101225,4.658626525515));
#118 = CARTESIAN_POINT('',(5.775654908317,4.672934065759));
#119 = CARTESIAN_POINT('',(5.897863872823,4.685660549687));
#120 = CARTESIAN_POINT('',(6.023282845105,4.695082935371));
#121 = CARTESIAN_POINT('',(6.151708883848,4.7));
#122 = CARTESIAN_POINT('',(6.28318530718,4.7));
#123 = ( GEOMETRIC_REPRESENTATION_CONTEXT(2) 
PARAMETRIC_REPRESENTATION_CONTEXT() REPRESENTATION_CONTEXT('2D SPACE',''
  ) );
#124 = ORIENTED_EDGE('',*,*,#125,.T.);
#125 = EDGE_CURVE('',#24,#126,#128,.T.);
#126 = VERTEX_POINT('',#127);
#127 = CARTESIAN_POINT('',(40.5,40.,27.1));
#128 = SEAM_CURVE('',#129,(#133,#140),.PCURVE_S1.);
#129 = LINE('',#130,#131);
#130 = CARTESIAN_POINT('',(40.5,40.,18.8));
#131 = VECTOR('',#132,1.);
#132 = DIRECTION('',(0.,0.,1.));
#133 = PCURVE('',#55,#134);
#134 = DEFINITIONAL_REPRESENTATION('',(#135),#139);
#135 = LINE('',#136,#137);
#136 = CARTESIAN_POINT('',(-6.28318530718,0.));
#137 = VECTOR('',#138,1.);
#138 = DIRECTION('',(-0.,-1.));
#139 = ( GEOMETRIC_REPRESENTATION_CONTEXT(2) 
PARAMETRIC_REPRESENTATION_CONTEXT() REPRESENTATION_CONTEXT('2D SPACE',''
  ) );
#140 = PCURVE('',#55,#141);
#141 = DEFINITIONAL_REPRESENTATION('',(#142),#146);
#142 = LINE('',#143,#144);
#143 = CARTESIAN_POINT('',(-0.,0.));
#144 = VECTOR('',#145,1.);
#145 = DIRECTION('',(-0.,-1.));
#146 = ( GEOMETRIC_REPRESENTATION_CONTEXT(2) 
PARAMETRIC_REPRESENTATION_CONTEXT() REPRESENTATION_CONTEXT('2D SPACE',''
  ) );
#147 = ORIENTED_EDGE('',*,*,#148,.T.);
#148 = EDGE_CURVE('',#126,#126,#149,.T.);
#149 = SURFACE_CURVE('',#150,(#155,#162),.PCURVE_S1.);
#150 = CIRCLE('',#151,10.5);
#151 = AXIS2_PLACEMENT_3D('',#152,#153,#154);
#152 = CARTESIAN_POINT('',(30.,40.,27.1));
#153 = DIRECTION('',(0.,0.,1.));
#154 = DIRECTION('',(1.,0.,-0.));
#155 = PCURVE('',#55,#156);
#156 = DEFINITIONAL_REPRESENTATION('',(#157),#161);
#157 = LINE('',#158,#159);
#158 = CARTESIAN_POINT('',(-0.,-8.3));
#159 = VECTOR('',#160,1.);
#160 = DIRECTION('',(-1.,0.));
#161 = ( GEOMETRIC_REPRESENTATION_CONTEXT(2) 
PARAMETRIC_REPRESENTATION_CONTEXT() REPRESENTATION_CONTEXT('2D SPACE',''
  ) );
#162 = PCURVE('',#163,#168);
#163 = TOROIDAL_SURFACE('',#164,8.8,1.7);
#164 = AXIS2_PLACEMENT_3D('',#165,#166,#167);
#165 = CARTESIAN_POINT('',(30.,40.,27.1));
#166 = DIRECTION('',(0.,0.,1.));
#167 = DIRECTION('',(1.,0.,-0.));
#168 = DEFINITIONAL_REPRESENTATION('',(#169),#173);
#169 = LINE('',#170,#171);
#170 = CARTESIAN_POINT('',(0.,0.));
#171 = VECTOR('',#172,1.);
#172 = DIRECTION('',(1.,0.));
#173 = ( GEOMETRIC_REPRESENTATION_CONTEXT(2) 
PARAMETRIC_REPRESENTATION_CONTEXT() REPRESENTATION_CONTEXT('2D SPACE',''
  ) );
#174 = ORIENTED_EDGE('',*,*,#125,.F.);
#175 = ORIENTED_EDGE('',*,*,#176,.T.);
#176 = EDGE_CURVE('',#24,#22,#177,.T.);
#177 = SURFACE_CURVE('',#178,(#205,#235),.PCURVE_S1.);
#178 = B_SPLINE_CURVE_WITH_KNOTS('',7,(#179,#180,#181,#182,#183,#184,
    #185,#186,#187,#188,#189,#190,#191,#192,#193,#194,#195,#196,#197,
    #198,#199,#200,#201,#202,#203,#204),.UNSPECIFIED.,.F.,.F.,(8,6,6,6,8
    ),(0.,0.247853813448,0.500040229253,0.752255549516,1.),
  .UNSPECIFIED.);
#179 = CARTESIAN_POINT('',(40.5,40.,24.6));
#180 = CARTESIAN_POINT('',(40.5,39.789550149347,24.6));
#181 = CARTESIAN_POINT('',(40.495078842707,39.584055247508,
    24.567706086967));
#182 = CARTESIAN_POINT('',(40.485654695154,39.389364378164,
    24.505853761329));
#183 = CARTESIAN_POINT('',(40.472932104894,39.210464273534,
    24.418368379028));
#184 = CARTESIAN_POINT('',(40.458629774231,39.051262777815,
    24.310314906457));
#185 = CARTESIAN_POINT('',(40.444343664006,38.914208640886,
    24.18784483299));
#186 = CARTESIAN_POINT('',(40.417791767021,38.68343640854,
    23.926085117002));
#187 = CARTESIAN_POINT('',(40.405236938676,38.587659773615,
    23.783296904782));
#188 = CARTESIAN_POINT('',(40.394432216825,38.512001300217,
    23.633049040803));
#189 = CARTESIAN_POINT('',(40.385988392509,38.455837401516,
    23.477819391838));
#190 = CARTESIAN_POINT('',(40.380249879813,38.418618619883,
    23.319541794428));
#191 = CARTESIAN_POINT('',(40.377379245262,38.4,23.159794920175));
#192 = CARTESIAN_POINT('',(40.377379245262,38.4,22.840186764859));
#193 = CARTESIAN_POINT('',(40.380250531667,38.418622862216,
    22.680441769366));
#194 = CARTESIAN_POINT('',(40.385989077071,38.455841797164,
    22.522180214123));
#195 = CARTESIAN_POINT('',(40.394431548426,38.511997675285,
    22.366970820379));
#196 = CARTESIAN_POINT('',(40.405234447729,38.58764321318,
    22.216734920457));
#197 = CARTESIAN_POINT('',(40.417789213123,38.68341421168,
    22.073940060393));
#198 = CARTESIAN_POINT('',(40.444338857905,38.91416686931,
    21.812202547563));
#199 = CARTESIAN_POINT('',(40.458625921604,39.05121992849,
    21.689709582701));
#200 = CARTESIAN_POINT('',(40.472933415386,39.210460513308,
    21.581615988924));
#201 = CARTESIAN_POINT('',(40.485660434818,39.389420221239,
    21.494108475988));
#202 = CARTESIAN_POINT('',(40.495083172564,39.584156465299,
    21.432265563231));
#203 = CARTESIAN_POINT('',(40.5,39.789642622575,21.4));
#204 = CARTESIAN_POINT('',(40.5,40.,21.4));
#205 = PCURVE('',#55,#206);
#206 = DEFINITIONAL_REPRESENTATION('',(#207),#234);
#207 = B_SPLINE_CURVE_WITH_KNOTS('',7,(#208,#209,#210,#211,#212,#213,
    #214,#215,#216,#217,#218,#219,#220,#221,#222,#223,#224,#225,#226,
    #227,#228,#229,#230,#231,#232,#233),.UNSPECIFIED.,.F.,.F.,(8,6,6,6,8
    ),(0.,0.247853813448,0.500040229253,0.752255549516,1.),
  .UNSPECIFIED.);
#208 = CARTESIAN_POINT('',(-6.28318530718,-5.8));
#209 = CARTESIAN_POINT('',(-6.26314246426,-5.8));
#210 = CARTESIAN_POINT('',(-6.243571505695,-5.767706086967));
#211 = CARTESIAN_POINT('',(-6.225016453295,-5.705853761329));
#212 = CARTESIAN_POINT('',(-6.207941430283,-5.618368379028));
#213 = CARTESIAN_POINT('',(-6.192720837453,-5.510314906457));
#214 = CARTESIAN_POINT('',(-6.179598105899,-5.38784483299));
#215 = CARTESIAN_POINT('',(-6.157474801381,-5.126085117002));
#216 = CARTESIAN_POINT('',(-6.148276329142,-4.983296904782));
#217 = CARTESIAN_POINT('',(-6.140998094719,-4.833049040803));
#218 = CARTESIAN_POINT('',(-6.13558907816,-4.677819391838));
#219 = CARTESIAN_POINT('',(-6.132002547469,-4.519541794428));
#220 = CARTESIAN_POINT('',(-6.130208393229,-4.359794920175));
#221 = CARTESIAN_POINT('',(-6.130208393229,-4.040186764859));
#222 = CARTESIAN_POINT('',(-6.132002956223,-3.880441769366));
#223 = CARTESIAN_POINT('',(-6.135589501977,-3.722180214123));
#224 = CARTESIAN_POINT('',(-6.140997743415,-3.566970820379));
#225 = CARTESIAN_POINT('',(-6.148274735123,-3.416734920457));
#226 = CARTESIAN_POINT('',(-6.157472673448,-3.273940060393));
#227 = CARTESIAN_POINT('',(-6.179594101408,-3.012202547563));
#228 = CARTESIAN_POINT('',(-6.192716740583,-2.889709582701));
#229 = CARTESIAN_POINT('',(-6.207941089247,-2.781615988925));
#230 = CARTESIAN_POINT('',(-6.22502178884,-2.694108475988));
#231 = CARTESIAN_POINT('',(-6.243581146088,-2.632265563231));
#232 = CARTESIAN_POINT('',(-6.263151271234,-2.6));
#233 = CARTESIAN_POINT('',(-6.28318530718,-2.6));
#234 = ( GEOMETRIC_REPRESENTATION_CONTEXT(2) 
PARAMETRIC_REPRESENTATION_CONTEXT() REPRESENTATION_CONTEXT('2D SPACE',''
  ) );
#235 = PCURVE('',#90,#236);
#236 = DEFINITIONAL_REPRESENTATION('',(#237),#264);
#237 = B_SPLINE_CURVE_WITH_KNOTS('',7,(#238,#239,#240,#241,#242,#243,
    #244,#245,#246,#247,#248,#249,#250,#251,#252,#253,#254,#255,#256,
    #257,#258,#259,#260,#261,#262,#263),.UNSPECIFIED.,.F.,.F.,(8,6,6,6,8
    ),(0.,0.247853813448,0.500040229253,0.752255549516,1.),
  .UNSPECIFIED.);
#238 = CARTESIAN_POINT('',(-8.881784197001E-16,4.7));
#239 = CARTESIAN_POINT('',(0.131531156658,4.7));
#240 = CARTESIAN_POINT('',(0.259965375039,4.695078842707));
#241 = CARTESIAN_POINT('',(0.385364260323,4.685654695154));
#242 = CARTESIAN_POINT('',(0.507539184073,4.672932104894));
#243 = CARTESIAN_POINT('',(0.62606085316,4.658629774231));
#244 = CARTESIAN_POINT('',(0.740124485731,4.644343664006));
#245 = CARTESIAN_POINT('',(0.958225283221,4.617791767021));
#246 = CARTESIAN_POINT('',(1.064753625922,4.605236938676));
#247 = CARTESIAN_POINT('',(1.168637115577,4.594432216825));
#248 = CARTESIAN_POINT('',(1.270531870187,4.585988392509));
#249 = CARTESIAN_POINT('',(1.371082783878,4.580249879813));
#250 = CARTESIAN_POINT('',(1.470924501686,4.577379245262));
#251 = CARTESIAN_POINT('',(1.670679598758,4.577379245262));
#252 = CARTESIAN_POINT('',(1.770520129782,4.580250531667));
#253 = CARTESIAN_POINT('',(1.871061617068,4.585989077071));
#254 = CARTESIAN_POINT('',(1.972943487924,4.594431548426));
#255 = CARTESIAN_POINT('',(2.076817262319,4.605234447729));
#256 = CARTESIAN_POINT('',(2.183346392313,4.617789213123));
#257 = CARTESIAN_POINT('',(2.401428689911,4.644338857905));
#258 = CARTESIAN_POINT('',(2.515502626388,4.658625921604));
#259 = CARTESIAN_POINT('',(2.634056906843,4.672933415386));
#260 = CARTESIAN_POINT('',(2.756268136073,4.685660434818));
#261 = CARTESIAN_POINT('',(2.881690546398,4.695083172564));
#262 = CARTESIAN_POINT('',(3.010119292699,4.7));
#263 = CARTESIAN_POINT('',(3.14159265359,4.7));
#264 = ( GEOMETRIC_REPRESENTATION_CONTEXT(2) 
PARAMETRIC_REPRESENTATION_CONTEXT() REPRESENTATION_CONTEXT('2D SPACE',''
  ) );
#265 = ORIENTED_EDGE('',*,*,#266,.F.);
#266 = EDGE_CURVE('',#267,#22,#269,.T.);
#267 = VERTEX_POINT('',#268);
#268 = CARTESIAN_POINT('',(40.5,40.,18.8));
#269 = SEAM_CURVE('',#270,(#274,#281),.PCURVE_S1.);
#270 = LINE('',#271,#272);
#271 = CARTESIAN_POINT('',(40.5,40.,18.8));
#272 = VECTOR('',#273,1.);
#273 = DIRECTION('',(0.,0.,1.));
#274 = PCURVE('',#55,#275);
#275 = DEFINITIONAL_REPRESENTATION('',(#276),#280);
#276 = LINE('',#277,#278);
#277 = CARTESIAN_POINT('',(-0.,0.));
#278 = VECTOR('',#279,1.);
#279 = DIRECTION('',(-0.,-1.));
#280 = ( GEOMETRIC_REPRESENTATION_CONTEXT(2) 
PARAMETRIC_REPRESENTATION_CONTEXT() REPRESENTATION_CONTEXT('2D SPACE',''
  ) );
#281 = PCURVE('',#55,#282);
#282 = DEFINITIONAL_REPRESENTATION('',(#283),#287);
#283 = LINE('',#284,#285);
#284 = CARTESIAN_POINT('',(-6.28318530718,0.));
#285 = VECTOR('',#286,1.);
#286 = DIRECTION('',(-0.,-1.));
#287 = ( GEOMETRIC_REPRESENTATION_CONTEXT(2) 
PARAMETRIC_REPRESENTATION_CONTEXT() REPRESENTATION_CONTEXT('2D SPACE',''
  ) );
#288 = ORIENTED_EDGE('',*,*,#289,.F.);
#289 = EDGE_CURVE('',#267,#267,#290,.T.);
#290 = SURFACE_CURVE('',#291,(#296,#303),.PCURVE_S1.);
#291 = CIRCLE('',#292,10.5);
#292 = AXIS2_PLACEMENT_3D('',#293,#294,#295);
#293 = CARTESIAN_POINT('',(30.,40.,18.8));
#294 = DIRECTION('',(0.,0.,1.));
#295 = DIRECTION('',(1.,0.,0.));
#296 = PCURVE('',#55,#297);
#297 = DEFINITIONAL_REPRESENTATION('',(#298),#302);
#298 = LINE('',#299,#300);
#299 = CARTESIAN_POINT('',(-0.,0.));
#300 = VECTOR('',#301,1.);
#301 = DIRECTION('',(-1.,0.));
#302 = ( GEOMETRIC_REPRESENTATION_CONTEXT(2) 
PARAMETRIC_REPRESENTATION_CONTEXT() REPRESENTATION_CONTEXT('2D SPACE',''
  ) );
#303 = PCURVE('',#304,#309);
#304 = PLANE('',#305);
#305 = AXIS2_PLACEMENT_3D('',#306,#307,#308);
#306 = CARTESIAN_POINT('',(30.,40.,18.8));
#307 = DIRECTION('',(0.,0.,1.));
#308 = DIRECTION('',(1.,0.,-0.));
#309 = DEFINITIONAL_REPRESENTATION('',(#310),#314);
#310 = CIRCLE('',#311,10.5);
#311 = AXIS2_PLACEMENT_2D('',#312,#313);
#312 = CARTESIAN_POINT('',(0.,0.));
#313 = DIRECTION('',(1.,0.));
#314 = ( GEOMETRIC_REPRESENTATION_CONTEXT(2) 
PARAMETRIC_REPRESENTATION_CONTEXT() REPRESENTATION_CONTEXT('2D SPACE',''
  ) );
#315 = ORIENTED_EDGE('',*,*,#266,.T.);
#316 = ADVANCED_FACE('',(#317),#90,.F.);
#317 = FACE_BOUND('',#318,.F.);
#318 = EDGE_LOOP('',(#319,#320,#343,#370,#371));
#319 = ORIENTED_EDGE('',*,*,#176,.F.);
#320 = ORIENTED_EDGE('',*,*,#321,.F.);
#321 = EDGE_CURVE('',#322,#24,#324,.T.);
#322 = VERTEX_POINT('',#323);
#323 = CARTESIAN_POINT('',(35.8,40.,24.6));
#324 = SEAM_CURVE('',#325,(#329,#336),.PCURVE_S1.);
#325 = LINE('',#326,#327);
#326 = CARTESIAN_POINT('',(35.8,40.,24.6));
#327 = VECTOR('',#328,1.);
#328 = DIRECTION('',(1.,0.,0.));
#329 = PCURVE('',#90,#330);
#330 = DEFINITIONAL_REPRESENTATION('',(#331),#335);
#331 = LINE('',#332,#333);
#332 = CARTESIAN_POINT('',(6.28318530718,-0.));
#333 = VECTOR('',#334,1.);
#334 = DIRECTION('',(0.,1.));
#335 = ( GEOMETRIC_REPRESENTATION_CONTEXT(2) 
PARAMETRIC_REPRESENTATION_CONTEXT() REPRESENTATION_CONTEXT('2D SPACE',''
  ) );
#336 = PCURVE('',#90,#337);
#337 = DEFINITIONAL_REPRESENTATION('',(#338),#342);
#338 = LINE('',#339,#340);
#339 = CARTESIAN_POINT('',(0.,-0.));
#340 = VECTOR('',#341,1.);
#341 = DIRECTION('',(0.,1.));
#342 = ( GEOMETRIC_REPRESENTATION_CONTEXT(2) 
PARAMETRIC_REPRESENTATION_CONTEXT() REPRESENTATION_CONTEXT('2D SPACE',''
  ) );
#343 = ORIENTED_EDGE('',*,*,#344,.T.);
#344 = EDGE_CURVE('',#322,#322,#345,.T.);
#345 = SURFACE_CURVE('',#346,(#351,#358),.PCURVE_S1.);
#346 = CIRCLE('',#347,1.6);
#347 = AXIS2_PLACEMENT_3D('',#348,#349,#350);
#348 = CARTESIAN_POINT('',(35.8,40.,23.));
#349 = DIRECTION('',(1.,0.,0.));
#350 = DIRECTION('',(-0.,0.,1.));
#351 = PCURVE('',#90,#352);
#352 = DEFINITIONAL_REPRESENTATION('',(#353),#357);
#353 = LINE('',#354,#355);
#354 = CARTESIAN_POINT('',(0.,0.));
#355 = VECTOR('',#356,1.);
#356 = DIRECTION('',(1.,0.));
#357 = ( GEOMETRIC_REPRESENTATION_CONTEXT(2) 
PARAMETRIC_REPRESENTATION_CONTEXT() REPRESENTATION_CONTEXT('2D SPACE',''
  ) );
#358 = PCURVE('',#359,#364);
#359 = PLANE('',#360);
#360 = AXIS2_PLACEMENT_3D('',#361,#362,#363);
#361 = CARTESIAN_POINT('',(35.8,40.,23.));
#362 = DIRECTION('',(1.,0.,0.));
#363 = DIRECTION('',(-0.,0.,1.));
#364 = DEFINITIONAL_REPRESENTATION('',(#365),#369);
#365 = CIRCLE('',#366,1.6);
#366 = AXIS2_PLACEMENT_2D('',#367,#368);
#367 = CARTESIAN_POINT('',(0.,0.));
#368 = DIRECTION('',(1.,0.));
#369 = ( GEOMETRIC_REPRESENTATION_CONTEXT(2) 
PARAMETRIC_REPRESENTATION_CONTEXT() REPRESENTATION_CONTEXT('2D SPACE',''
  ) );
#370 = ORIENTED_EDGE('',*,*,#321,.T.);
#371 = ORIENTED_EDGE('',*,*,#21,.F.);
#372 = ADVANCED_FACE('',(#373,#376),#304,.F.);
#373 = FACE_BOUND('',#374,.F.);
#374 = EDGE_LOOP('',(#375));
#375 = ORIENTED_EDGE('',*,*,#289,.T.);
#376 = FACE_BOUND('',#377,.F.);
#377 = EDGE_LOOP('',(#378));
#378 = ORIENTED_EDGE('',*,*,#379,.F.);
#379 = EDGE_CURVE('',#380,#380,#382,.T.);
#380 = VERTEX_POINT('',#381);
#381 = CARTESIAN_POINT('',(38.65,40.,18.8));
#382 = SURFACE_CURVE('',#383,(#388,#395),.PCURVE_S1.);
#383 = CIRCLE('',#384,8.65);
#384 = AXIS2_PLACEMENT_3D('',#385,#386,#387);
#385 = CARTESIAN_POINT('',(30.,40.,18.8));
#386 = DIRECTION('',(0.,0.,1.));
#387 = DIRECTION('',(1.,0.,-0.));
#388 = PCURVE('',#304,#389);
#389 = DEFINITIONAL_REPRESENTATION('',(#390),#394);
#390 = CIRCLE('',#391,8.65);
#391 = AXIS2_PLACEMENT_2D('',#392,#393);
#392 = CARTESIAN_POINT('',(0.,0.));
#393 = DIRECTION('',(1.,0.));
#394 = ( GEOMETRIC_REPRESENTATION_CONTEXT(2) 
PARAMETRIC_REPRESENTATION_CONTEXT() REPRESENTATION_CONTEXT('2D SPACE',''
  ) );
#395 = PCURVE('',#396,#401);
#396 = CYLINDRICAL_SURFACE('',#397,8.65);
#397 = AXIS2_PLACEMENT_3D('',#398,#399,#400);
#398 = CARTESIAN_POINT('',(30.,40.,12.8));
#399 = DIRECTION('',(0.,0.,1.));
#400 = DIRECTION('',(1.,0.,-0.));
#401 = DEFINITIONAL_REPRESENTATION('',(#402),#406);
#402 = LINE('',#403,#404);
#403 = CARTESIAN_POINT('',(0.,6.));
#404 = VECTOR('',#405,1.);
#405 = DIRECTION('',(1.,0.));
#406 = ( GEOMETRIC_REPRESENTATION_CONTEXT(2) 
PARAMETRIC_REPRESENTATION_CONTEXT() REPRESENTATION_CONTEXT('2D SPACE',''
  ) );
#407 = ADVANCED_FACE('',(#408),#163,.T.);
#408 = FACE_BOUND('',#409,.T.);
#409 = EDGE_LOOP('',(#410,#434,#435,#436));
#410 = ORIENTED_EDGE('',*,*,#411,.F.);
#411 = EDGE_CURVE('',#126,#412,#414,.T.);
#412 = VERTEX_POINT('',#413);
#413 = CARTESIAN_POINT('',(38.8,40.,28.8));
#414 = SEAM_CURVE('',#415,(#420,#427),.PCURVE_S1.);
#415 = CIRCLE('',#416,1.7);
#416 = AXIS2_PLACEMENT_3D('',#417,#418,#419);
#417 = CARTESIAN_POINT('',(38.8,40.,27.1));
#418 = DIRECTION('',(0.,-1.,0.));
#419 = DIRECTION('',(1.,0.,0.));
#420 = PCURVE('',#163,#421);
#421 = DEFINITIONAL_REPRESENTATION('',(#422),#426);
#422 = LINE('',#423,#424);
#423 = CARTESIAN_POINT('',(0.,0.));
#424 = VECTOR('',#425,1.);
#425 = DIRECTION('',(0.,1.));
#426 = ( GEOMETRIC_REPRESENTATION_CONTEXT(2) 
PARAMETRIC_REPRESENTATION_CONTEXT() REPRESENTATION_CONTEXT('2D SPACE',''
  ) );
#427 = PCURVE('',#163,#428);
#428 = DEFINITIONAL_REPRESENTATION('',(#429),#433);
#429 = LINE('',#430,#431);
#430 = CARTESIAN_POINT('',(6.28318530718,0.));
#431 = VECTOR('',#432,1.);
#432 = DIRECTION('',(0.,1.));
#433 = ( GEOMETRIC_REPRESENTATION_CONTEXT(2) 
PARAMETRIC_REPRESENTATION_CONTEXT() REPRESENTATION_CONTEXT('2D SPACE',''
  ) );
#434 = ORIENTED_EDGE('',*,*,#148,.T.);
#435 = ORIENTED_EDGE('',*,*,#411,.T.);
#436 = ORIENTED_EDGE('',*,*,#437,.F.);
#437 = EDGE_CURVE('',#412,#412,#438,.T.);
#438 = SURFACE_CURVE('',#439,(#444,#451),.PCURVE_S1.);
#439 = CIRCLE('',#440,8.8);
#440 = AXIS2_PLACEMENT_3D('',#441,#442,#443);
#441 = CARTESIAN_POINT('',(30.,40.,28.8));
#442 = DIRECTION('',(0.,0.,1.));
#443 = DIRECTION('',(1.,0.,-0.));
#444 = PCURVE('',#163,#445);
#445 = DEFINITIONAL_REPRESENTATION('',(#446),#450);
#446 = LINE('',#447,#448);
#447 = CARTESIAN_POINT('',(0.,1.570796326795));
#448 = VECTOR('',#449,1.);
#449 = DIRECTION('',(1.,0.));
#450 = ( GEOMETRIC_REPRESENTATION_CONTEXT(2) 
PARAMETRIC_REPRESENTATION_CONTEXT() REPRESENTATION_CONTEXT('2D SPACE',''
  ) );
#451 = PCURVE('',#452,#457);
#452 = PLANE('',#453);
#453 = AXIS2_PLACEMENT_3D('',#454,#455,#456);
#454 = CARTESIAN_POINT('',(30.,40.,28.8));
#455 = DIRECTION('',(0.,0.,1.));
#456 = DIRECTION('',(1.,0.,-0.));
#457 = DEFINITIONAL_REPRESENTATION('',(#458),#462);
#458 = CIRCLE('',#459,8.8);
#459 = AXIS2_PLACEMENT_2D('',#460,#461);
#460 = CARTESIAN_POINT('',(0.,0.));
#461 = DIRECTION('',(1.,0.));
#462 = ( GEOMETRIC_REPRESENTATION_CONTEXT(2) 
PARAMETRIC_REPRESENTATION_CONTEXT() REPRESENTATION_CONTEXT('2D SPACE',''
  ) );
#463 = ADVANCED_FACE('',(#464,#467),#359,.T.);
#464 = FACE_BOUND('',#465,.T.);
#465 = EDGE_LOOP('',(#466));
#466 = ORIENTED_EDGE('',*,*,#344,.T.);
#467 = FACE_BOUND('',#468,.T.);
#468 = EDGE_LOOP('',(#469));
#469 = ORIENTED_EDGE('',*,*,#470,.F.);
#470 = EDGE_CURVE('',#471,#471,#473,.T.);
#471 = VERTEX_POINT('',#472);
#472 = CARTESIAN_POINT('',(35.8,40.,24.05));
#473 = SURFACE_CURVE('',#474,(#479,#486),.PCURVE_S1.);
#474 = CIRCLE('',#475,1.05);
#475 = AXIS2_PLACEMENT_3D('',#476,#477,#478);
#476 = CARTESIAN_POINT('',(35.8,40.,23.));
#477 = DIRECTION('',(1.,0.,0.));
#478 = DIRECTION('',(-0.,0.,1.));
#479 = PCURVE('',#359,#480);
#480 = DEFINITIONAL_REPRESENTATION('',(#481),#485);
#481 = CIRCLE('',#482,1.05);
#482 = AXIS2_PLACEMENT_2D('',#483,#484);
#483 = CARTESIAN_POINT('',(0.,0.));
#484 = DIRECTION('',(1.,0.));
#485 = ( GEOMETRIC_REPRESENTATION_CONTEXT(2) 
PARAMETRIC_REPRESENTATION_CONTEXT() REPRESENTATION_CONTEXT('2D SPACE',''
  ) );
#486 = PCURVE('',#487,#492);
#487 = CYLINDRICAL_SURFACE('',#488,1.05);
#488 = AXIS2_PLACEMENT_3D('',#489,#490,#491);
#489 = CARTESIAN_POINT('',(32.8,40.,23.));
#490 = DIRECTION('',(1.,0.,0.));
#491 = DIRECTION('',(-0.,0.,1.));
#492 = DEFINITIONAL_REPRESENTATION('',(#493),#497);
#493 = LINE('',#494,#495);
#494 = CARTESIAN_POINT('',(0.,3.));
#495 = VECTOR('',#496,1.);
#496 = DIRECTION('',(1.,0.));
#497 = ( GEOMETRIC_REPRESENTATION_CONTEXT(2) 
PARAMETRIC_REPRESENTATION_CONTEXT() REPRESENTATION_CONTEXT('2D SPACE',''
  ) );
#498 = ADVANCED_FACE('',(#499),#396,.T.);
#499 = FACE_BOUND('',#500,.T.);
#500 = EDGE_LOOP('',(#501,#502,#525,#552));
#501 = ORIENTED_EDGE('',*,*,#379,.F.);
#502 = ORIENTED_EDGE('',*,*,#503,.F.);
#503 = EDGE_CURVE('',#504,#380,#506,.T.);
#504 = VERTEX_POINT('',#505);
#505 = CARTESIAN_POINT('',(38.65,40.,12.8));
#506 = SEAM_CURVE('',#507,(#511,#518),.PCURVE_S1.);
#507 = LINE('',#508,#509);
#508 = CARTESIAN_POINT('',(38.65,40.,12.8));
#509 = VECTOR('',#510,1.);
#510 = DIRECTION('',(0.,0.,1.));
#511 = PCURVE('',#396,#512);
#512 = DEFINITIONAL_REPRESENTATION('',(#513),#517);
#513 = LINE('',#514,#515);
#514 = CARTESIAN_POINT('',(6.28318530718,-0.));
#515 = VECTOR('',#516,1.);
#516 = DIRECTION('',(0.,1.));
#517 = ( GEOMETRIC_REPRESENTATION_CONTEXT(2) 
PARAMETRIC_REPRESENTATION_CONTEXT() REPRESENTATION_CONTEXT('2D SPACE',''
  ) );
#518 = PCURVE('',#396,#519);
#519 = DEFINITIONAL_REPRESENTATION('',(#520),#524);
#520 = LINE('',#521,#522);
#521 = CARTESIAN_POINT('',(0.,-0.));
#522 = VECTOR('',#523,1.);
#523 = DIRECTION('',(0.,1.));
#524 = ( GEOMETRIC_REPRESENTATION_CONTEXT(2) 
PARAMETRIC_REPRESENTATION_CONTEXT() REPRESENTATION_CONTEXT('2D SPACE',''
  ) );
#525 = ORIENTED_EDGE('',*,*,#526,.T.);
#526 = EDGE_CURVE('',#504,#504,#527,.T.);
#527 = SURFACE_CURVE('',#528,(#533,#540),.PCURVE_S1.);
#528 = CIRCLE('',#529,8.65);
#529 = AXIS2_PLACEMENT_3D('',#530,#531,#532);
#530 = CARTESIAN_POINT('',(30.,40.,12.8));
#531 = DIRECTION('',(0.,0.,1.));
#532 = DIRECTION('',(1.,0.,-0.));
#533 = PCURVE('',#396,#534);
#534 = DEFINITIONAL_REPRESENTATION('',(#535),#539);
#535 = LINE('',#536,#537);
#536 = CARTESIAN_POINT('',(0.,0.));
#537 = VECTOR('',#538,1.);
#538 = DIRECTION('',(1.,0.));
#539 = ( GEOMETRIC_REPRESENTATION_CONTEXT(2) 
PARAMETRIC_REPRESENTATION_CONTEXT() REPRESENTATION_CONTEXT('2D SPACE',''
  ) );
#540 = PCURVE('',#541,#546);
#541 = PLANE('',#542);
#542 = AXIS2_PLACEMENT_3D('',#543,#544,#545);
#543 = CARTESIAN_POINT('',(30.,40.,12.8));
#544 = DIRECTION('',(0.,0.,1.));
#545 = DIRECTION('',(1.,0.,-0.));
#546 = DEFINITIONAL_REPRESENTATION('',(#547),#551);
#547 = CIRCLE('',#548,8.65);
#548 = AXIS2_PLACEMENT_2D('',#549,#550);
#549 = CARTESIAN_POINT('',(0.,0.));
#550 = DIRECTION('',(1.,0.));
#551 = ( GEOMETRIC_REPRESENTATION_CONTEXT(2) 
PARAMETRIC_REPRESENTATION_CONTEXT() REPRESENTATION_CONTEXT('2D SPACE',''
  ) );
#552 = ORIENTED_EDGE('',*,*,#503,.T.);
#553 = ADVANCED_FACE('',(#554),#452,.T.);
#554 = FACE_BOUND('',#555,.T.);
#555 = EDGE_LOOP('',(#556));
#556 = ORIENTED_EDGE('',*,*,#437,.T.);
#557 = ADVANCED_FACE('',(#558),#487,.F.);
#558 = FACE_BOUND('',#559,.F.);
#559 = EDGE_LOOP('',(#560,#561,#584,#753,#920));
#560 = ORIENTED_EDGE('',*,*,#470,.F.);
#561 = ORIENTED_EDGE('',*,*,#562,.F.);
#562 = EDGE_CURVE('',#563,#471,#565,.T.);
#563 = VERTEX_POINT('',#564);
#564 = CARTESIAN_POINT('',(33.12,40.,24.05));
#565 = SEAM_CURVE('',#566,(#570,#577),.PCURVE_S1.);
#566 = LINE('',#567,#568);
#567 = CARTESIAN_POINT('',(32.8,40.,24.05));
#568 = VECTOR('',#569,1.);
#569 = DIRECTION('',(1.,0.,0.));
#570 = PCURVE('',#487,#571);
#571 = DEFINITIONAL_REPRESENTATION('',(#572),#576);
#572 = LINE('',#573,#574);
#573 = CARTESIAN_POINT('',(6.28318530718,-0.));
#574 = VECTOR('',#575,1.);
#575 = DIRECTION('',(0.,1.));
#576 = ( GEOMETRIC_REPRESENTATION_CONTEXT(2) 
PARAMETRIC_REPRESENTATION_CONTEXT() REPRESENTATION_CONTEXT('2D SPACE',''
  ) );
#577 = PCURVE('',#487,#578);
#578 = DEFINITIONAL_REPRESENTATION('',(#579),#583);
#579 = LINE('',#580,#581);
#580 = CARTESIAN_POINT('',(0.,-0.));
#581 = VECTOR('',#582,1.);
#582 = DIRECTION('',(0.,1.));
#583 = ( GEOMETRIC_REPRESENTATION_CONTEXT(2) 
PARAMETRIC_REPRESENTATION_CONTEXT() REPRESENTATION_CONTEXT('2D SPACE',''
  ) );
#584 = ORIENTED_EDGE('',*,*,#585,.T.);
#585 = EDGE_CURVE('',#563,#586,#588,.T.);
#586 = VERTEX_POINT('',#587);
#587 = CARTESIAN_POINT('',(33.12,40.,21.95));
#588 = SURFACE_CURVE('',#589,(#640,#694),.PCURVE_S1.);
#589 = B_SPLINE_CURVE_WITH_KNOTS('',7,(#590,#591,#592,#593,#594,#595,
    #596,#597,#598,#599,#600,#601,#602,#603,#604,#605,#606,#607,#608,
    #609,#610,#611,#612,#613,#614,#615,#616,#617,#618,#619,#620,#621,
    #622,#623,#624,#625,#626,#627,#628,#629,#630,#631,#632,#633,#634,
    #635,#636,#637,#638,#639),.UNSPECIFIED.,.F.,.F.,(8,6,6,6,6,6,6,6,8),
  (0.,0.159029791677,0.228839821322,0.496675699684,0.498237595317,
    0.499799498723,0.771433206899,0.840858143162,1.),.UNSPECIFIED.);
#590 = CARTESIAN_POINT('',(33.12,40.,24.05));
#591 = CARTESIAN_POINT('',(33.12,39.916358088143,24.05));
#592 = CARTESIAN_POINT('',(33.11738399708,39.833120666267,
    24.042226679588));
#593 = CARTESIAN_POINT('',(33.112197492838,39.751337564712,
    24.026815499548));
#594 = CARTESIAN_POINT('',(33.104668903354,39.672030942115,
    24.004123234486));
#595 = CARTESIAN_POINT('',(33.095197643154,39.59615778109,
    23.974725265328));
#596 = CARTESIAN_POINT('',(33.084305251029,39.524564062388,
    23.939422180196));
#597 = CARTESIAN_POINT('',(33.067389107645,39.428680231731,
    23.881623614319));
#598 = CARTESIAN_POINT('',(33.06205125902,39.400323078588,
    23.863016634509));
#599 = CARTESIAN_POINT('',(33.056574658408,39.372882808317,
    23.843490745398));
#600 = CARTESIAN_POINT('',(33.050997762582,39.346380259962,
    23.823101077473));
#601 = CARTESIAN_POINT('',(33.045358416214,39.320833575621,
    23.80190198346));
#602 = CARTESIAN_POINT('',(33.039693429572,39.296258314675,
    23.779947131242));
#603 = CARTESIAN_POINT('',(33.012340914227,39.18215839066,23.67036081766
    ));
#604 = CARTESIAN_POINT('',(32.990771275262,39.106076745591,
    23.573027065363));
#605 = CARTESIAN_POINT('',(32.971243170536,39.044849926321,
    23.467923627334));
#606 = CARTESIAN_POINT('',(32.955352742229,38.99861204943,
    23.357251750848));
#607 = CARTESIAN_POINT('',(32.944220885415,38.967382414202,
    23.242920306117));
#608 = CARTESIAN_POINT('',(32.938427121585,38.951168523618,
    23.126644502824));
#609 = CARTESIAN_POINT('',(32.938024520772,38.950041945891,
    23.009409922383));
#610 = CARTESIAN_POINT('',(32.938022370036,38.950035927648,
    23.00873022404));
#611 = CARTESIAN_POINT('',(32.938020402741,38.950030422755,
    23.008050522195));
#612 = CARTESIAN_POINT('',(32.938018618891,38.950025431213,
    23.007370817213));
#613 = CARTESIAN_POINT('',(32.938017018491,38.950020953023,
    23.006691109459));
#614 = CARTESIAN_POINT('',(32.938015601544,38.950016988185,
    23.006011399297));
#615 = CARTESIAN_POINT('',(32.938013134557,38.950010085198,
    23.004651971505));
#616 = CARTESIAN_POINT('',(32.938012084518,38.950007147053,
    23.003972253875));
#617 = CARTESIAN_POINT('',(32.938011217941,38.950004722266,
    23.003292534567));
#618 = CARTESIAN_POINT('',(32.938010534827,38.950002810837,
    23.002612813944));
#619 = CARTESIAN_POINT('',(32.938010035178,38.950001412767,
    23.001933092373));
#620 = CARTESIAN_POINT('',(32.938009718996,38.950000528055,
    23.001253370217));
#621 = CARTESIAN_POINT('',(32.937986505355,38.949935573854,
    22.882361786116));
#622 = CARTESIAN_POINT('',(32.943512482134,38.965397745074,
    22.764317300396));
#623 = CARTESIAN_POINT('',(32.954559625963,38.996304898752,
    22.648178110911));
#624 = CARTESIAN_POINT('',(32.970545420248,39.042650403583,
    22.535728498164));
#625 = CARTESIAN_POINT('',(32.990311939789,39.104416502705,
    22.428954135056));
#626 = CARTESIAN_POINT('',(33.012196400707,39.181465111801,
    22.330147302818));
#627 = CARTESIAN_POINT('',(33.039824998329,39.296830686632,
    22.219544188366));
#628 = CARTESIAN_POINT('',(33.045457895037,39.321287534649,
    22.197726039768));
#629 = CARTESIAN_POINT('',(33.051064895886,39.346704817155,
    22.17665602449));
#630 = CARTESIAN_POINT('',(33.056609787977,39.373067194407,
    22.156386942634));
#631 = CARTESIAN_POINT('',(33.062055349766,39.400356798352,
    22.13697226108));
#632 = CARTESIAN_POINT('',(33.067363762193,39.428553121759,
    22.118466203871));
#633 = CARTESIAN_POINT('',(33.084263917913,39.524292112545,
    22.060711721495));
#634 = CARTESIAN_POINT('',(33.095167551731,39.59591711429,22.02536822333
    ));
#635 = CARTESIAN_POINT('',(33.104649395844,39.671827343239,
    21.995935627977));
#636 = CARTESIAN_POINT('',(33.11218708664,39.751176878108,
    21.973215421866));
#637 = CARTESIAN_POINT('',(33.117380350411,39.833008568237,
    21.957784155627));
#638 = CARTESIAN_POINT('',(33.12,39.91629981328,21.95));
#639 = CARTESIAN_POINT('',(33.12,40.,21.95));
#640 = PCURVE('',#487,#641);
#641 = DEFINITIONAL_REPRESENTATION('',(#642),#693);
#642 = B_SPLINE_CURVE_WITH_KNOTS('',7,(#643,#644,#645,#646,#647,#648,
    #649,#650,#651,#652,#653,#654,#655,#656,#657,#658,#659,#660,#661,
    #662,#663,#664,#665,#666,#667,#668,#669,#670,#671,#672,#673,#674,
    #675,#676,#677,#678,#679,#680,#681,#682,#683,#684,#685,#686,#687,
    #688,#689,#690,#691,#692),.UNSPECIFIED.,.F.,.F.,(8,6,6,6,6,6,6,6,8),
  (0.,0.159029791677,0.228839821322,0.496675699684,0.498237595317,
    0.499799498723,0.771433206899,0.840858143162,1.),.UNSPECIFIED.);
#643 = CARTESIAN_POINT('',(0.,0.32));
#644 = CARTESIAN_POINT('',(7.965896367295E-02,0.32));
#645 = CARTESIAN_POINT('',(0.158932498443,0.31738399708));
#646 = CARTESIAN_POINT('',(0.237647455742,0.312197492838));
#647 = CARTESIAN_POINT('',(0.315617545244,0.304668903354));
#648 = CARTESIAN_POINT('',(0.392622806426,0.295197643154));
#649 = CARTESIAN_POINT('',(0.468375753747,0.284305251029));
#650 = CARTESIAN_POINT('',(0.575001524814,0.267389107645));
#651 = CARTESIAN_POINT('',(0.607279632203,0.26205125902));
#652 = CARTESIAN_POINT('',(0.639317875035,0.256574658408));
#653 = CARTESIAN_POINT('',(0.671124520742,0.250997762582));
#654 = CARTESIAN_POINT('',(0.702706813002,0.245358416214));
#655 = CARTESIAN_POINT('',(0.734071037971,0.239693429572));
#656 = CARTESIAN_POINT('',(0.884739850142,0.212340914227));
#657 = CARTESIAN_POINT('',(1.001211437351,0.190771275261));
#658 = CARTESIAN_POINT('',(1.115393092261,0.171243170536));
#659 = CARTESIAN_POINT('',(1.227892602147,0.155352742229));
#660 = CARTESIAN_POINT('',(1.339295184472,0.144220885415));
#661 = CARTESIAN_POINT('',(1.450177241482,0.138427121585));
#662 = CARTESIAN_POINT('',(1.561834377957,0.138024520772));
#663 = CARTESIAN_POINT('',(1.562481734902,0.138022370036));
#664 = CARTESIAN_POINT('',(1.563129090928,0.138020402741));
#665 = CARTESIAN_POINT('',(1.563776446128,0.138018618891));
#666 = CARTESIAN_POINT('',(1.564423800601,0.138017018491));
#667 = CARTESIAN_POINT('',(1.56507115444,0.138015601544));
#668 = CARTESIAN_POINT('',(1.566365864267,0.138013134557));
#669 = CARTESIAN_POINT('',(1.567013220254,0.138012084518));
#670 = CARTESIAN_POINT('',(1.5676605758,0.138011217941));
#671 = CARTESIAN_POINT('',(1.568307931001,0.138010534827));
#672 = CARTESIAN_POINT('',(1.568955285952,0.138010035178));
#673 = CARTESIAN_POINT('',(1.56960264075,0.138009718996));
#674 = CARTESIAN_POINT('',(1.682832737745,0.137986505355));
#675 = CARTESIAN_POINT('',(1.795247915579,0.143512482134));
#676 = CARTESIAN_POINT('',(1.908171650083,0.154559625963));
#677 = CARTESIAN_POINT('',(2.022202704411,0.170545420248));
#678 = CARTESIAN_POINT('',(2.137949075973,0.190311939789));
#679 = CARTESIAN_POINT('',(2.256041339489,0.212196400707));
#680 = CARTESIAN_POINT('',(2.408250363875,0.239824998329));
#681 = CARTESIAN_POINT('',(2.439444085317,0.245457895037));
#682 = CARTESIAN_POINT('',(2.470853588859,0.251064895886));
#683 = CARTESIAN_POINT('',(2.502485048812,0.256609787977));
#684 = CARTESIAN_POINT('',(2.534345577305,0.262055349766));
#685 = CARTESIAN_POINT('',(2.566443288397,0.267363762193));
#686 = CARTESIAN_POINT('',(2.672929251792,0.284263917913));
#687 = CARTESIAN_POINT('',(2.748725465981,0.295167551731));
#688 = CARTESIAN_POINT('',(2.825774743734,0.304649395844));
#689 = CARTESIAN_POINT('',(2.903790435084,0.31218708664));
#690 = CARTESIAN_POINT('',(2.982553393297,0.317380350411));
#691 = CARTESIAN_POINT('',(3.061878190047,0.32));
#692 = CARTESIAN_POINT('',(3.14159265359,0.32));
#693 = ( GEOMETRIC_REPRESENTATION_CONTEXT(2) 
PARAMETRIC_REPRESENTATION_CONTEXT() REPRESENTATION_CONTEXT('2D SPACE',''
  ) );
#694 = PCURVE('',#695,#700);
#695 = CYLINDRICAL_SURFACE('',#696,3.12);
#696 = AXIS2_PLACEMENT_3D('',#697,#698,#699);
#697 = CARTESIAN_POINT('',(30.,40.,12.7));
#698 = DIRECTION('',(0.,0.,1.));
#699 = DIRECTION('',(1.,0.,-0.));
#700 = DEFINITIONAL_REPRESENTATION('',(#701),#752);
#701 = B_SPLINE_CURVE_WITH_KNOTS('',7,(#702,#703,#704,#705,#706,#707,
    #708,#709,#710,#711,#712,#713,#714,#715,#716,#717,#718,#719,#720,
    #721,#722,#723,#724,#725,#726,#727,#728,#729,#730,#731,#732,#733,
    #734,#735,#736,#737,#738,#739,#740,#741,#742,#743,#744,#745,#746,
    #747,#748,#749,#750,#751),.UNSPECIFIED.,.F.,.F.,(8,6,6,6,6,6,6,6,8),
  (0.,0.159029791677,0.228839821322,0.496675699684,0.498237595317,
    0.499799498723,0.771433206899,0.840858143162,1.),.UNSPECIFIED.);
#702 = CARTESIAN_POINT('',(6.28318530718,11.35));
#703 = CARTESIAN_POINT('',(6.256377002097,11.35));
#704 = CARTESIAN_POINT('',(6.229698294602,11.342226679588));
#705 = CARTESIAN_POINT('',(6.203454452248,11.326815499548));
#706 = CARTESIAN_POINT('',(6.177942393392,11.304123234486));
#707 = CARTESIAN_POINT('',(6.153449952399,11.274725265328));
#708 = CARTESIAN_POINT('',(6.130245647712,11.239422180196));
#709 = CARTESIAN_POINT('',(6.09903904588,11.181623614319));
#710 = CARTESIAN_POINT('',(6.089791199835,11.163016634509));
#711 = CARTESIAN_POINT('',(6.080823618397,11.143490745398));
#712 = CARTESIAN_POINT('',(6.07214397912,11.123101077473));
#713 = CARTESIAN_POINT('',(6.063759409828,11.10190198346));
#714 = CARTESIAN_POINT('',(6.055676465058,11.079947131242));
#715 = CARTESIAN_POINT('',(6.018069843736,10.97036081766));
#716 = CARTESIAN_POINT('',(5.992744938581,10.873027065362));
#717 = CARTESIAN_POINT('',(5.972159092695,10.767923627334));
#718 = CARTESIAN_POINT('',(5.956489392454,10.657251750848));
#719 = CARTESIAN_POINT('',(5.945863110583,10.542920306117));
#720 = CARTESIAN_POINT('',(5.940344517857,10.426644502824));
#721 = CARTESIAN_POINT('',(5.939961070808,10.309409922383));
#722 = CARTESIAN_POINT('',(5.93995902241,10.30873022404));
#723 = CARTESIAN_POINT('',(5.939957148736,10.308050522195));
#724 = CARTESIAN_POINT('',(5.939955449788,10.307370817213));
#725 = CARTESIAN_POINT('',(5.939953925566,10.306691109459));
#726 = CARTESIAN_POINT('',(5.939952576071,10.306011399297));
#727 = CARTESIAN_POINT('',(5.939950226529,10.304651971505));
#728 = CARTESIAN_POINT('',(5.939949226484,10.303972253875));
#729 = CARTESIAN_POINT('',(5.939948401169,10.303292534567));
#730 = CARTESIAN_POINT('',(5.939947750583,10.302612813944));
#731 = CARTESIAN_POINT('',(5.939947274726,10.301933092373));
#732 = CARTESIAN_POINT('',(5.9399469736,10.301253370217));
#733 = CARTESIAN_POINT('',(5.939924865367,10.182361786116));
#734 = CARTESIAN_POINT('',(5.945187693623,10.064317300396));
#735 = CARTESIAN_POINT('',(5.955707495133,9.948178110911));
#736 = CARTESIAN_POINT('',(5.971419986744,9.835728498164));
#737 = CARTESIAN_POINT('',(5.992193390353,9.728954135056));
#738 = CARTESIAN_POINT('',(6.017842962649,9.630147302818));
#739 = CARTESIAN_POINT('',(6.055864693864,9.519544188366));
#740 = CARTESIAN_POINT('',(6.063908349582,9.497726039768));
#741 = CARTESIAN_POINT('',(6.072250193094,9.47665602449));
#742 = CARTESIAN_POINT('',(6.080883768935,9.456386942634));
#743 = CARTESIAN_POINT('',(6.089802060635,9.43697226108));
#744 = CARTESIAN_POINT('',(6.098997513673,9.418466203871));
#745 = CARTESIAN_POINT('',(6.130157508351,9.360711721495));
#746 = CARTESIAN_POINT('',(6.153372259977,9.32536822333));
#747 = CARTESIAN_POINT('',(6.177876890999,9.295935627977));
#748 = CARTESIAN_POINT('',(6.203402884402,9.273215421866));
#749 = CARTESIAN_POINT('',(6.229662366249,9.257784155627));
#750 = CARTESIAN_POINT('',(6.256358324256,9.25));
#751 = CARTESIAN_POINT('',(6.28318530718,9.25));
#752 = ( GEOMETRIC_REPRESENTATION_CONTEXT(2) 
PARAMETRIC_REPRESENTATION_CONTEXT() REPRESENTATION_CONTEXT('2D SPACE',''
  ) );
#753 = ORIENTED_EDGE('',*,*,#754,.T.);
#754 = EDGE_CURVE('',#586,#563,#755,.T.);
#755 = SURFACE_CURVE('',#756,(#807,#861),.PCURVE_S1.);
#756 = B_SPLINE_CURVE_WITH_KNOTS('',7,(#757,#758,#759,#760,#761,#762,
    #763,#764,#765,#766,#767,#768,#769,#770,#771,#772,#773,#774,#775,
    #776,#777,#778,#779,#780,#781,#782,#783,#784,#785,#786,#787,#788,
    #789,#790,#791,#792,#793,#794,#795,#796,#797,#798,#799,#800,#801,
    #802,#803,#804,#805,#806),.UNSPECIFIED.,.F.,.F.,(8,6,6,6,6,6,6,6,8),
  (0.,0.159029915081,0.228839998898,0.496729888917,0.498291784941,
    0.499853688499,0.771433384177,0.840858266593,1.),.UNSPECIFIED.);
#757 = CARTESIAN_POINT('',(33.12,40.,21.95));
#758 = CARTESIAN_POINT('',(33.12,40.083641911857,21.95));
#759 = CARTESIAN_POINT('',(33.11738399708,40.166879333733,
    21.957773320412));
#760 = CARTESIAN_POINT('',(33.112197492838,40.248662435288,
    21.973184500452));
#761 = CARTESIAN_POINT('',(33.104668903354,40.327969057885,
    21.995876765514));
#762 = CARTESIAN_POINT('',(33.095197643154,40.40384221891,
    22.025274734672));
#763 = CARTESIAN_POINT('',(33.084305251029,40.475435937612,
    22.060577819804));
#764 = CARTESIAN_POINT('',(33.067389107645,40.571319768269,
    22.118376385681));
#765 = CARTESIAN_POINT('',(33.06205125902,40.599676921412,
    22.136983365491));
#766 = CARTESIAN_POINT('',(33.056574658408,40.627117191683,
    22.156509254602));
#767 = CARTESIAN_POINT('',(33.050997762582,40.653619740038,
    22.176898922527));
#768 = CARTESIAN_POINT('',(33.045358416214,40.679166424379,
    22.19809801654));
#769 = CARTESIAN_POINT('',(33.039693429572,40.703741685325,
    22.220052868758));
#770 = CARTESIAN_POINT('',(33.012336555612,40.81785979113,
    22.329656644887));
#771 = CARTESIAN_POINT('',(32.990762601065,40.893953855383,
    22.427012073532));
#772 = CARTESIAN_POINT('',(32.971231380003,40.955187043241,
    22.532139817926));
#773 = CARTESIAN_POINT('',(32.955339943988,41.001425188474,
    22.642837371489));
#774 = CARTESIAN_POINT('',(32.944209682105,41.032649014828,
    22.757194797336));
#775 = CARTESIAN_POINT('',(32.938420134092,41.048851030985,
    22.873495920935));
#776 = CARTESIAN_POINT('',(32.938023999886,41.049959511668,
    22.990754142232));
#777 = CARTESIAN_POINT('',(32.938021887102,41.049965423703,
    22.991433841473));
#778 = CARTESIAN_POINT('',(32.93801995776,41.049970822386,
    22.992113544153));
#779 = CARTESIAN_POINT('',(32.938018211865,41.049975707718,
    22.992793249907));
#780 = CARTESIAN_POINT('',(32.938016649419,41.049980079699,
    22.993472958369));
#781 = CARTESIAN_POINT('',(32.938015270428,41.049983938326,
    22.994152669177));
#782 = CARTESIAN_POINT('',(32.938012879354,41.049990628892,
    22.995512098031));
#783 = CARTESIAN_POINT('',(32.938011867273,41.049993460825,
    22.996191816077));
#784 = CARTESIAN_POINT('',(32.938011038654,41.049995779401,
    22.996871535739));
#785 = CARTESIAN_POINT('',(32.938010393498,41.049997584618,
    22.997551256652));
#786 = CARTESIAN_POINT('',(32.938009931808,41.049998876476,
    22.998230978451));
#787 = CARTESIAN_POINT('',(32.938009653584,41.049999654976,
    22.998910700771));
#788 = CARTESIAN_POINT('',(32.937993082635,41.050046022222,
    23.11777878554));
#789 = CARTESIAN_POINT('',(32.94352344918,41.034571571577,
    23.235797992814));
#790 = CARTESIAN_POINT('',(32.9545723237,41.003658288672,23.35191117914)
  );
#791 = CARTESIAN_POINT('',(32.970557188907,40.95731281721,
    23.464335054586));
#792 = CARTESIAN_POINT('',(32.990320617556,40.895552939183,
    23.57108503966));
#793 = CARTESIAN_POINT('',(33.012200759107,40.818516689328,
    23.669870144777));
#794 = CARTESIAN_POINT('',(33.039824998329,40.703169313368,
    23.780455811634));
#795 = CARTESIAN_POINT('',(33.045457895037,40.678712465351,
    23.802273960232));
#796 = CARTESIAN_POINT('',(33.051064895886,40.653295182845,
    23.82334397551));
#797 = CARTESIAN_POINT('',(33.056609787977,40.626932805593,
    23.843613057366));
#798 = CARTESIAN_POINT('',(33.062055349766,40.599643201648,
    23.86302773892));
#799 = CARTESIAN_POINT('',(33.067363762193,40.571446878241,
    23.881533796129));
#800 = CARTESIAN_POINT('',(33.084263917913,40.475707887455,
    23.939288278505));
#801 = CARTESIAN_POINT('',(33.095167551731,40.40408288571,23.97463177667
    ));
#802 = CARTESIAN_POINT('',(33.104649395844,40.328172656761,
    24.004064372023));
#803 = CARTESIAN_POINT('',(33.11218708664,40.248823121892,
    24.026784578134));
#804 = CARTESIAN_POINT('',(33.117380350411,40.166991431763,
    24.042215844373));
#805 = CARTESIAN_POINT('',(33.12,40.08370018672,24.05));
#806 = CARTESIAN_POINT('',(33.12,40.,24.05));
#807 = PCURVE('',#487,#808);
#808 = DEFINITIONAL_REPRESENTATION('',(#809),#860);
#809 = B_SPLINE_CURVE_WITH_KNOTS('',7,(#810,#811,#812,#813,#814,#815,
    #816,#817,#818,#819,#820,#821,#822,#823,#824,#825,#826,#827,#828,
    #829,#830,#831,#832,#833,#834,#835,#836,#837,#838,#839,#840,#841,
    #842,#843,#844,#845,#846,#847,#848,#849,#850,#851,#852,#853,#854,
    #855,#856,#857,#858,#859),.UNSPECIFIED.,.F.,.F.,(8,6,6,6,6,6,6,6,8),
  (0.,0.159029915081,0.228839998898,0.496729888917,0.498291784941,
    0.499853688499,0.771433384177,0.840858266593,1.),.UNSPECIFIED.);
#810 = CARTESIAN_POINT('',(3.14159265359,0.32));
#811 = CARTESIAN_POINT('',(3.221251617263,0.32));
#812 = CARTESIAN_POINT('',(3.300525152033,0.31738399708));
#813 = CARTESIAN_POINT('',(3.379240109332,0.312197492838));
#814 = CARTESIAN_POINT('',(3.457210198834,0.304668903354));
#815 = CARTESIAN_POINT('',(3.534215460015,0.295197643154));
#816 = CARTESIAN_POINT('',(3.609968407337,0.284305251029));
#817 = CARTESIAN_POINT('',(3.716594178404,0.267389107645));
#818 = CARTESIAN_POINT('',(3.748872285793,0.26205125902));
#819 = CARTESIAN_POINT('',(3.780910528625,0.256574658408));
#820 = CARTESIAN_POINT('',(3.812717174332,0.250997762582));
#821 = CARTESIAN_POINT('',(3.844299466592,0.245358416214));
#822 = CARTESIAN_POINT('',(3.875663691561,0.239693429572));
#823 = CARTESIAN_POINT('',(4.026356512763,0.212336555612));
#824 = CARTESIAN_POINT('',(4.142850930764,0.190762601065));
#825 = CARTESIAN_POINT('',(4.257054675457,0.171231380003));
#826 = CARTESIAN_POINT('',(4.36957584985,0.155339943988));
#827 = CARTESIAN_POINT('',(4.480999987767,0.144209682105));
#828 = CARTESIAN_POINT('',(4.591903803412,0.138420134092));
#829 = CARTESIAN_POINT('',(4.703583289695,0.138023999886));
#830 = CARTESIAN_POINT('',(4.704230646608,0.138021887102));
#831 = CARTESIAN_POINT('',(4.704878002616,0.13801995776));
#832 = CARTESIAN_POINT('',(4.705525357817,0.138018211865));
#833 = CARTESIAN_POINT('',(4.706172712306,0.138016649419));
#834 = CARTESIAN_POINT('',(4.706820066178,0.138015270428));
#835 = CARTESIAN_POINT('',(4.708114776005,0.138012879354));
#836 = CARTESIAN_POINT('',(4.708762131959,0.138011867273));
#837 = CARTESIAN_POINT('',(4.709409487489,0.138011038654));
#838 = CARTESIAN_POINT('',(4.71005684269,0.138010393498));
#839 = CARTESIAN_POINT('',(4.710704197658,0.138009931808));
#840 = CARTESIAN_POINT('',(4.711351552488,0.138009653584));
#841 = CARTESIAN_POINT('',(4.824559260881,0.137993082635));
#842 = CARTESIAN_POINT('',(4.936952668802,0.14352344918));
#843 = CARTESIAN_POINT('',(5.049854853121,0.1545723237));
#844 = CARTESIAN_POINT('',(5.163864258138,0.170557188907));
#845 = CARTESIAN_POINT('',(5.279588557511,0.190320617556));
#846 = CARTESIAN_POINT('',(5.397658003989,0.212200759107));
#847 = CARTESIAN_POINT('',(5.549843017464,0.239824998329));
#848 = CARTESIAN_POINT('',(5.581036738907,0.245457895037));
#849 = CARTESIAN_POINT('',(5.612446242449,0.251064895886));
#850 = CARTESIAN_POINT('',(5.644077702401,0.256609787977));
#851 = CARTESIAN_POINT('',(5.675938230895,0.262055349766));
#852 = CARTESIAN_POINT('',(5.708035941987,0.267363762193));
#853 = CARTESIAN_POINT('',(5.814521905382,0.284263917913));
#854 = CARTESIAN_POINT('',(5.89031811957,0.295167551731));
#855 = CARTESIAN_POINT('',(5.967367397324,0.304649395844));
#856 = CARTESIAN_POINT('',(6.045383088674,0.31218708664));
#857 = CARTESIAN_POINT('',(6.124146046886,0.317380350411));
#858 = CARTESIAN_POINT('',(6.203470843637,0.32));
#859 = CARTESIAN_POINT('',(6.28318530718,0.32));
#860 = ( GEOMETRIC_REPRESENTATION_CONTEXT(2) 
PARAMETRIC_REPRESENTATION_CONTEXT() REPRESENTATION_CONTEXT('2D SPACE',''
  ) );
#861 = PCURVE('',#862,#867);
#862 = CYLINDRICAL_SURFACE('',#863,3.12);
#863 = AXIS2_PLACEMENT_3D('',#864,#865,#866);
#864 = CARTESIAN_POINT('',(30.,40.,12.7));
#865 = DIRECTION('',(0.,0.,1.));
#866 = DIRECTION('',(1.,0.,-0.));
#867 = DEFINITIONAL_REPRESENTATION('',(#868),#919);
#868 = B_SPLINE_CURVE_WITH_KNOTS('',7,(#869,#870,#871,#872,#873,#874,
    #875,#876,#877,#878,#879,#880,#881,#882,#883,#884,#885,#886,#887,
    #888,#889,#890,#891,#892,#893,#894,#895,#896,#897,#898,#899,#900,
    #901,#902,#903,#904,#905,#906,#907,#908,#909,#910,#911,#912,#913,
    #914,#915,#916,#917,#918),.UNSPECIFIED.,.F.,.F.,(8,6,6,6,6,6,6,6,8),
  (0.,0.159029915081,0.228839998898,0.496729888917,0.498291784941,
    0.499853688499,0.771433384177,0.840858266593,1.),.UNSPECIFIED.);
#869 = CARTESIAN_POINT('',(0.,9.25));
#870 = CARTESIAN_POINT('',(2.680830508225E-02,9.25));
#871 = CARTESIAN_POINT('',(5.348701257799E-02,9.257773320412));
#872 = CARTESIAN_POINT('',(7.973085493204E-02,9.273184500452));
#873 = CARTESIAN_POINT('',(0.105242913787,9.295876765514));
#874 = CARTESIAN_POINT('',(0.12973535478,9.325274734672));
#875 = CARTESIAN_POINT('',(0.152939659467,9.360577819804));
#876 = CARTESIAN_POINT('',(0.1841462613,9.418376385681));
#877 = CARTESIAN_POINT('',(0.193394107344,9.436983365491));
#878 = CARTESIAN_POINT('',(0.202361688782,9.456509254602));
#879 = CARTESIAN_POINT('',(0.21104132806,9.476898922527));
#880 = CARTESIAN_POINT('',(0.219425897352,9.498098016539));
#881 = CARTESIAN_POINT('',(0.227508842122,9.520052868758));
#882 = CARTESIAN_POINT('',(0.265121456047,9.629656644887));
#883 = CARTESIAN_POINT('',(0.290450554463,9.727012073532));
#884 = CARTESIAN_POINT('',(0.311038644453,9.832139817926));
#885 = CARTESIAN_POINT('',(0.326708534392,9.942837371489));
#886 = CARTESIAN_POINT('',(0.337332890834,10.057194797336));
#887 = CARTESIAN_POINT('',(0.342847444944,10.173495920935));
#888 = CARTESIAN_POINT('',(0.343224732473,10.290754142232));
#889 = CARTESIAN_POINT('',(0.343226744722,10.291433841473));
#890 = CARTESIAN_POINT('',(0.343228582246,10.292113544153));
#891 = CARTESIAN_POINT('',(0.343230245044,10.292793249907));
#892 = CARTESIAN_POINT('',(0.343231733116,10.293472958369));
#893 = CARTESIAN_POINT('',(0.343233046461,10.294152669177));
#894 = CARTESIAN_POINT('',(0.343235323702,10.295512098031));
#895 = CARTESIAN_POINT('',(0.343236287596,10.296191816077));
#896 = CARTESIAN_POINT('',(0.343237076761,10.296871535739));
#897 = CARTESIAN_POINT('',(0.343237691197,10.297551256652));
#898 = CARTESIAN_POINT('',(0.343238130902,10.298230978451));
#899 = CARTESIAN_POINT('',(0.343238395877,10.298910700771));
#900 = CARTESIAN_POINT('',(0.343254177734,10.41777878554));
#901 = CARTESIAN_POINT('',(0.337987169868,10.535797992814));
#902 = CARTESIAN_POINT('',(0.327465331588,10.65191117914));
#903 = CARTESIAN_POINT('',(0.311752950816,10.764335054586));
#904 = CARTESIAN_POINT('',(0.290981744152,10.87108503966));
#905 = CARTESIAN_POINT('',(0.265336346618,10.969870144777));
#906 = CARTESIAN_POINT('',(0.227320613316,11.080455811634));
#907 = CARTESIAN_POINT('',(0.219276957597,11.102273960232));
#908 = CARTESIAN_POINT('',(0.210935114086,11.12334397551));
#909 = CARTESIAN_POINT('',(0.202301538245,11.143613057366));
#910 = CARTESIAN_POINT('',(0.193383246545,11.16302773892));
#911 = CARTESIAN_POINT('',(0.184187793507,11.181533796129));
#912 = CARTESIAN_POINT('',(0.153027798829,11.239288278505));
#913 = CARTESIAN_POINT('',(0.129813047203,11.27463177667));
#914 = CARTESIAN_POINT('',(0.105308416181,11.304064372023));
#915 = CARTESIAN_POINT('',(7.978242277756E-02,11.326784578134));
#916 = CARTESIAN_POINT('',(5.352294093101E-02,11.342215844373));
#917 = CARTESIAN_POINT('',(2.682698292309E-02,11.35));
#918 = CARTESIAN_POINT('',(0.,11.35));
#919 = ( GEOMETRIC_REPRESENTATION_CONTEXT(2) 
PARAMETRIC_REPRESENTATION_CONTEXT() REPRESENTATION_CONTEXT('2D SPACE',''
  ) );
#920 = ORIENTED_EDGE('',*,*,#562,.T.);
#921 = ADVANCED_FACE('',(#922,#925),#541,.F.);
#922 = FACE_BOUND('',#923,.F.);
#923 = EDGE_LOOP('',(#924));
#924 = ORIENTED_EDGE('',*,*,#526,.T.);
#925 = FACE_BOUND('',#926,.F.);
#926 = EDGE_LOOP('',(#927));
#927 = ORIENTED_EDGE('',*,*,#928,.F.);
#928 = EDGE_CURVE('',#929,#929,#931,.T.);
#929 = VERTEX_POINT('',#930);
#930 = CARTESIAN_POINT('',(33.7,40.,12.8));
#931 = SURFACE_CURVE('',#932,(#937,#944),.PCURVE_S1.);
#932 = CIRCLE('',#933,3.7);
#933 = AXIS2_PLACEMENT_3D('',#934,#935,#936);
#934 = CARTESIAN_POINT('',(30.,40.,12.8));
#935 = DIRECTION('',(0.,0.,1.));
#936 = DIRECTION('',(1.,0.,-0.));
#937 = PCURVE('',#541,#938);
#938 = DEFINITIONAL_REPRESENTATION('',(#939),#943);
#939 = CIRCLE('',#940,3.7);
#940 = AXIS2_PLACEMENT_2D('',#941,#942);
#941 = CARTESIAN_POINT('',(0.,0.));
#942 = DIRECTION('',(1.,0.));
#943 = ( GEOMETRIC_REPRESENTATION_CONTEXT(2) 
PARAMETRIC_REPRESENTATION_CONTEXT() REPRESENTATION_CONTEXT('2D SPACE',''
  ) );
#944 = PCURVE('',#945,#950);
#945 = CYLINDRICAL_SURFACE('',#946,3.7);
#946 = AXIS2_PLACEMENT_3D('',#947,#948,#949);
#947 = CARTESIAN_POINT('',(30.,40.,12.7));
#948 = DIRECTION('',(0.,0.,1.));
#949 = DIRECTION('',(1.,0.,-0.));
#950 = DEFINITIONAL_REPRESENTATION('',(#951),#955);
#951 = LINE('',#952,#953);
#952 = CARTESIAN_POINT('',(0.,0.1));
#953 = VECTOR('',#954,1.);
#954 = DIRECTION('',(1.,0.));
#955 = ( GEOMETRIC_REPRESENTATION_CONTEXT(2) 
PARAMETRIC_REPRESENTATION_CONTEXT() REPRESENTATION_CONTEXT('2D SPACE',''
  ) );
#956 = ADVANCED_FACE('',(#957),#862,.F.);
#957 = FACE_BOUND('',#958,.F.);
#958 = EDGE_LOOP('',(#959,#990,#1011,#1012,#1035,#1064));
#959 = ORIENTED_EDGE('',*,*,#960,.F.);
#960 = EDGE_CURVE('',#961,#963,#965,.T.);
#961 = VERTEX_POINT('',#962);
#962 = CARTESIAN_POINT('',(33.12,40.,26.35));
#963 = VERTEX_POINT('',#964);
#964 = CARTESIAN_POINT('',(32.666458325195,41.62,26.35));
#965 = SURFACE_CURVE('',#966,(#971,#978),.PCURVE_S1.);
#966 = CIRCLE('',#967,3.12);
#967 = AXIS2_PLACEMENT_3D('',#968,#969,#970);
#968 = CARTESIAN_POINT('',(30.,40.,26.35));
#969 = DIRECTION('',(0.,0.,1.));
#970 = DIRECTION('',(1.,0.,-0.));
#971 = PCURVE('',#862,#972);
#972 = DEFINITIONAL_REPRESENTATION('',(#973),#977);
#973 = LINE('',#974,#975);
#974 = CARTESIAN_POINT('',(0.,13.65));
#975 = VECTOR('',#976,1.);
#976 = DIRECTION('',(1.,0.));
#977 = ( GEOMETRIC_REPRESENTATION_CONTEXT(2) 
PARAMETRIC_REPRESENTATION_CONTEXT() REPRESENTATION_CONTEXT('2D SPACE',''
  ) );
#978 = PCURVE('',#979,#984);
#979 = PLANE('',#980);
#980 = AXIS2_PLACEMENT_3D('',#981,#982,#983);
#981 = CARTESIAN_POINT('',(30.,40.,26.35));
#982 = DIRECTION('',(0.,0.,1.));
#983 = DIRECTION('',(1.,0.,-0.));
#984 = DEFINITIONAL_REPRESENTATION('',(#985),#989);
#985 = CIRCLE('',#986,3.12);
#986 = AXIS2_PLACEMENT_2D('',#987,#988);
#987 = CARTESIAN_POINT('',(0.,0.));
#988 = DIRECTION('',(1.,0.));
#989 = ( GEOMETRIC_REPRESENTATION_CONTEXT(2) 
PARAMETRIC_REPRESENTATION_CONTEXT() REPRESENTATION_CONTEXT('2D SPACE',''
  ) );
#990 = ORIENTED_EDGE('',*,*,#991,.F.);
#991 = EDGE_CURVE('',#563,#961,#992,.T.);
#992 = SURFACE_CURVE('',#993,(#997,#1004),.PCURVE_S1.);
#993 = LINE('',#994,#995);
#994 = CARTESIAN_POINT('',(33.12,40.,12.7));
#995 = VECTOR('',#996,1.);
#996 = DIRECTION('',(0.,0.,1.));
#997 = PCURVE('',#862,#998);
#998 = DEFINITIONAL_REPRESENTATION('',(#999),#1003);
#999 = LINE('',#1000,#1001);
#1000 = CARTESIAN_POINT('',(0.,-0.));
#1001 = VECTOR('',#1002,1.);
#1002 = DIRECTION('',(0.,1.));
#1003 = ( GEOMETRIC_REPRESENTATION_CONTEXT(2) 
PARAMETRIC_REPRESENTATION_CONTEXT() REPRESENTATION_CONTEXT('2D SPACE',''
  ) );
#1004 = PCURVE('',#695,#1005);
#1005 = DEFINITIONAL_REPRESENTATION('',(#1006),#1010);
#1006 = LINE('',#1007,#1008);
#1007 = CARTESIAN_POINT('',(6.28318530718,-0.));
#1008 = VECTOR('',#1009,1.);
#1009 = DIRECTION('',(0.,1.));
#1010 = ( GEOMETRIC_REPRESENTATION_CONTEXT(2) 
PARAMETRIC_REPRESENTATION_CONTEXT() REPRESENTATION_CONTEXT('2D SPACE',''
  ) );
#1011 = ORIENTED_EDGE('',*,*,#754,.F.);
#1012 = ORIENTED_EDGE('',*,*,#1013,.F.);
#1013 = EDGE_CURVE('',#1014,#586,#1016,.T.);
#1014 = VERTEX_POINT('',#1015);
#1015 = CARTESIAN_POINT('',(33.12,40.,16.3));
#1016 = SURFACE_CURVE('',#1017,(#1021,#1028),.PCURVE_S1.);
#1017 = LINE('',#1018,#1019);
#1018 = CARTESIAN_POINT('',(33.12,40.,12.7));
#1019 = VECTOR('',#1020,1.);
#1020 = DIRECTION('',(0.,0.,1.));
#1021 = PCURVE('',#862,#1022);
#1022 = DEFINITIONAL_REPRESENTATION('',(#1023),#1027);
#1023 = LINE('',#1024,#1025);
#1024 = CARTESIAN_POINT('',(0.,-0.));
#1025 = VECTOR('',#1026,1.);
#1026 = DIRECTION('',(0.,1.));
#1027 = ( GEOMETRIC_REPRESENTATION_CONTEXT(2) 
PARAMETRIC_REPRESENTATION_CONTEXT() REPRESENTATION_CONTEXT('2D SPACE',''
  ) );
#1028 = PCURVE('',#695,#1029);
#1029 = DEFINITIONAL_REPRESENTATION('',(#1030),#1034);
#1030 = LINE('',#1031,#1032);
#1031 = CARTESIAN_POINT('',(6.28318530718,-0.));
#1032 = VECTOR('',#1033,1.);
#1033 = DIRECTION('',(0.,1.));
#1034 = ( GEOMETRIC_REPRESENTATION_CONTEXT(2) 
PARAMETRIC_REPRESENTATION_CONTEXT() REPRESENTATION_CONTEXT('2D SPACE',''
  ) );
#1035 = ORIENTED_EDGE('',*,*,#1036,.T.);
#1036 = EDGE_CURVE('',#1014,#1037,#1039,.T.);
#1037 = VERTEX_POINT('',#1038);
#1038 = CARTESIAN_POINT('',(32.666458325195,41.62,16.3));
#1039 = SURFACE_CURVE('',#1040,(#1045,#1052),.PCURVE_S1.);
#1040 = CIRCLE('',#1041,3.12);
#1041 = AXIS2_PLACEMENT_3D('',#1042,#1043,#1044);
#1042 = CARTESIAN_POINT('',(30.,40.,16.3));
#1043 = DIRECTION('',(0.,0.,1.));
#1044 = DIRECTION('',(1.,0.,-0.));
#1045 = PCURVE('',#862,#1046);
#1046 = DEFINITIONAL_REPRESENTATION('',(#1047),#1051);
#1047 = LINE('',#1048,#1049);
#1048 = CARTESIAN_POINT('',(0.,3.6));
#1049 = VECTOR('',#1050,1.);
#1050 = DIRECTION('',(1.,0.));
#1051 = ( GEOMETRIC_REPRESENTATION_CONTEXT(2) 
PARAMETRIC_REPRESENTATION_CONTEXT() REPRESENTATION_CONTEXT('2D SPACE',''
  ) );
#1052 = PCURVE('',#1053,#1058);
#1053 = PLANE('',#1054);
#1054 = AXIS2_PLACEMENT_3D('',#1055,#1056,#1057);
#1055 = CARTESIAN_POINT('',(30.,40.,16.3));
#1056 = DIRECTION('',(0.,0.,1.));
#1057 = DIRECTION('',(1.,0.,-0.));
#1058 = DEFINITIONAL_REPRESENTATION('',(#1059),#1063);
#1059 = CIRCLE('',#1060,3.12);
#1060 = AXIS2_PLACEMENT_2D('',#1061,#1062);
#1061 = CARTESIAN_POINT('',(0.,0.));
#1062 = DIRECTION('',(1.,0.));
#1063 = ( GEOMETRIC_REPRESENTATION_CONTEXT(2) 
PARAMETRIC_REPRESENTATION_CONTEXT() REPRESENTATION_CONTEXT('2D SPACE',''
  ) );
#1064 = ORIENTED_EDGE('',*,*,#1065,.T.);
#1065 = EDGE_CURVE('',#1037,#963,#1066,.T.);
#1066 = SURFACE_CURVE('',#1067,(#1071,#1077),.PCURVE_S1.);
#1067 = LINE('',#1068,#1069);
#1068 = CARTESIAN_POINT('',(32.666458325195,41.62,12.7));
#1069 = VECTOR('',#1070,1.);
#1070 = DIRECTION('',(0.,0.,1.));
#1071 = PCURVE('',#862,#1072);
#1072 = DEFINITIONAL_REPRESENTATION('',(#1073),#1076);
#1073 = B_SPLINE_CURVE_WITH_KNOTS('',1,(#1074,#1075),.UNSPECIFIED.,.F.,
  .F.,(2,2),(-5.999999999062E-07,13.6500006),.PIECEWISE_BEZIER_KNOTS.);
#1074 = CARTESIAN_POINT('',(0.545950634024,-5.999999999062E-07));
#1075 = CARTESIAN_POINT('',(0.545950634024,13.6500006));
#1076 = ( GEOMETRIC_REPRESENTATION_CONTEXT(2) 
PARAMETRIC_REPRESENTATION_CONTEXT() REPRESENTATION_CONTEXT('2D SPACE',''
  ) );
#1077 = PCURVE('',#1078,#1083);
#1078 = PLANE('',#1079);
#1079 = AXIS2_PLACEMENT_3D('',#1080,#1081,#1082);
#1080 = CARTESIAN_POINT('',(26.,41.62,12.));
#1081 = DIRECTION('',(0.,1.,0.));
#1082 = DIRECTION('',(0.,0.,1.));
#1083 = DEFINITIONAL_REPRESENTATION('',(#1084),#1087);
#1084 = B_SPLINE_CURVE_WITH_KNOTS('',1,(#1085,#1086),.UNSPECIFIED.,.F.,
  .F.,(2,2),(-5.999999999062E-07,13.6500006),.PIECEWISE_BEZIER_KNOTS.);
#1085 = CARTESIAN_POINT('',(0.6999994,6.666458325195));
#1086 = CARTESIAN_POINT('',(14.3500006,6.666458325195));
#1087 = ( GEOMETRIC_REPRESENTATION_CONTEXT(2) 
PARAMETRIC_REPRESENTATION_CONTEXT() REPRESENTATION_CONTEXT('2D SPACE',''
  ) );
#1088 = ADVANCED_FACE('',(#1089),#695,.F.);
#1089 = FACE_BOUND('',#1090,.F.);
#1090 = EDGE_LOOP('',(#1091,#1114,#1136,#1137,#1138,#1139));
#1091 = ORIENTED_EDGE('',*,*,#1092,.F.);
#1092 = EDGE_CURVE('',#1093,#1095,#1097,.T.);
#1093 = VERTEX_POINT('',#1094);
#1094 = CARTESIAN_POINT('',(27.333541674805,41.62,16.3));
#1095 = VERTEX_POINT('',#1096);
#1096 = CARTESIAN_POINT('',(27.333541674805,41.62,26.35));
#1097 = SURFACE_CURVE('',#1098,(#1102,#1108),.PCURVE_S1.);
#1098 = LINE('',#1099,#1100);
#1099 = CARTESIAN_POINT('',(27.333541674805,41.62,12.7));
#1100 = VECTOR('',#1101,1.);
#1101 = DIRECTION('',(0.,0.,1.));
#1102 = PCURVE('',#695,#1103);
#1103 = DEFINITIONAL_REPRESENTATION('',(#1104),#1107);
#1104 = B_SPLINE_CURVE_WITH_KNOTS('',1,(#1105,#1106),.UNSPECIFIED.,.F.,
  .F.,(2,2),(-5.999999999062E-07,13.6500006),.PIECEWISE_BEZIER_KNOTS.);
#1105 = CARTESIAN_POINT('',(2.595642019566,-5.999999999062E-07));
#1106 = CARTESIAN_POINT('',(2.595642019566,13.6500006));
#1107 = ( GEOMETRIC_REPRESENTATION_CONTEXT(2) 
PARAMETRIC_REPRESENTATION_CONTEXT() REPRESENTATION_CONTEXT('2D SPACE',''
  ) );
#1108 = PCURVE('',#1078,#1109);
#1109 = DEFINITIONAL_REPRESENTATION('',(#1110),#1113);
#1110 = B_SPLINE_CURVE_WITH_KNOTS('',1,(#1111,#1112),.UNSPECIFIED.,.F.,
  .F.,(2,2),(-5.999999999062E-07,13.6500006),.PIECEWISE_BEZIER_KNOTS.);
#1111 = CARTESIAN_POINT('',(0.6999994,1.333541674805));
#1112 = CARTESIAN_POINT('',(14.3500006,1.333541674805));
#1113 = ( GEOMETRIC_REPRESENTATION_CONTEXT(2) 
PARAMETRIC_REPRESENTATION_CONTEXT() REPRESENTATION_CONTEXT('2D SPACE',''
  ) );
#1114 = ORIENTED_EDGE('',*,*,#1115,.T.);
#1115 = EDGE_CURVE('',#1093,#1014,#1116,.T.);
#1116 = SURFACE_CURVE('',#1117,(#1122,#1129),.PCURVE_S1.);
#1117 = CIRCLE('',#1118,3.12);
#1118 = AXIS2_PLACEMENT_3D('',#1119,#1120,#1121);
#1119 = CARTESIAN_POINT('',(30.,40.,16.3));
#1120 = DIRECTION('',(0.,0.,1.));
#1121 = DIRECTION('',(1.,0.,-0.));
#1122 = PCURVE('',#695,#1123);
#1123 = DEFINITIONAL_REPRESENTATION('',(#1124),#1128);
#1124 = LINE('',#1125,#1126);
#1125 = CARTESIAN_POINT('',(0.,3.6));
#1126 = VECTOR('',#1127,1.);
#1127 = DIRECTION('',(1.,0.));
#1128 = ( GEOMETRIC_REPRESENTATION_CONTEXT(2) 
PARAMETRIC_REPRESENTATION_CONTEXT() REPRESENTATION_CONTEXT('2D SPACE',''
  ) );
#1129 = PCURVE('',#1053,#1130);
#1130 = DEFINITIONAL_REPRESENTATION('',(#1131),#1135);
#1131 = CIRCLE('',#1132,3.12);
#1132 = AXIS2_PLACEMENT_2D('',#1133,#1134);
#1133 = CARTESIAN_POINT('',(0.,0.));
#1134 = DIRECTION('',(1.,0.));
#1135 = ( GEOMETRIC_REPRESENTATION_CONTEXT(2) 
PARAMETRIC_REPRESENTATION_CONTEXT() REPRESENTATION_CONTEXT('2D SPACE',''
  ) );
#1136 = ORIENTED_EDGE('',*,*,#1013,.T.);
#1137 = ORIENTED_EDGE('',*,*,#585,.F.);
#1138 = ORIENTED_EDGE('',*,*,#991,.T.);
#1139 = ORIENTED_EDGE('',*,*,#1140,.F.);
#1140 = EDGE_CURVE('',#1095,#961,#1141,.T.);
#1141 = SURFACE_CURVE('',#1142,(#1147,#1154),.PCURVE_S1.);
#1142 = CIRCLE('',#1143,3.12);
#1143 = AXIS2_PLACEMENT_3D('',#1144,#1145,#1146);
#1144 = CARTESIAN_POINT('',(30.,40.,26.35));
#1145 = DIRECTION('',(0.,0.,1.));
#1146 = DIRECTION('',(1.,0.,-0.));
#1147 = PCURVE('',#695,#1148);
#1148 = DEFINITIONAL_REPRESENTATION('',(#1149),#1153);
#1149 = LINE('',#1150,#1151);
#1150 = CARTESIAN_POINT('',(0.,13.65));
#1151 = VECTOR('',#1152,1.);
#1152 = DIRECTION('',(1.,0.));
#1153 = ( GEOMETRIC_REPRESENTATION_CONTEXT(2) 
PARAMETRIC_REPRESENTATION_CONTEXT() REPRESENTATION_CONTEXT('2D SPACE',''
  ) );
#1154 = PCURVE('',#979,#1155);
#1155 = DEFINITIONAL_REPRESENTATION('',(#1156),#1160);
#1156 = CIRCLE('',#1157,3.12);
#1157 = AXIS2_PLACEMENT_2D('',#1158,#1159);
#1158 = CARTESIAN_POINT('',(0.,0.));
#1159 = DIRECTION('',(1.,0.));
#1160 = ( GEOMETRIC_REPRESENTATION_CONTEXT(2) 
PARAMETRIC_REPRESENTATION_CONTEXT() REPRESENTATION_CONTEXT('2D SPACE',''
  ) );
#1161 = ADVANCED_FACE('',(#1162),#945,.F.);
#1162 = FACE_BOUND('',#1163,.F.);
#1163 = EDGE_LOOP('',(#1164,#1187,#1209,#1210));
#1164 = ORIENTED_EDGE('',*,*,#1165,.T.);
#1165 = EDGE_CURVE('',#929,#1166,#1168,.T.);
#1166 = VERTEX_POINT('',#1167);
#1167 = CARTESIAN_POINT('',(33.7,40.,16.3));
#1168 = SEAM_CURVE('',#1169,(#1173,#1180),.PCURVE_S1.);
#1169 = LINE('',#1170,#1171);
#1170 = CARTESIAN_POINT('',(33.7,40.,12.7));
#1171 = VECTOR('',#1172,1.);
#1172 = DIRECTION('',(0.,0.,1.));
#1173 = PCURVE('',#945,#1174);
#1174 = DEFINITIONAL_REPRESENTATION('',(#1175),#1179);
#1175 = LINE('',#1176,#1177);
#1176 = CARTESIAN_POINT('',(6.28318530718,-0.));
#1177 = VECTOR('',#1178,1.);
#1178 = DIRECTION('',(0.,1.));
#1179 = ( GEOMETRIC_REPRESENTATION_CONTEXT(2) 
PARAMETRIC_REPRESENTATION_CONTEXT() REPRESENTATION_CONTEXT('2D SPACE',''
  ) );
#1180 = PCURVE('',#945,#1181);
#1181 = DEFINITIONAL_REPRESENTATION('',(#1182),#1186);
#1182 = LINE('',#1183,#1184);
#1183 = CARTESIAN_POINT('',(0.,-0.));
#1184 = VECTOR('',#1185,1.);
#1185 = DIRECTION('',(0.,1.));
#1186 = ( GEOMETRIC_REPRESENTATION_CONTEXT(2) 
PARAMETRIC_REPRESENTATION_CONTEXT() REPRESENTATION_CONTEXT('2D SPACE',''
  ) );
#1187 = ORIENTED_EDGE('',*,*,#1188,.F.);
#1188 = EDGE_CURVE('',#1166,#1166,#1189,.T.);
#1189 = SURFACE_CURVE('',#1190,(#1195,#1202),.PCURVE_S1.);
#1190 = CIRCLE('',#1191,3.7);
#1191 = AXIS2_PLACEMENT_3D('',#1192,#1193,#1194);
#1192 = CARTESIAN_POINT('',(30.,40.,16.3));
#1193 = DIRECTION('',(0.,0.,1.));
#1194 = DIRECTION('',(1.,0.,-0.));
#1195 = PCURVE('',#945,#1196);
#1196 = DEFINITIONAL_REPRESENTATION('',(#1197),#1201);
#1197 = LINE('',#1198,#1199);
#1198 = CARTESIAN_POINT('',(0.,3.6));
#1199 = VECTOR('',#1200,1.);
#1200 = DIRECTION('',(1.,0.));
#1201 = ( GEOMETRIC_REPRESENTATION_CONTEXT(2) 
PARAMETRIC_REPRESENTATION_CONTEXT() REPRESENTATION_CONTEXT('2D SPACE',''
  ) );
#1202 = PCURVE('',#1053,#1203);
#1203 = DEFINITIONAL_REPRESENTATION('',(#1204),#1208);
#1204 = CIRCLE('',#1205,3.7);
#1205 = AXIS2_PLACEMENT_2D('',#1206,#1207);
#1206 = CARTESIAN_POINT('',(0.,0.));
#1207 = DIRECTION('',(1.,0.));
#1208 = ( GEOMETRIC_REPRESENTATION_CONTEXT(2) 
PARAMETRIC_REPRESENTATION_CONTEXT() REPRESENTATION_CONTEXT('2D SPACE',''
  ) );
#1209 = ORIENTED_EDGE('',*,*,#1165,.F.);
#1210 = ORIENTED_EDGE('',*,*,#928,.T.);
#1211 = ADVANCED_FACE('',(#1212),#979,.F.);
#1212 = FACE_BOUND('',#1213,.F.);
#1213 = EDGE_LOOP('',(#1214,#1215,#1216));
#1214 = ORIENTED_EDGE('',*,*,#1140,.T.);
#1215 = ORIENTED_EDGE('',*,*,#960,.T.);
#1216 = ORIENTED_EDGE('',*,*,#1217,.T.);
#1217 = EDGE_CURVE('',#963,#1095,#1218,.T.);
#1218 = SURFACE_CURVE('',#1219,(#1223,#1229),.PCURVE_S1.);
#1219 = LINE('',#1220,#1221);
#1220 = CARTESIAN_POINT('',(28.,41.62,26.35));
#1221 = VECTOR('',#1222,1.);
#1222 = DIRECTION('',(-1.,0.,0.));
#1223 = PCURVE('',#979,#1224);
#1224 = DEFINITIONAL_REPRESENTATION('',(#1225),#1228);
#1225 = B_SPLINE_CURVE_WITH_KNOTS('',1,(#1226,#1227),.UNSPECIFIED.,.F.,
  .F.,(2,2),(-5.12,1.12),.PIECEWISE_BEZIER_KNOTS.);
#1226 = CARTESIAN_POINT('',(3.12,1.62));
#1227 = CARTESIAN_POINT('',(-3.12,1.62));
#1228 = ( GEOMETRIC_REPRESENTATION_CONTEXT(2) 
PARAMETRIC_REPRESENTATION_CONTEXT() REPRESENTATION_CONTEXT('2D SPACE',''
  ) );
#1229 = PCURVE('',#1078,#1230);
#1230 = DEFINITIONAL_REPRESENTATION('',(#1231),#1234);
#1231 = B_SPLINE_CURVE_WITH_KNOTS('',1,(#1232,#1233),.UNSPECIFIED.,.F.,
  .F.,(2,2),(-5.12,1.12),.PIECEWISE_BEZIER_KNOTS.);
#1232 = CARTESIAN_POINT('',(14.35,7.12));
#1233 = CARTESIAN_POINT('',(14.35,0.88));
#1234 = ( GEOMETRIC_REPRESENTATION_CONTEXT(2) 
PARAMETRIC_REPRESENTATION_CONTEXT() REPRESENTATION_CONTEXT('2D SPACE',''
  ) );
#1235 = ADVANCED_FACE('',(#1236),#1078,.F.);
#1236 = FACE_BOUND('',#1237,.F.);
#1237 = EDGE_LOOP('',(#1238,#1239,#1258,#1259));
#1238 = ORIENTED_EDGE('',*,*,#1065,.F.);
#1239 = ORIENTED_EDGE('',*,*,#1240,.F.);
#1240 = EDGE_CURVE('',#1093,#1037,#1241,.T.);
#1241 = SURFACE_CURVE('',#1242,(#1246,#1252),.PCURVE_S1.);
#1242 = LINE('',#1243,#1244);
#1243 = CARTESIAN_POINT('',(28.,41.62,16.3));
#1244 = VECTOR('',#1245,1.);
#1245 = DIRECTION('',(1.,0.,0.));
#1246 = PCURVE('',#1078,#1247);
#1247 = DEFINITIONAL_REPRESENTATION('',(#1248),#1251);
#1248 = B_SPLINE_CURVE_WITH_KNOTS('',1,(#1249,#1250),.UNSPECIFIED.,.F.,
  .F.,(2,2),(-0.666458325195,4.666458325195),.PIECEWISE_BEZIER_KNOTS.);
#1249 = CARTESIAN_POINT('',(4.3,1.333541674805));
#1250 = CARTESIAN_POINT('',(4.3,6.666458325195));
#1251 = ( GEOMETRIC_REPRESENTATION_CONTEXT(2) 
PARAMETRIC_REPRESENTATION_CONTEXT() REPRESENTATION_CONTEXT('2D SPACE',''
  ) );
#1252 = PCURVE('',#1053,#1253);
#1253 = DEFINITIONAL_REPRESENTATION('',(#1254),#1257);
#1254 = B_SPLINE_CURVE_WITH_KNOTS('',1,(#1255,#1256),.UNSPECIFIED.,.F.,
  .F.,(2,2),(-0.666458325195,4.666458325195),.PIECEWISE_BEZIER_KNOTS.);
#1255 = CARTESIAN_POINT('',(-2.666458325195,1.62));
#1256 = CARTESIAN_POINT('',(2.666458325195,1.62));
#1257 = ( GEOMETRIC_REPRESENTATION_CONTEXT(2) 
PARAMETRIC_REPRESENTATION_CONTEXT() REPRESENTATION_CONTEXT('2D SPACE',''
  ) );
#1258 = ORIENTED_EDGE('',*,*,#1092,.T.);
#1259 = ORIENTED_EDGE('',*,*,#1217,.F.);
#1260 = ADVANCED_FACE('',(#1261,#1264),#1053,.F.);
#1261 = FACE_BOUND('',#1262,.F.);
#1262 = EDGE_LOOP('',(#1263));
#1263 = ORIENTED_EDGE('',*,*,#1188,.T.);
#1264 = FACE_BOUND('',#1265,.F.);
#1265 = EDGE_LOOP('',(#1266,#1267,#1268));
#1266 = ORIENTED_EDGE('',*,*,#1115,.F.);
#1267 = ORIENTED_EDGE('',*,*,#1240,.T.);
#1268 = ORIENTED_EDGE('',*,*,#1036,.F.);
#1269 = ( GEOMETRIC_REPRESENTATION_CONTEXT(3) 
GLOBAL_UNCERTAINTY_ASSIGNED_CONTEXT((#1273)) 
GLOBAL_UNIT_ASSIGNED_CONTEXT((#1270,#1271,#1272)) REPRESENTATION_CONTEXT
('Context #1','3D Context with UNIT and UNCERTAINTY') );
#1270 = ( LENGTH_UNIT() NAMED_UNIT(*) SI_UNIT(.MILLI.,.METRE.) );
#1271 = ( NAMED_UNIT(*) PLANE_ANGLE_UNIT() SI_UNIT($,.RADIAN.) );
#1272 = ( NAMED_UNIT(*) SI_UNIT($,.STERADIAN.) SOLID_ANGLE_UNIT() );
#1273 = UNCERTAINTY_MEASURE_WITH_UNIT(LENGTH_MEASURE(1.E-07),#1270,
  'distance_accuracy_value','confusion accuracy');
#1274 = PRODUCT_RELATED_PRODUCT_CATEGORY('part',$,(#7));
ENDSEC;
END-ISO-10303-21;
